if (_typeface_js && _typeface_js.loadFace) _typeface_js.loadFace({"glyphs":{"0":{"ha":804,"x_min":0,"x_max":0,"o":"m 186 197 b 150 238 181 203 163 221 l 126 261 b 79 339 115 276 82 328 l 54 431 b 43 469 54 433 43 460 l 43 479 b 42 507 43 489 42 500 b 43 536 42 514 43 528 l 43 546 l 74 665 l 74 664 l 79 682 l 114 750 b 153 806 119 763 147 800 l 199 853 l 261 900 b 283 914 265 901 274 907 l 306 928 l 303 925 l 324 935 l 322 933 l 324 933 b 376 946 331 933 357 940 l 447 964 l 461 964 l 500 954 l 499 956 b 619 881 543 943 601 900 b 690 736 643 854 690 772 l 714 703 l 721 682 l 721 683 l 725 671 b 729 656 725 671 728 663 l 738 607 b 760 535 742 600 760 540 l 760 529 b 761 510 760 521 761 514 b 746 454 742 489 756 478 l 738 433 b 724 374 738 435 729 382 l 724 375 b 700 329 717 360 707 344 l 701 331 b 678 272 700 325 681 278 l 663 253 b 618 199 649 235 631 211 l 608 182 b 583 153 606 176 590 158 l 476 50 l 478 50 b 401 1 461 35 417 1 b 389 3 399 1 389 3 l 371 17 b 347 60 371 22 347 38 m 213 535 b 221 508 213 532 215 519 l 221 510 l 233 482 b 247 390 239 468 239 401 b 306 310 250 379 286 319 l 304 310 l 317 300 b 474 194 397 233 474 199 b 485 193 476 194 483 193 b 493 194 486 193 493 194 l 511 225 l 510 224 l 533 279 b 554 317 535 290 547 306 l 558 324 l 558 568 l 533 640 l 525 683 b 522 697 524 688 522 693 l 513 708 b 500 724 506 713 501 721 l 493 738 l 493 736 b 367 819 469 768 458 819 l 358 819 b 328 822 349 821 333 822 b 281 788 297 822 299 825 l 282 789 b 224 653 243 729 242 761 l 213 589 l 213 535 "},"1":{"ha":433,"x_min":0,"x_max":0,"o":"m 43 -85 b 67 -22 44 -78 64 -29 l 78 18 l 90 50 b 113 90 92 53 113 86 b 125 142 115 96 121 136 b 147 182 126 146 146 178 b 182 274 163 213 156 239 b 181 367 181 288 181 326 b 182 460 181 406 181 446 l 193 665 b 206 707 193 669 206 703 l 206 788 b 42 900 206 832 42 856 b 113 951 42 932 83 932 b 189 1006 136 975 171 1006 b 251 967 200 1006 236 989 l 379 967 b 392 936 386 967 392 950 b 379 890 392 922 379 904 b 367 736 376 868 368 760 l 367 460 l 356 418 b 344 315 354 406 344 333 l 344 264 b 367 163 344 246 367 211 l 367 142 b 332 90 367 119 351 101 l 264 39 b 206 -3 257 35 210 1 b 83 -117 151 -42 121 -117 b 43 -85 74 -117 43 -110 "},"2":{"ha":804,"x_min":0,"x_max":0,"o":"m 338 -4 b 107 6 206 -3 172 0 l 46 11 l 42 64 l 151 147 l 211 197 b 453 425 296 268 431 390 l 464 439 b 496 492 465 439 490 482 l 500 500 b 511 526 506 511 511 526 l 499 724 b 486 749 499 724 490 742 l 474 769 l 453 786 b 386 822 438 799 389 821 l 161 822 b 138 865 146 822 138 846 l 138 889 b 207 944 146 899 193 939 l 206 943 b 296 964 213 946 275 960 l 321 964 b 449 935 349 964 442 939 l 511 899 b 694 576 693 778 694 621 l 683 536 l 683 538 l 668 485 l 631 438 b 582 371 619 424 590 375 l 488 276 l 467 261 l 468 261 l 435 238 l 435 239 b 376 197 419 239 390 206 l 364 188 l 304 154 l 297 147 l 353 147 b 414 149 367 147 396 149 l 426 149 b 525 169 435 149 517 167 l 625 179 b 693 190 636 182 685 190 l 717 190 b 746 171 726 190 746 175 l 763 -32 b 744 -50 763 -35 749 -49 l 739 -50 b 722 -51 733 -50 726 -51 b 685 -46 701 -51 699 -50 l 660 -40 l 603 -21 b 571 -10 600 -18 581 -12 "},"3":{"ha":781,"x_min":0,"x_max":0,"o":"m 554 433 b 485 494 554 453 515 486 l 404 529 b 382 532 399 529 392 531 l 318 540 l 303 549 b 288 583 293 553 288 575 b 426 733 288 621 385 696 b 406 738 418 735 408 738 b 279 764 372 756 353 749 l 239 772 b 174 785 218 776 190 783 b 124 765 156 785 139 775 l 113 749 b 42 746 100 749 57 746 b 107 843 43 783 57 817 l 128 854 l 126 853 l 179 889 l 210 903 l 208 901 b 272 932 236 914 267 932 l 307 954 l 346 965 l 382 965 b 507 954 413 965 499 954 l 576 932 l 600 921 l 639 886 b 654 858 643 882 651 865 l 654 843 l 639 819 l 642 822 b 590 765 640 818 604 779 l 592 765 b 533 701 585 754 543 711 l 533 686 l 603 632 l 601 632 l 618 618 l 674 556 l 703 496 l 725 429 b 738 381 729 415 738 385 l 738 376 b 739 364 738 372 739 367 b 738 354 739 363 738 358 l 738 346 l 711 268 b 603 143 706 238 643 169 l 603 144 b 469 75 583 125 513 94 l 336 29 l 308 14 l 256 4 b 200 -1 239 1 222 -1 l 157 -1 b 283 133 169 28 243 108 l 282 133 b 450 211 289 140 435 201 b 531 286 468 222 524 274 l 531 290 b 553 415 531 317 550 401 l 553 419 b 554 433 553 425 554 432 "},"4":{"ha":1003,"x_min":0,"x_max":0,"o":"m 378 411 b 108 401 336 411 149 401 b 85 390 103 401 90 390 l 72 390 b 42 426 54 393 42 410 b 43 435 42 429 43 432 l 43 443 b 79 492 44 450 71 485 l 79 490 l 304 706 b 406 792 313 714 382 772 l 485 857 b 647 965 531 894 640 964 l 794 965 b 821 954 797 965 815 957 l 819 954 b 836 942 828 949 836 942 l 836 892 l 825 871 b 803 826 815 854 804 835 l 779 764 b 757 665 778 764 757 735 l 746 621 l 746 593 l 763 578 l 796 578 b 833 588 801 578 817 583 l 881 599 b 911 603 882 601 904 603 b 960 583 929 603 943 600 l 960 576 b 961 564 960 572 961 567 b 960 547 961 561 960 554 l 926 515 b 733 356 774 363 733 475 l 733 301 b 735 211 733 282 735 236 l 735 196 b 739 175 735 196 736 186 l 746 142 b 768 57 749 125 765 64 l 783 14 b 814 -107 810 -61 814 -75 b 783 -137 814 -118 811 -133 l 769 -137 b 708 -90 747 -132 718 -107 l 675 -35 b 618 72 664 -18 624 56 l 606 107 l 606 106 l 594 147 b 561 311 574 194 561 246 l 549 376 l 531 411 m 549 650 b 561 669 547 649 557 665 l 561 810 l 282 564 b 269 553 275 557 271 553 l 271 553 b 378 557 297 553 364 556 b 529 578 401 557 468 578 b 532 594 531 582 532 592 l 538 617 b 549 650 540 621 549 644 "},"5":{"ha":979,"x_min":0,"x_max":0,"o":"m 79 538 b 42 746 69 569 42 682 b 72 838 42 783 61 825 l 72 836 l 100 881 l 113 892 b 242 954 124 903 231 954 l 346 954 b 364 951 344 954 354 953 l 401 943 b 522 911 424 938 507 917 l 521 911 l 538 906 b 553 900 543 903 549 901 l 589 893 l 786 893 l 879 963 l 888 963 b 894 964 890 963 893 964 b 921 960 897 964 921 960 b 917 956 921 957 921 956 b 931 954 918 954 924 954 l 938 929 l 938 917 b 926 883 938 910 928 888 l 876 824 b 838 792 868 815 843 794 l 836 792 b 764 758 826 792 801 758 l 643 726 l 633 726 b 617 725 629 726 622 725 l 589 725 b 574 726 583 725 578 726 l 568 726 b 538 735 556 726 544 735 l 497 746 b 460 754 486 754 472 750 l 435 758 b 399 767 426 758 411 763 l 400 767 b 356 781 381 771 358 778 l 315 788 l 278 799 b 242 808 268 801 242 808 l 231 808 b 207 810 224 808 215 810 l 181 810 b 165 808 175 810 169 808 l 169 776 b 171 767 169 774 171 772 l 186 697 l 276 551 l 276 553 b 426 256 346 426 418 418 l 436 176 b 431 106 436 147 431 124 l 425 94 b 353 -26 404 76 379 6 l 317 -69 l 300 -81 l 301 -81 l 274 -103 l 274 -101 b 233 -122 263 -112 244 -122 l 225 -122 b 218 -121 224 -122 221 -121 l 213 -121 b 186 -97 206 -121 189 -110 l 182 -87 l 182 -72 b 189 -53 183 -69 189 -56 l 192 -46 b 200 -29 194 -39 196 -32 l 222 1 b 263 94 242 36 263 67 b 253 119 254 94 253 106 b 254 144 253 128 254 136 b 253 160 254 150 254 156 l 238 239 b 221 279 238 250 221 271 b 160 400 201 340 203 343 l 82 528 "},"6":{"ha":804,"x_min":0,"x_max":0,"o":"m 44 376 b 42 401 44 379 43 400 b 78 572 46 456 63 528 l 78 571 b 181 742 96 649 125 669 l 194 760 b 286 839 204 767 268 824 l 321 858 b 394 903 338 871 390 901 l 456 929 l 489 938 l 488 938 b 596 964 519 947 594 964 l 601 964 b 653 965 613 964 639 965 b 704 964 664 965 690 964 l 718 964 l 756 953 b 763 921 757 947 763 925 b 746 904 763 918 753 906 l 731 897 b 629 875 728 896 703 893 l 607 869 b 546 854 586 864 564 861 l 513 843 b 392 782 511 843 431 810 l 393 782 l 361 756 l 361 757 l 324 724 b 294 689 315 713 297 696 l 296 690 b 268 644 294 685 274 653 b 221 507 215 560 258 581 l 249 264 b 318 181 268 239 300 199 l 317 181 b 324 172 318 179 322 175 l 351 151 b 379 132 365 142 379 133 l 543 132 b 546 140 543 132 543 136 l 556 150 b 579 203 560 160 575 196 b 578 228 579 208 578 221 l 578 257 b 568 315 575 274 568 306 l 567 315 b 542 353 565 315 546 349 b 336 433 486 401 464 433 b 265 432 306 433 275 432 b 242 458 250 432 242 451 l 242 474 b 331 586 242 499 301 563 l 351 596 l 399 606 l 432 606 b 479 596 447 606 463 597 l 501 588 b 575 550 521 581 571 551 l 669 481 b 740 378 689 471 718 411 l 743 374 l 742 376 b 754 351 747 369 754 354 l 756 331 b 736 239 749 301 736 256 l 729 211 b 713 154 724 188 714 160 l 707 146 b 590 29 707 142 656 68 b 538 8 574 19 554 19 l 493 0 l 468 0 b 329 36 432 7 335 33 l 276 67 b 186 133 264 76 203 122 l 136 179 b 78 278 103 210 90 246 l 69 299 b 44 376 46 350 44 350 "},"7":{"ha":811,"x_min":0,"x_max":0,"o":"m 150 178 b 151 199 150 185 151 193 l 151 210 b 160 238 151 210 157 229 l 172 308 b 186 336 172 310 179 324 l 208 376 b 213 388 208 381 210 383 l 211 386 b 246 454 233 439 231 428 l 282 518 b 307 550 290 526 299 543 l 306 550 b 375 633 319 568 365 625 l 375 632 l 439 703 l 499 760 l 354 724 l 264 724 b 54 821 157 736 60 781 l 43 897 b 42 904 43 900 42 901 l 42 910 b 92 960 42 942 68 960 l 103 960 b 115 958 104 960 110 958 l 185 918 l 183 918 b 193 914 185 917 190 914 l 208 906 b 257 889 221 899 257 889 l 536 889 b 613 908 553 889 601 908 l 622 911 b 651 918 631 913 642 917 l 697 940 b 731 949 704 943 728 949 b 768 926 738 949 764 935 l 768 910 b 769 897 768 906 769 903 l 769 890 b 768 878 769 886 768 882 l 768 872 b 749 849 768 868 756 853 l 750 849 b 706 818 742 842 710 819 l 707 819 l 661 783 l 650 778 l 513 642 l 493 614 l 471 590 l 472 590 l 414 510 b 407 501 413 507 408 503 l 376 440 b 356 389 369 431 356 393 l 356 138 b 429 47 356 122 408 64 l 428 47 l 438 40 b 453 7 444 33 453 8 b 386 -61 453 -42 419 -61 b 324 -47 360 -61 349 -60 l 325 -49 l 267 -29 b 151 125 221 3 163 65 l 151 133 b 150 147 151 138 150 143 l 150 178 "},"8":{"ha":701,"x_min":0,"x_max":0,"o":"m 54 361 b 142 485 85 407 100 435 b 169 533 163 499 169 513 b 142 582 169 563 156 567 b 93 679 133 597 93 671 l 93 689 b 168 829 104 729 150 821 l 218 893 l 293 964 b 306 972 296 965 304 972 l 356 972 b 546 813 432 924 496 881 l 558 786 l 571 725 l 571 689 l 558 636 l 546 610 l 507 574 l 494 556 l 494 539 b 660 367 576 481 660 419 b 583 211 660 329 618 246 l 468 106 b 419 60 465 100 425 65 b 381 25 415 57 385 28 l 344 -1 b 326 -3 344 -1 332 -3 b 306 -1 321 -3 308 -1 b 67 211 147 121 114 147 l 54 238 b 42 274 51 244 42 271 l 42 308 m 217 382 b 218 335 217 369 218 336 b 401 165 218 322 347 165 l 407 167 b 471 285 461 194 471 219 b 356 432 471 322 472 367 b 256 488 332 450 258 488 b 217 382 215 488 217 418 m 275 761 b 274 754 274 760 274 757 b 332 671 274 731 314 671 b 432 608 356 653 419 608 b 458 618 442 608 458 613 l 458 725 l 344 804 l 293 804 "},"9":{"ha":767,"x_min":0,"x_max":0,"o":"m 171 40 b 186 75 171 44 181 69 l 185 75 b 275 171 192 86 254 153 l 382 268 l 418 310 b 440 336 424 318 435 329 l 456 353 l 454 353 b 476 378 463 363 474 378 l 476 376 b 522 449 489 396 522 447 l 522 654 b 476 736 522 663 489 719 b 396 801 472 742 417 788 l 371 818 b 363 821 369 818 365 819 l 364 821 b 342 831 361 822 342 831 l 333 831 b 290 832 321 831 301 832 l 267 832 b 240 831 254 832 244 831 l 236 825 b 188 750 232 818 188 761 l 188 615 l 197 600 l 207 592 b 214 588 208 590 213 588 l 253 568 b 375 518 253 568 375 538 l 375 485 b 321 418 371 481 342 440 l 304 404 b 249 374 281 390 253 374 l 244 374 b 233 372 240 374 235 372 l 224 372 b 210 374 219 372 211 374 l 139 433 b 92 485 131 439 100 474 l 57 533 b 43 567 51 540 43 563 l 43 572 b 42 603 43 581 42 594 b 43 628 42 607 43 621 l 43 635 b 71 700 44 640 68 693 l 74 725 b 129 835 76 736 94 794 l 149 857 l 147 857 l 161 874 b 171 882 164 875 171 881 l 213 906 l 211 906 b 221 910 211 907 217 908 l 258 925 l 317 943 l 317 942 b 389 963 333 949 385 963 l 396 963 b 407 964 400 963 406 964 b 488 942 413 964 467 958 l 486 942 l 585 882 b 592 875 585 881 590 875 b 689 743 653 806 661 792 b 724 646 689 735 708 707 l 724 639 b 725 615 724 632 725 619 b 724 593 725 610 724 600 l 724 583 b 703 511 722 576 706 517 l 694 482 b 582 326 675 414 649 390 l 349 121 l 349 122 l 340 113 l 342 113 l 326 93 l 326 94 l 292 46 b 281 -11 292 36 282 -7 l 272 -32 b 249 -56 271 -35 258 -56 l 244 -56 b 233 -57 240 -56 235 -57 l 231 -57 b 171 40 218 -57 171 -50 "},"n":{"ha":854,"x_min":0,"x_max":0,"o":"m 126 -24 b 88 39 97 -24 88 15 b 92 76 88 58 92 64 b 76 169 92 90 88 117 l 76 185 b 67 568 76 529 67 567 l 68 567 l 64 576 b 42 622 53 589 42 608 b 69 668 42 640 57 657 l 88 686 l 108 696 b 136 708 113 700 122 708 b 233 588 183 708 233 661 b 226 556 233 578 231 565 b 235 535 226 551 229 542 l 240 519 l 365 457 b 465 392 404 438 429 424 l 519 358 b 558 333 517 361 546 342 l 576 324 b 610 307 588 318 601 310 l 624 300 l 624 474 b 606 574 624 515 613 574 l 596 589 b 579 631 592 597 579 624 b 621 683 581 642 600 668 l 619 683 l 636 696 b 721 731 671 722 704 731 b 775 704 738 731 756 724 b 789 600 775 651 789 638 b 781 535 789 575 788 553 l 781 510 b 783 476 781 500 782 488 l 788 438 b 794 376 788 425 794 386 l 786 318 b 790 263 786 278 789 265 l 789 264 l 797 247 l 796 251 b 801 225 800 244 801 239 b 794 151 801 208 794 160 b 803 126 794 146 800 136 l 803 128 l 807 115 b 813 85 811 104 813 93 l 813 74 b 728 3 782 19 758 3 l 718 3 b 646 74 714 4 649 14 l 639 103 b 633 132 635 117 636 125 l 572 142 l 521 164 b 506 167 517 164 508 165 l 507 167 l 490 171 b 481 174 488 171 483 171 l 479 174 b 438 186 464 178 453 181 l 375 218 l 322 250 l 324 249 l 231 290 b 225 242 228 275 228 257 l 225 179 b 226 158 225 172 226 165 b 193 -6 226 57 208 -6 b 190 6 192 -6 190 -3 b 153 -15 182 -7 167 -11 l 151 -15 b 126 -24 143 -22 133 -24 "},"B":{"ha":979,"x_min":0,"x_max":0,"o":"m 307 8 b 67 60 233 8 67 8 l 67 79 b 94 217 72 121 94 188 l 94 250 b 115 544 99 294 115 517 b 97 713 115 558 111 585 b 106 749 97 728 106 746 l 106 824 b 42 917 100 858 86 888 l 42 950 b 226 1014 71 994 179 1014 b 278 1006 250 1011 264 1008 l 289 1003 b 300 1000 293 1003 296 1000 l 372 986 b 400 981 382 983 390 982 l 460 951 l 506 942 l 529 942 b 600 951 539 942 592 951 l 674 951 b 758 964 694 951 710 964 b 843 928 794 964 839 950 l 774 844 l 774 846 b 751 813 763 836 758 825 l 750 810 b 724 754 739 783 731 764 l 685 704 l 685 706 b 660 660 671 694 660 664 b 756 621 660 622 717 653 l 808 596 b 915 501 808 596 915 538 b 921 482 917 494 918 488 l 926 463 b 938 378 926 446 938 439 b 926 308 938 356 926 333 l 917 281 l 917 282 b 817 128 882 206 867 168 b 531 4 728 58 639 4 b 461 10 510 4 483 6 l 372 10 b 307 8 350 10 328 8 m 307 401 b 308 386 307 399 308 393 l 311 294 b 315 261 311 278 311 265 l 315 238 b 321 213 317 229 318 221 l 326 192 b 414 129 329 168 376 142 l 456 119 b 543 108 468 117 504 113 l 631 99 l 636 96 b 661 90 644 93 654 90 l 674 90 b 721 164 699 90 714 138 l 725 178 b 732 199 725 186 728 193 l 732 197 l 736 203 b 744 222 742 208 744 215 b 732 250 744 228 738 240 l 733 250 l 713 286 b 535 474 664 371 614 415 l 500 497 l 461 507 b 440 518 456 507 446 513 l 440 528 b 463 571 450 550 457 563 l 475 588 l 506 596 b 510 599 506 596 507 597 l 508 599 b 529 613 517 601 525 606 l 526 611 l 561 629 l 576 644 b 593 663 583 651 592 660 l 622 724 l 621 724 l 651 778 l 651 792 b 529 882 629 878 607 876 l 456 882 b 325 779 339 867 325 857 b 326 681 325 754 326 722 l 326 597 b 307 465 326 586 307 525 l 307 401 "},"m":{"ha":1386,"x_min":0,"x_max":0,"o":"m 42 307 b 415 717 65 678 343 699 l 444 724 b 526 728 476 726 500 728 l 556 728 b 761 575 597 725 693 664 b 846 646 794 593 813 617 l 869 661 b 974 717 938 706 939 717 l 981 717 b 1167 631 1017 717 1100 711 l 1211 596 b 1308 424 1229 572 1299 515 b 1324 381 1308 414 1324 390 l 1322 351 b 1343 279 1321 325 1344 311 l 1343 274 b 1281 107 1342 251 1333 183 l 1258 75 b 1189 28 1233 53 1218 39 b 1114 -3 1164 3 1124 11 l 1115 15 b 1154 96 1118 28 1153 76 l 1157 163 l 1153 222 l 1139 281 b 1140 299 1139 282 1140 292 b 1128 347 1140 301 1129 332 l 1121 382 l 1099 425 l 1099 424 b 901 586 1096 424 986 582 l 886 586 b 764 432 785 586 764 529 b 772 264 764 385 769 328 b 792 197 774 228 786 218 l 792 168 b 804 121 792 156 800 135 b 793 69 804 108 793 106 l 793 38 b 692 -7 768 32 736 -7 b 622 28 671 -7 649 1 l 614 46 l 614 54 l 624 79 l 624 88 b 604 189 617 125 611 181 l 600 231 l 601 272 b 585 440 599 361 597 397 l 569 467 b 492 579 560 483 503 560 b 374 643 460 631 443 626 l 367 643 b 231 469 269 628 231 569 b 238 389 231 444 233 418 l 244 372 b 250 322 246 368 250 326 l 257 306 b 292 236 275 282 279 254 b 364 158 308 213 340 174 l 407 131 l 431 122 b 501 100 446 103 478 101 b 519 101 510 100 515 100 b 496 76 513 96 499 81 l 472 44 b 426 14 456 33 432 29 l 335 -7 l 307 3 b 224 31 275 4 251 18 l 196 39 b 124 103 176 56 128 90 l 115 119 b 67 181 111 125 69 174 b 46 274 53 203 65 239 l 42 307 "},"r":{"ha":879,"x_min":0,"x_max":0,"o":"m 167 107 b 172 203 167 150 172 172 b 169 281 171 204 172 238 l 160 450 l 147 496 b 139 526 147 499 139 517 l 133 564 b 42 660 133 619 42 590 b 92 697 43 658 60 689 l 190 724 b 240 728 200 724 236 728 b 296 701 269 728 282 717 l 300 697 b 365 668 313 683 328 668 l 369 668 b 472 728 375 696 461 728 b 494 724 472 728 483 726 l 531 717 l 600 686 l 665 642 l 686 621 b 744 544 708 599 738 571 l 750 513 l 750 492 b 633 342 738 429 718 426 l 613 321 b 603 307 613 321 606 311 b 761 174 646 268 675 264 b 790 147 767 164 778 154 l 799 143 l 797 144 b 838 99 815 132 838 121 b 824 76 838 93 829 82 l 801 58 l 772 44 b 697 29 757 44 739 29 l 658 26 l 619 31 b 603 39 617 32 608 33 l 582 53 l 576 60 b 467 160 539 97 486 142 l 429 204 l 415 229 l 415 247 l 418 254 l 436 268 b 458 292 444 272 451 276 l 506 342 l 504 342 b 518 358 506 344 508 347 l 526 369 b 560 429 546 386 557 421 l 560 435 b 549 463 550 446 549 454 l 549 472 b 546 486 549 476 549 481 l 538 501 l 500 550 l 438 601 l 439 601 l 397 621 l 392 626 l 367 588 l 338 532 l 338 504 l 343 486 b 349 343 344 465 349 365 l 349 313 b 350 292 349 308 349 301 l 353 257 b 356 203 354 238 356 207 b 349 178 354 201 349 179 l 349 147 b 343 128 346 149 343 128 b 347 115 343 128 344 121 l 351 93 b 357 63 351 94 357 78 b 235 -3 357 7 272 -3 l 228 -3 b 217 -1 225 -3 221 -1 l 204 -1 l 176 18 b 167 82 169 26 167 61 l 167 107 "},".":{"ha":294,"x_min":0,"x_max":0,"o":"m 42 67 b 176 207 42 132 53 185 l 192 207 b 251 82 244 171 251 104 b 147 -3 251 0 213 -3 b 42 67 103 -3 42 -8 "},"I":{"ha":386,"x_min":0,"x_max":0,"o":"m 81 67 b 99 129 92 86 99 100 b 113 794 113 339 113 544 b 100 838 113 799 101 838 b 101 843 100 839 101 840 b 99 849 101 843 99 846 l 97 854 b 83 883 97 861 83 878 l 83 890 b 79 913 83 892 79 911 b 129 964 79 951 103 925 l 142 974 b 147 986 144 979 147 982 b 274 969 231 968 185 969 l 290 969 b 318 961 299 969 306 961 b 310 953 318 958 311 953 l 306 951 l 307 950 b 290 882 299 918 290 890 l 290 876 b 281 867 290 872 281 869 l 281 861 b 283 840 283 854 283 847 b 261 722 283 824 261 751 b 268 636 261 694 268 664 b 283 158 268 500 274 267 b 285 147 283 158 285 150 l 285 142 b 288 133 286 140 288 133 l 288 110 b 310 61 288 104 310 67 l 310 47 b 344 21 315 29 344 36 b 339 4 344 17 339 10 b 342 -1 339 4 342 0 l 342 -7 b 339 -10 342 -8 342 -10 l 329 -4 b 242 21 329 11 296 -3 l 238 21 b 147 -6 226 10 168 6 l 143 -6 b 44 -3 106 -6 44 -56 l 44 3 "},"F":{"ha":718,"x_min":0,"x_max":0,"o":"m 588 267 b 558 283 579 269 565 272 l 546 294 b 508 315 536 300 515 310 l 499 319 b 376 338 494 324 436 338 l 331 338 b 292 333 324 338 304 335 l 269 328 b 268 315 268 325 268 319 l 268 283 b 271 276 269 283 271 278 l 271 261 b 268 253 271 261 269 253 l 268 247 b 271 226 268 246 269 236 l 274 200 b 267 183 274 194 269 189 l 274 172 l 274 154 l 278 146 b 246 78 278 125 278 115 l 229 78 b 222 65 229 71 225 67 l 186 39 l 186 31 b 118 0 186 24 179 18 l 117 0 b 121 -15 118 -3 121 -7 l 108 -22 b 100 -35 103 -25 100 -28 l 78 -43 l 78 -50 b 6 -135 78 -71 49 -112 l -11 -156 l -19 -156 b -26 -158 -21 -157 -22 -158 l -37 -156 l -37 -174 l -42 -171 l -37 -156 l -40 -156 b -44 -151 -40 -154 -42 -151 l -44 -140 l -36 -132 b -25 -121 -36 -131 -32 -126 l -15 -111 b -14 -104 -14 -108 -14 -106 l 10 -89 b 19 -78 11 -89 19 -79 l 38 -58 b 54 -26 38 -58 43 -42 l 65 -26 l 65 -15 l 85 1 b 103 25 86 13 97 24 l 101 75 b 107 104 101 93 107 99 b 93 303 97 169 93 219 b 99 553 93 363 94 440 l 99 592 b 110 660 107 615 110 638 b 101 758 110 697 101 731 l 101 769 b 111 801 101 783 111 771 b 101 871 111 825 106 860 l 101 879 b 106 889 101 879 104 885 l 110 901 b 104 908 108 903 104 906 b 107 917 104 908 106 914 l 107 922 b 78 936 99 925 85 931 l 69 936 b 29 935 58 936 43 935 b -61 938 -18 935 -37 938 l -61 957 l -26 967 b 60 979 -7 972 14 979 l 74 982 l 113 982 l 118 979 b 129 975 121 979 129 975 l 133 975 b 147 979 135 975 140 976 b 150 975 149 976 150 976 l 157 982 l 183 979 b 288 965 208 976 256 965 l 528 965 b 568 958 533 965 561 961 b 640 972 593 963 585 972 l 651 972 l 676 957 l 636 932 b 615 913 632 924 615 914 l 622 886 l 622 853 b 618 843 622 850 619 847 l 618 840 b 622 818 618 839 622 821 l 608 811 l 610 781 l 610 778 b 589 753 610 753 590 753 b 571 786 575 753 571 779 l 571 796 b 565 813 569 796 567 806 l 553 854 b 543 851 546 854 543 853 b 513 878 532 860 511 878 l 501 886 b 369 925 501 886 443 925 l 321 925 b 282 900 303 925 282 922 l 278 892 b 268 846 275 882 268 876 b 282 663 268 775 282 726 b 274 443 282 590 274 515 l 274 415 b 272 410 274 414 272 413 b 346 383 272 404 281 392 l 367 383 b 388 378 375 383 372 378 b 436 381 394 378 429 381 l 486 381 b 521 386 492 381 507 386 l 551 386 b 614 393 578 386 586 393 l 626 393 b 639 389 628 393 635 390 l 638 390 b 654 386 642 389 646 386 l 654 369 l 649 364 l 649 357 b 640 346 649 357 644 350 l 638 343 l 638 325 b 639 296 639 317 639 306 b 636 269 639 285 639 276 b 646 243 644 250 646 247 l 654 232 b 649 219 654 228 649 219 l 649 215 b 629 188 649 204 629 188 l 613 192 b 592 239 608 192 601 226 l 589 268 b 588 267 588 268 588 267 m -54 -178 b -64 -187 -54 -182 -57 -187 l -65 -187 l -64 -190 b -69 -201 -64 -193 -65 -196 l -68 -199 b -104 -229 -72 -204 -92 -229 l -112 -226 l -115 -212 b -112 -208 -114 -211 -112 -208 l -96 -192 b -64 -167 -92 -186 -69 -167 m -108 -229 b -115 -250 -108 -239 -111 -244 l -128 -258 b -164 -275 -143 -264 -131 -275 l -164 -261 b -121 -222 -164 -257 -131 -228 m 149 975 b 147 972 149 975 147 975 l 150 975 l 149 975 "},"J":{"ha":365,"x_min":0,"x_max":0,"o":"m 135 61 b 143 83 140 65 143 79 l 143 93 b 125 101 143 96 125 94 l 132 114 l 132 147 b 125 183 132 150 125 178 l 125 338 b 117 374 117 344 117 372 b 119 403 117 385 119 400 b 107 417 119 403 107 414 l 107 476 b 103 594 107 489 103 583 l 103 679 b 96 722 103 685 96 718 l 96 744 b 103 765 96 746 103 764 l 103 786 b 81 875 103 819 81 868 b 83 893 81 882 83 892 b 42 950 83 893 42 946 l 42 953 b 76 989 50 978 53 989 l 107 989 b 176 992 126 989 175 992 b 308 1025 199 1000 253 1004 l 317 1025 b 324 1017 317 1025 324 1021 l 324 1014 b 288 996 321 1014 288 1003 l 288 986 b 282 961 288 982 282 963 l 282 890 b 288 854 282 886 288 858 b 282 840 288 854 282 842 l 282 804 b 288 771 282 800 288 775 l 282 758 b 267 640 274 749 272 675 l 267 558 b 288 407 267 547 288 521 b 282 392 288 403 282 394 l 282 363 b 288 313 282 358 288 318 b 275 278 288 303 275 294 l 275 275 b 288 250 275 265 288 257 l 288 204 b 301 156 288 193 301 174 l 301 83 b 311 61 304 74 311 68 b 308 54 311 60 308 54 l 301 43 l 301 14 b 296 -7 301 13 296 -4 l 301 -19 b 311 -85 307 -43 311 -43 b 301 -183 311 -118 301 -150 l 301 -217 b 296 -265 301 -224 297 -260 b 282 -342 296 -264 282 -307 b 240 -433 279 -346 265 -404 l 190 -468 b 81 -506 190 -474 100 -506 b 76 -504 78 -506 76 -506 l 63 -504 b 96 -458 78 -493 96 -461 l 96 -450 b 103 -440 96 -450 103 -442 l 103 -419 b 125 -337 103 -418 125 -375 l 125 -260 b 135 -201 125 -240 135 -217 l 135 61 "},"o":{"ha":838,"x_min":0,"x_max":0,"o":"m 42 340 b 40 360 40 347 40 353 b 415 736 40 501 204 736 b 519 717 449 736 483 731 l 531 713 l 529 714 l 569 701 b 796 421 689 658 769 575 l 796 353 l 789 314 b 536 26 764 174 617 81 l 476 11 b 463 7 471 10 461 7 l 464 7 b 371 -1 429 -1 418 -1 b 224 33 304 -1 283 4 l 199 57 b 75 206 125 126 97 154 l 57 247 b 42 340 42 290 47 290 m 203 471 b 208 444 203 468 208 444 l 208 446 l 217 400 b 236 343 218 390 233 350 l 235 344 l 272 274 b 306 219 282 254 303 243 l 344 176 b 390 144 353 167 375 151 l 401 139 l 400 140 l 433 126 b 475 114 440 121 471 114 l 556 125 b 604 168 564 131 588 133 l 603 167 l 615 200 l 622 208 l 621 207 b 639 286 633 233 639 244 b 636 324 639 297 638 322 b 597 404 632 339 597 390 l 589 421 b 532 513 576 444 554 486 b 358 613 529 525 392 613 b 346 607 354 608 350 607 b 324 608 340 607 333 608 b 221 525 303 608 272 597 l 208 506 b 206 496 208 503 207 499 l 206 497 b 203 483 204 492 203 486 l 203 471 "},"p":{"ha":876,"x_min":0,"x_max":0,"o":"m 121 -374 b 138 -128 121 -286 138 -231 b 128 0 138 -86 133 -19 l 128 10 b 129 36 128 17 129 29 b 121 88 129 46 129 72 l 121 326 b 107 457 121 353 107 414 l 103 528 l 82 569 b 42 619 76 589 47 599 l 42 632 b 114 689 44 636 69 675 l 176 724 b 197 732 183 728 194 732 l 218 732 b 293 653 232 732 258 710 l 296 628 b 297 606 297 619 297 610 l 297 603 l 306 603 b 399 639 319 614 382 639 l 414 647 l 414 646 b 553 681 442 658 488 681 b 760 553 607 681 744 589 l 760 554 l 772 538 l 821 426 b 835 385 825 415 835 388 l 835 374 b 776 239 825 349 832 278 l 760 213 b 726 169 749 194 736 178 l 678 132 l 657 121 l 631 99 b 536 38 567 40 563 57 l 538 38 l 521 22 l 521 24 b 399 -7 517 19 446 -7 b 299 -53 361 -7 299 -7 l 299 -68 b 300 -101 299 -78 300 -89 b 286 -189 300 -132 299 -171 l 279 -267 b 260 -465 276 -267 260 -346 b 251 -503 260 -464 251 -499 l 246 -626 b 168 -694 246 -668 185 -694 b 121 -458 124 -694 121 -583 m 315 499 b 313 497 314 497 313 497 l 313 206 b 467 119 313 183 408 133 l 486 113 b 518 125 492 114 510 119 l 517 124 b 525 126 522 126 522 126 l 536 126 l 543 131 b 646 215 569 154 635 193 l 646 301 b 607 378 639 324 622 351 b 481 528 572 435 565 486 l 456 540 l 433 540 b 315 499 382 540 347 526 "},"h":{"ha":932,"x_min":0,"x_max":0,"o":"m 144 186 b 129 425 132 301 129 347 b 139 843 129 654 132 785 l 139 856 b 131 911 139 871 132 904 l 128 914 b 43 978 122 924 67 944 b 122 1038 43 978 71 1003 l 122 1036 b 231 1088 160 1051 229 1088 l 276 1088 b 319 1021 313 1088 319 1057 b 310 875 319 935 310 915 l 310 803 b 299 656 310 743 299 706 l 299 579 l 350 599 l 349 597 b 565 694 454 660 481 681 l 578 694 b 731 606 614 686 708 628 l 753 583 l 753 585 b 754 588 753 585 753 586 l 831 489 b 890 356 854 439 890 390 b 857 211 890 342 885 338 l 800 118 b 797 104 800 117 797 108 l 794 104 l 772 72 b 683 13 735 31 714 13 b 647 47 667 13 654 24 l 647 60 b 658 88 647 65 657 85 l 657 88 b 706 179 696 153 706 171 b 675 321 706 224 694 267 l 649 367 b 632 389 643 376 639 386 l 556 490 l 557 490 b 471 565 528 517 503 532 b 372 504 404 565 429 557 l 340 463 l 340 464 b 318 418 336 456 324 433 l 318 371 b 326 306 318 358 326 310 l 326 247 b 325 207 326 233 325 219 b 342 132 325 151 332 143 l 346 128 l 346 129 b 369 93 351 122 358 113 l 369 53 b 224 -37 369 4 267 -37 b 171 8 208 -37 182 -33 "},"a":{"ha":796,"x_min":0,"x_max":0,"o":"m 682 136 b 754 65 692 133 754 99 b 593 18 754 36 672 18 b 503 35 549 18 536 22 b 494 38 500 35 496 38 l 481 43 l 424 101 l 424 100 b 381 160 400 122 388 149 l 378 160 b 361 149 376 160 365 151 l 338 129 l 311 94 b 282 67 306 90 289 72 l 204 13 b 164 -3 201 8 172 -3 l 122 -3 b 50 81 79 7 54 43 l 42 146 l 51 158 b 121 242 76 211 121 231 l 153 264 l 175 286 b 219 294 183 290 200 294 l 219 275 b 200 217 217 268 200 221 l 200 197 l 206 178 l 206 179 b 258 144 214 151 224 144 b 351 249 322 144 340 213 l 356 256 b 331 325 356 261 338 325 l 303 325 b 288 317 301 325 290 318 l 267 317 l 236 310 l 236 332 b 310 403 260 339 301 390 l 310 436 b 288 506 310 444 290 500 l 257 588 l 258 586 l 231 635 b 215 683 218 649 215 674 b 217 696 215 686 217 692 l 224 713 b 264 751 229 715 247 739 l 275 757 l 324 763 l 351 763 b 439 647 393 739 421 704 l 438 647 b 460 553 450 618 449 585 l 478 500 l 485 457 b 489 444 488 454 489 449 b 513 363 497 399 500 376 b 611 186 532 263 557 236 l 610 188 l 682 136 "},"t":{"ha":957,"x_min":0,"x_max":0,"o":"m 424 67 b 432 358 432 221 432 296 l 432 426 l 442 504 b 440 550 442 515 440 539 l 440 557 b 406 607 439 586 439 607 l 340 607 b 278 613 311 607 297 607 l 263 610 b 147 517 208 593 210 569 l 108 488 b 85 469 101 482 97 475 l 64 469 b 43 497 57 469 43 492 l 42 519 l 53 549 b 110 614 74 590 85 599 l 160 654 l 290 706 l 328 715 b 401 726 336 715 356 724 l 413 726 b 557 715 486 724 519 715 l 578 715 b 611 701 581 714 608 701 l 703 694 b 751 688 721 690 750 688 b 838 717 781 688 814 717 b 907 682 857 717 894 703 l 914 658 b 915 650 914 656 915 651 b 900 607 915 639 907 617 l 876 590 l 849 576 l 840 568 b 801 553 829 560 822 553 b 760 575 782 553 771 563 l 761 575 b 707 601 751 588 738 601 b 654 592 681 601 669 597 l 642 588 l 629 576 b 625 565 628 575 625 567 l 625 408 b 644 168 625 304 626 228 l 651 139 b 674 126 657 133 667 126 b 678 128 675 126 676 128 b 799 92 704 128 799 125 b 696 11 799 47 717 15 l 560 -1 l 525 -1 b 424 67 481 -1 426 14 "},"q":{"ha":826,"x_min":0,"x_max":0,"o":"m 604 -376 b 586 75 604 -150 586 -46 l 586 78 b 588 82 586 81 588 82 l 574 82 b 557 75 567 82 563 78 l 547 69 b 389 11 485 31 465 28 l 386 11 b 303 -3 358 1 324 -3 b 114 81 254 -3 168 4 l 72 139 b 42 246 51 183 42 215 l 42 253 b 163 568 43 382 97 478 b 332 689 188 603 293 681 l 346 689 b 401 693 363 692 385 693 b 631 669 475 693 542 669 l 644 669 b 653 671 647 669 650 671 l 661 671 b 771 614 669 671 754 640 l 771 597 b 763 585 765 590 763 585 b 769 558 763 579 765 567 l 769 540 b 749 408 754 500 749 456 b 767 125 749 319 767 219 l 767 115 b 781 -29 767 51 781 14 b 783 -175 781 -76 783 -125 b 768 -333 783 -224 786 -286 l 753 -364 l 739 -378 b 643 -447 711 -406 665 -447 l 642 -447 b 604 -426 613 -447 604 -439 l 604 -376 m 207 383 b 211 301 208 364 211 307 l 215 282 b 251 217 239 232 232 244 l 267 194 b 339 124 275 181 300 143 l 353 117 l 351 118 l 363 114 b 393 110 369 111 381 110 b 574 182 453 110 556 143 b 588 350 583 253 586 307 b 586 386 588 361 586 375 l 588 431 b 581 493 589 471 579 469 l 582 533 b 374 593 549 585 486 593 b 208 403 301 593 208 478 l 207 383 "},"d":{"ha":908,"x_min":0,"x_max":0,"o":"m 42 250 b 76 401 47 307 76 364 b 218 554 85 440 193 538 b 286 597 229 557 281 597 l 325 625 b 426 668 351 643 413 668 l 469 692 b 482 715 478 697 482 710 b 481 726 482 719 481 726 l 460 754 b 426 790 456 763 432 785 b 239 943 350 867 281 918 l 158 978 l 150 986 l 150 992 l 178 1007 b 211 1021 182 1007 207 1021 l 267 1050 b 314 1058 275 1058 289 1058 b 535 957 371 1058 432 1060 l 571 929 b 663 828 579 914 649 844 l 731 740 l 764 706 l 785 674 b 813 646 788 672 810 650 l 832 618 b 867 458 865 556 867 510 b 860 401 867 435 867 426 l 844 350 l 818 308 b 704 194 818 294 722 194 l 643 136 l 622 122 b 535 65 619 124 532 63 b 447 19 525 51 496 39 l 426 14 b 368 0 411 14 381 0 l 339 0 b 218 19 297 0 257 19 l 197 28 b 122 72 196 29 129 72 l 64 172 b 42 231 57 181 46 218 l 42 250 m 204 317 b 231 236 204 301 231 246 l 278 181 l 313 156 l 379 122 b 447 108 383 122 429 110 l 454 108 b 610 172 517 114 576 138 b 631 208 611 176 626 206 l 657 250 l 699 338 l 699 400 b 657 560 699 482 690 489 b 597 618 643 574 619 592 l 571 640 b 542 654 564 642 544 653 l 528 654 l 508 640 b 400 589 469 618 463 642 l 379 574 b 299 532 353 554 336 556 b 272 482 279 519 286 494 b 204 382 249 460 204 425 l 204 317 "},"c":{"ha":738,"x_min":0,"x_max":0,"o":"m 42 383 b 63 440 42 386 58 425 l 85 475 b 163 581 100 518 140 560 l 183 594 b 232 638 189 599 226 635 b 324 686 242 643 315 681 l 331 693 l 367 708 b 411 707 371 708 394 707 b 471 729 433 707 451 724 l 528 729 b 549 721 531 729 546 724 l 592 693 l 647 651 b 696 601 663 640 692 599 l 696 581 b 585 517 696 571 642 517 b 563 518 579 517 563 518 l 535 525 b 493 551 531 526 497 550 l 479 560 b 429 589 460 567 450 583 l 408 601 b 350 624 397 613 379 624 b 260 581 329 624 278 599 l 239 539 l 239 525 b 232 511 239 524 232 513 b 225 433 229 483 225 460 b 233 393 225 414 233 400 b 232 379 233 389 232 382 b 239 335 232 369 239 344 l 246 306 b 288 236 246 303 279 256 b 388 146 293 231 351 146 l 408 131 b 471 117 421 122 453 126 b 493 103 474 117 490 104 b 650 86 521 89 585 86 b 436 -3 650 58 531 -3 b 211 60 319 -3 293 31 l 176 75 b 154 82 171 76 156 82 b 140 81 154 82 146 81 b 106 146 125 81 106 121 l 78 181 l 57 229 b 42 278 51 235 42 267 l 42 383 "},"x":{"ha":1021,"x_min":0,"x_max":0,"o":"m 50 68 b 107 135 50 78 56 103 b 246 251 114 135 204 188 l 274 286 b 347 381 292 296 347 364 b 150 619 343 393 267 564 l 129 642 l 129 649 b 188 685 138 669 164 663 b 346 729 226 713 271 729 b 510 525 392 686 468 525 b 557 556 521 525 532 533 l 615 606 b 811 693 657 635 747 693 b 913 642 872 693 890 660 l 942 590 l 942 561 b 832 489 904 518 858 489 b 753 526 799 506 754 524 b 724 564 739 532 746 564 b 650 526 717 564 664 532 b 557 439 636 518 586 490 l 557 424 l 564 417 b 717 192 590 358 643 256 b 979 93 843 93 915 93 b 971 76 979 93 974 81 l 956 61 l 913 32 b 711 4 857 8 775 10 l 710 4 b 667 18 707 4 676 14 b 413 279 611 18 507 157 b 397 286 411 279 400 285 l 390 286 l 375 279 l 340 251 b 325 243 338 250 325 243 l 281 199 b 244 139 267 185 244 147 b 283 53 244 114 283 81 b 150 -4 283 39 282 8 l 129 -4 l 100 4 b 42 18 81 4 46 10 l 42 26 "},"i":{"ha":360,"x_min":0,"x_max":0,"o":"m 78 54 b 94 174 78 119 82 157 l 94 181 b 92 243 93 188 93 236 b 93 308 93 275 93 279 l 93 560 b 42 644 93 596 88 633 b 69 675 50 657 51 669 b 236 732 83 688 153 732 l 246 732 l 265 722 b 283 574 278 710 283 663 l 283 554 b 269 486 283 536 281 513 b 260 467 269 485 260 469 b 271 411 260 461 271 418 b 260 176 271 340 260 263 b 264 156 260 172 264 158 b 318 64 288 97 318 81 b 207 -3 318 14 240 10 b 185 0 201 -3 190 0 b 107 39 176 1 107 24 l 78 54 "},"f":{"ha":743,"x_min":0,"x_max":0,"o":"m 628 151 b 701 85 683 138 701 144 b 675 1 701 43 694 15 b 393 -7 581 1 483 -7 l 379 -7 b 321 -40 360 -11 321 -3 l 317 -49 b 315 -86 317 -54 315 -79 b 322 -137 315 -124 322 -126 l 322 -158 b 331 -187 322 -161 331 -185 l 331 -196 b 322 -254 331 -203 322 -249 l 322 -306 b 317 -319 322 -307 317 -319 b 264 -408 306 -361 307 -378 l 221 -431 b 213 -432 221 -431 217 -432 b 178 -342 213 -432 178 -394 l 169 -290 b 163 -196 169 -282 163 -215 l 163 -182 b 158 -36 163 -126 158 -103 l 158 6 b 167 185 158 36 160 90 l 163 457 b 118 561 161 518 118 533 b 119 589 118 568 119 581 b 43 618 119 611 63 593 l 42 626 l 44 632 b 58 661 44 642 57 660 l 82 676 b 118 690 94 676 108 690 b 183 697 124 692 178 696 l 229 714 l 251 714 b 300 690 278 714 275 710 l 346 656 b 363 646 346 647 354 646 b 469 676 374 646 414 657 b 557 690 486 676 529 690 l 588 690 b 697 604 632 690 697 611 b 682 558 697 594 686 564 l 618 493 b 588 486 608 489 599 486 b 442 561 532 486 497 533 b 374 556 419 561 396 556 b 344 560 364 556 354 557 b 331 418 344 515 331 472 b 332 406 331 414 332 410 b 331 385 332 394 331 388 b 332 325 331 378 332 351 b 319 179 332 251 319 233 b 322 163 319 172 321 167 l 360 139 l 382 135 b 433 149 394 140 415 143 l 442 149 b 463 151 449 151 454 151 b 494 149 472 151 483 150 b 628 151 538 149 582 151 "},"R":{"ha":910,"x_min":0,"x_max":0,"o":"m 371 478 b 393 475 379 476 389 475 b 585 604 458 475 526 535 b 588 615 586 607 588 614 l 588 622 b 582 657 588 624 588 653 l 551 697 l 551 696 b 515 736 544 704 531 722 l 494 749 l 451 788 b 346 832 439 789 410 803 b 271 844 332 832 308 844 l 264 835 b 251 799 254 822 251 808 l 251 774 b 258 671 257 747 258 692 l 258 561 l 253 458 b 256 433 254 453 256 444 l 258 433 l 258 321 b 239 167 258 285 239 218 l 239 157 b 204 -12 239 121 215 101 b 118 -92 193 -37 164 -92 b 50 -18 99 -92 50 -29 l 50 53 l 53 65 b 65 215 53 89 53 176 l 65 222 b 71 308 65 265 67 289 b 76 501 75 486 76 494 l 76 517 b 57 768 76 592 76 656 l 57 775 b 56 782 57 778 56 779 l 56 788 b 54 796 56 793 56 794 l 44 822 l 32 835 b 3 839 31 836 28 839 b 38 942 3 879 17 926 l 51 956 b 147 974 90 956 90 974 b 207 935 172 974 183 968 b 326 989 222 950 285 989 l 339 989 b 449 975 372 976 418 988 l 488 968 b 581 921 490 964 551 940 l 579 921 l 628 886 l 717 804 b 750 713 750 749 750 735 b 607 451 750 611 722 496 b 576 433 596 443 582 439 l 578 433 l 558 417 l 554 417 b 563 406 557 415 560 413 l 614 356 b 717 238 656 315 701 265 l 717 240 b 749 208 726 232 744 210 l 765 186 b 868 107 801 138 868 163 b 786 24 868 69 818 43 l 763 10 b 739 6 754 10 749 8 l 678 -1 l 643 6 b 578 86 585 35 578 54 l 569 101 l 569 100 l 550 121 b 525 158 544 132 535 146 l 526 158 l 510 179 b 465 233 494 199 476 211 l 465 232 l 450 249 b 421 276 439 257 426 268 l 422 276 b 411 283 418 281 414 283 l 365 325 l 365 324 b 286 364 349 338 286 364 l 286 411 b 361 478 286 411 297 463 "},"z":{"ha":890,"x_min":0,"x_max":0,"o":"m 636 28 b 539 39 606 35 569 39 b 372 10 485 39 425 29 l 326 0 l 304 1 b 233 31 293 19 264 3 l 233 44 b 256 96 233 47 240 83 l 276 144 b 281 154 276 146 278 151 l 281 156 b 288 178 283 164 288 174 l 326 282 l 346 321 l 344 319 b 374 389 350 339 361 368 l 431 504 l 429 503 b 449 549 431 517 442 542 l 471 599 l 469 599 l 476 608 b 375 621 439 621 397 621 l 307 622 l 278 617 b 264 592 274 607 268 600 l 246 575 l 246 576 b 176 553 243 574 193 553 b 42 665 160 553 42 568 b 72 713 57 701 64 707 l 97 726 l 129 729 b 142 735 129 729 135 732 l 140 733 b 179 744 150 738 164 744 l 189 744 b 264 724 196 744 232 728 l 283 724 b 338 718 303 721 328 718 l 515 718 l 532 722 l 617 722 l 647 718 b 744 722 675 718 735 721 b 788 694 768 706 788 731 l 788 681 l 749 631 b 725 625 744 629 735 625 b 689 629 713 625 693 629 l 656 596 b 642 583 649 590 642 585 l 618 528 l 611 499 b 524 311 586 433 567 393 b 503 276 519 307 503 281 l 493 254 b 486 238 490 247 486 238 l 471 207 l 471 208 b 457 161 465 203 457 185 b 460 153 457 160 457 156 l 464 153 b 594 157 499 153 547 157 l 656 160 b 686 158 665 160 676 158 l 785 151 b 821 140 792 151 813 144 l 819 140 l 832 133 l 849 107 b 771 -31 849 -4 817 29 b 682 -87 724 -57 708 -87 b 631 -85 676 -87 653 -87 b 640 -43 631 -57 638 -47 l 651 4 "},"b":{"ha":708,"x_min":0,"x_max":0,"o":"m 403 3 b 219 -12 336 -10 251 -12 l 179 -12 b 106 10 164 -12 108 1 l 88 24 l 88 33 b 125 81 88 47 111 44 b 117 489 125 228 117 367 b 100 585 117 504 100 568 b 43 658 94 604 43 635 l 42 668 b 176 735 42 669 144 735 b 249 708 196 735 229 708 b 261 710 250 708 256 710 l 313 725 b 333 732 321 728 331 732 l 425 742 b 443 740 428 742 438 740 l 450 740 b 617 588 513 740 617 675 l 617 564 b 618 543 617 560 618 554 b 593 486 618 529 608 507 l 549 449 b 515 415 532 435 515 429 l 522 411 b 667 199 571 382 640 400 l 661 143 b 663 129 661 136 663 131 b 614 56 663 128 618 63 l 599 42 l 599 43 b 546 0 572 19 554 1 l 508 -12 b 464 -24 497 -18 485 -24 b 424 -7 436 -24 429 -15 l 413 3 m 267 513 b 264 490 264 510 264 499 b 301 390 264 444 283 411 l 304 390 b 463 488 335 414 463 410 b 458 506 463 494 460 501 l 457 515 b 393 581 449 531 435 550 b 307 636 371 588 318 633 l 301 636 b 281 610 296 636 281 633 l 269 517 m 279 249 b 290 193 285 238 288 215 b 319 113 297 142 294 143 l 335 107 b 351 101 340 103 349 101 l 472 106 b 501 131 493 106 501 111 b 454 235 501 157 475 201 l 456 235 l 439 249 l 439 247 b 347 292 407 272 388 279 l 349 292 b 322 300 321 299 335 296 b 279 257 308 300 286 286 "},"H":{"ha":1047,"x_min":0,"x_max":0,"o":"m 831 310 b 807 390 828 342 815 371 l 803 400 l 804 399 l 783 438 b 681 550 776 451 735 503 l 682 550 b 629 589 661 564 636 583 b 481 649 613 610 513 640 l 413 649 l 408 646 b 349 608 392 646 360 613 b 324 536 331 589 324 551 l 324 511 b 319 504 321 508 319 504 b 324 481 319 500 321 483 l 324 447 b 310 313 324 422 310 404 b 314 265 310 297 314 301 b 310 200 314 242 310 225 b 314 147 310 183 310 168 b 308 144 311 144 308 146 l 313 135 b 314 132 313 133 313 133 l 347 115 l 347 78 b 318 35 347 53 332 40 l 304 19 l 288 17 b 249 1 279 8 268 1 l 215 1 b 153 111 164 29 153 65 b 161 192 153 151 161 169 l 161 215 b 163 242 161 221 161 235 b 160 310 163 258 160 269 b 174 518 160 418 174 324 b 167 708 174 579 167 646 b 169 775 167 731 168 756 l 169 788 b 171 796 169 790 171 793 l 171 801 b 160 935 171 828 171 896 l 160 954 b 156 975 157 961 156 967 l 156 981 b 157 988 156 982 157 985 b 138 1042 157 997 154 1013 l 139 1051 b 132 1057 139 1051 138 1051 l 42 1128 b 74 1178 42 1182 61 1165 l 136 1210 b 190 1224 150 1215 168 1224 b 221 1215 190 1222 214 1217 l 253 1201 l 279 1175 l 304 1131 b 314 1111 308 1125 314 1117 l 319 1097 l 319 1076 b 338 888 328 1046 338 985 l 338 876 b 332 850 338 867 336 857 l 333 736 l 346 742 l 346 740 b 450 778 382 757 429 775 l 457 778 b 521 790 467 782 499 790 b 710 749 579 790 649 774 l 775 706 l 774 706 b 922 557 826 683 882 606 l 947 526 l 946 526 b 1006 367 957 517 1006 421 b 986 264 997 288 996 274 l 986 260 b 860 82 964 194 890 114 b 710 -3 817 38 779 -3 b 657 42 694 -3 657 13 b 718 111 657 72 685 88 l 757 139 l 757 138 l 772 153 b 793 176 778 163 793 176 l 814 215 l 821 261 b 825 269 821 264 822 267 l 831 310 "},"A":{"ha":1169,"x_min":0,"x_max":0,"o":"m 151 -33 b 188 57 172 -11 188 6 b 185 92 188 61 185 82 l 181 104 b 168 143 179 107 168 136 l 168 144 b 114 169 161 144 138 169 l 99 169 b 65 168 97 169 82 168 b 42 169 57 168 49 168 b 78 207 42 190 61 199 l 92 214 b 97 218 94 214 94 215 b 256 267 122 231 235 246 b 350 324 306 279 339 283 l 393 394 l 392 393 b 421 457 401 419 400 403 b 453 557 422 465 453 544 l 453 558 b 485 631 458 581 479 607 l 532 729 l 531 729 l 536 746 b 540 758 540 754 540 756 b 539 771 540 761 539 768 b 547 801 539 771 543 790 l 547 803 b 540 822 544 807 542 817 l 517 856 b 503 872 513 858 507 865 l 494 881 b 486 890 492 882 490 886 l 475 899 b 449 908 469 899 449 908 l 440 908 b 392 899 431 908 410 899 l 307 899 b 275 904 307 901 288 904 l 263 915 l 263 926 b 283 944 265 931 278 942 l 292 949 l 338 949 b 393 943 354 949 369 943 l 400 943 b 414 947 403 943 410 946 l 413 946 b 421 949 418 949 418 949 b 475 963 460 949 467 954 b 565 971 479 967 483 971 l 581 971 b 610 976 590 971 607 975 b 661 1008 608 979 643 990 l 669 1010 b 706 968 690 1010 674 968 l 707 951 b 725 896 707 942 725 907 l 736 875 l 750 826 b 801 715 760 824 782 769 b 982 285 869 529 890 513 b 985 278 982 282 983 279 l 985 281 b 992 253 990 271 992 263 b 1008 203 992 233 1008 221 l 1063 121 b 1068 106 1063 119 1065 108 l 1074 97 b 1088 71 1078 89 1085 81 b 1085 72 1088 71 1086 72 l 1085 71 b 1101 56 1085 63 1088 56 l 1113 50 b 1128 36 1119 46 1128 39 b 1119 22 1128 35 1125 31 l 1104 15 b 1032 7 1068 15 1050 11 l 1033 7 b 944 -12 1018 1 953 3 l 932 -19 b 878 -79 914 -37 888 -79 b 864 -74 874 -79 869 -78 b 867 -61 864 -69 864 -64 l 867 -35 b 869 -8 867 -29 869 -14 l 869 1 b 831 153 864 53 863 69 l 819 182 b 776 290 814 190 796 257 l 754 356 b 746 388 750 364 747 381 l 739 406 l 722 421 l 724 421 b 715 426 721 422 718 424 b 697 394 713 410 706 403 l 682 375 b 646 311 679 347 646 326 b 647 289 646 306 647 296 l 642 257 b 632 224 642 243 632 224 l 632 225 l 624 213 b 613 199 622 206 617 203 b 614 193 614 199 614 196 l 599 193 b 565 296 581 193 574 269 l 560 303 b 550 313 558 304 553 308 l 542 324 l 543 324 l 506 357 l 506 356 l 461 382 b 447 388 458 382 450 386 l 436 388 b 421 360 435 386 422 381 b 381 276 421 360 381 308 l 372 260 b 360 225 365 246 360 235 l 349 208 b 243 15 343 183 317 97 l 206 -19 l 142 -86 b 140 -65 142 -67 140 -65 l 140 -43 m 646 386 b 669 410 650 389 660 399 l 708 443 b 721 460 711 447 721 451 l 721 468 b 585 732 708 494 610 732 b 560 685 581 732 564 732 l 542 664 l 538 650 l 519 621 l 499 564 l 494 532 b 479 492 494 524 479 501 l 479 485 b 526 440 485 479 489 456 l 539 433 l 615 360 l 617 361 b 618 364 617 363 617 363 l 646 386 "},"g":{"ha":756,"x_min":0,"x_max":0,"o":"m 513 -353 b 533 -197 513 -312 524 -236 l 546 -61 b 554 -24 549 -57 554 -29 l 558 -7 b 554 25 556 1 554 13 l 553 24 b 554 26 554 25 554 25 b 542 25 549 25 544 25 b 531 26 538 25 533 25 b 486 7 519 18 503 7 l 444 -1 l 376 -1 l 342 13 l 203 92 l 167 128 b 42 368 86 151 42 310 l 42 375 b 82 481 42 433 69 438 l 206 607 l 218 617 b 263 650 229 629 250 647 l 293 664 b 407 704 329 668 343 701 b 417 707 408 704 413 706 l 461 724 b 490 731 469 725 486 731 l 506 731 b 579 686 533 726 556 707 l 621 649 b 660 613 631 639 639 629 l 679 583 l 679 585 b 714 550 683 579 708 553 l 714 521 b 619 463 714 501 669 475 l 531 471 l 501 492 l 406 582 l 406 581 l 397 586 b 354 593 390 589 378 593 l 340 593 b 236 492 301 571 282 561 b 231 458 236 482 231 463 l 231 449 b 261 354 231 404 243 381 l 293 306 b 297 299 294 304 296 299 l 317 265 l 329 254 b 415 178 357 213 389 192 l 464 153 b 515 126 476 151 506 126 l 528 126 b 565 133 540 128 563 131 l 574 142 b 599 163 581 149 593 160 l 610 168 b 671 193 626 176 654 193 l 688 193 b 714 161 692 189 713 165 l 714 96 b 707 78 714 90 711 85 b 696 -49 697 8 696 -26 l 696 -75 b 690 -125 696 -90 694 -117 l 671 -226 b 656 -261 664 -229 665 -250 l 643 -285 l 644 -283 l 631 -308 l 632 -307 b 563 -383 629 -321 603 -383 l 536 -383 b 513 -353 519 -383 513 -368 "},"æ":{"ha":1132,"x_min":0,"x_max":0,"o":"m 42 119 b 188 296 42 208 101 268 b 197 301 190 299 193 301 b 218 283 201 301 211 296 l 182 249 b 175 239 181 247 175 239 l 175 172 b 238 144 175 161 203 144 b 310 192 269 144 289 167 l 350 247 l 349 246 b 354 260 350 250 354 260 b 339 317 351 274 340 317 l 325 353 b 311 410 325 364 311 410 l 297 458 b 269 539 288 483 279 514 b 213 625 269 540 249 597 l 196 644 b 144 682 174 657 161 657 l 144 696 b 267 746 211 744 204 717 l 276 746 b 410 610 354 728 378 674 l 438 554 l 443 533 l 465 557 b 501 603 482 575 494 597 l 501 601 b 551 639 510 615 517 625 l 550 638 l 631 679 b 710 710 660 690 693 710 l 783 710 b 808 700 785 710 801 703 l 807 701 l 840 688 b 915 646 874 674 888 672 l 947 632 b 964 614 949 631 963 617 l 978 588 b 1000 564 979 585 989 574 l 1024 539 l 1067 468 l 1079 433 l 1078 435 b 1090 404 1081 428 1090 413 b 1067 378 1090 404 1072 383 l 1051 371 l 1011 365 b 999 358 1008 364 1000 358 l 968 351 b 776 335 907 351 838 335 b 743 336 765 335 753 336 l 732 336 b 632 332 703 335 638 332 l 571 313 l 572 314 b 565 307 569 313 568 308 l 567 307 b 556 281 560 300 556 296 b 657 136 556 235 582 189 l 718 100 l 717 101 b 786 93 736 94 761 93 b 842 94 806 93 825 94 b 929 126 864 94 903 121 l 968 131 b 978 117 971 128 978 121 l 978 108 b 946 46 975 100 950 56 l 919 15 b 906 13 919 15 911 14 l 907 13 b 746 -26 846 -8 815 -26 b 610 -14 711 -26 668 -22 l 593 -7 b 582 0 588 -4 582 -1 l 549 8 l 513 32 b 497 39 507 32 500 36 l 478 51 l 436 86 b 421 119 428 99 421 113 l 422 118 l 414 133 b 381 156 406 147 397 156 l 363 156 b 332 126 357 156 342 142 l 292 85 b 206 22 257 49 238 29 l 167 8 l 133 8 l 69 67 l 71 67 l 67 72 b 42 119 50 89 42 96 m 517 472 b 536 429 517 469 519 429 l 557 429 b 676 432 568 429 631 432 b 793 431 714 432 753 431 b 894 442 797 431 894 428 b 893 447 894 443 893 443 l 879 463 l 868 469 b 857 475 864 472 858 475 l 758 550 l 740 557 l 671 600 l 646 606 b 625 608 642 606 628 608 b 586 597 601 608 594 603 l 572 592 b 546 554 568 578 554 554 l 540 539 b 533 526 539 538 533 528 l 518 486 l 518 488 b 517 472 518 488 517 475 "},"y":{"ha":1094,"x_min":0,"x_max":0,"o":"m 617 -360 b 622 -314 617 -349 621 -322 b 619 -271 622 -308 619 -282 b 650 -167 619 -251 629 -235 l 650 -160 b 668 -43 663 -125 668 -94 l 668 -21 b 644 26 664 -10 649 19 b 456 119 599 61 501 76 l 393 179 b 360 221 389 183 371 204 l 360 219 b 347 238 353 225 347 238 l 325 283 b 289 331 322 286 300 313 l 290 331 b 267 356 290 335 271 349 l 269 351 b 89 553 143 494 172 496 b 42 589 81 568 42 561 b 144 664 42 606 61 643 l 143 663 l 182 679 b 214 694 185 681 208 694 l 239 694 b 333 611 301 674 331 654 l 340 600 b 503 351 401 514 435 460 l 501 353 l 531 299 b 571 268 540 289 561 268 l 621 238 b 692 206 619 240 658 208 l 721 203 b 735 221 724 204 733 213 l 786 393 b 808 490 789 393 808 449 b 807 506 808 490 808 499 l 807 518 b 801 529 806 519 801 526 b 794 536 796 532 794 536 b 707 600 772 538 707 550 b 879 665 707 625 729 654 l 957 700 b 1018 714 982 711 1004 713 b 1051 686 1042 714 1051 703 b 989 589 1051 658 1026 622 l 961 564 l 961 565 b 956 546 958 563 956 550 l 956 522 b 867 192 956 447 957 410 b 808 -12 867 185 851 88 l 808 -11 l 775 -164 l 746 -261 b 701 -314 724 -292 729 -286 l 692 -325 b 646 -378 679 -347 661 -378 b 617 -367 640 -378 619 -369 "},"j":{"ha":361,"x_min":0,"x_max":0,"o":"m 133 -214 b 142 -65 140 -150 142 -103 b 101 406 142 89 101 72 l 101 472 b 97 518 101 492 97 500 b 101 556 97 528 99 539 b 81 625 101 582 81 619 b 82 639 81 631 82 638 b 42 683 82 639 42 679 l 42 686 b 78 714 50 706 53 714 l 107 714 b 174 717 125 714 172 717 b 306 742 197 722 250 725 l 313 742 b 319 735 313 742 319 739 l 319 733 b 283 719 317 733 283 725 l 283 711 b 278 693 283 708 278 693 l 278 636 b 299 -200 278 340 299 72 l 299 -226 b 81 -451 299 -285 218 -451 b 78 -450 79 -451 78 -451 b 94 -415 78 -442 94 -417 l 94 -408 l 101 -401 l 101 -383 b 124 -321 101 -382 124 -350 b 133 -214 124 -244 133 -226 "},"k":{"ha":847,"x_min":0,"x_max":0,"o":"m 303 283 b 264 318 283 307 271 318 b 253 294 258 318 256 310 b 313 86 253 140 313 117 b 203 -3 313 19 236 14 b 86 193 103 -3 86 101 b 90 322 86 236 90 281 b 97 519 96 506 94 507 b 90 592 92 542 90 567 b 93 699 90 626 93 664 b 42 854 93 760 85 818 b 68 894 50 871 51 888 b 232 971 83 911 151 971 l 242 971 l 260 957 b 278 760 274 940 278 879 l 278 733 b 254 564 278 694 254 651 b 271 471 254 493 261 471 b 328 525 285 471 306 508 b 383 571 338 532 358 549 l 442 622 b 638 713 489 653 575 713 b 749 615 718 713 749 665 b 657 500 749 560 710 500 b 579 542 633 500 606 513 b 550 581 565 547 572 581 b 476 542 543 581 490 547 b 383 451 461 532 414 504 l 383 436 b 543 197 422 374 461 263 l 593 151 b 806 96 669 96 742 96 b 797 79 806 96 800 83 l 782 63 l 739 33 b 674 17 726 28 697 17 b 649 18 668 17 664 18 b 604 14 629 18 621 14 b 589 15 599 14 593 14 b 310 274 440 57 389 132 l 303 283 "},"w":{"ha":1297,"x_min":0,"x_max":0,"o":"m 42 438 l 44 471 b 53 517 51 486 53 501 b 97 624 53 572 75 581 l 103 642 b 136 667 106 646 133 665 b 167 701 140 682 157 693 l 193 710 b 267 735 215 722 238 735 l 293 743 l 381 718 b 426 683 388 701 410 696 l 471 624 b 457 625 468 625 461 625 b 392 607 435 625 404 625 l 371 599 l 333 574 b 235 360 276 535 235 444 b 397 72 235 222 315 72 b 549 250 446 72 499 143 l 561 276 b 567 349 565 299 567 319 b 564 446 567 374 565 404 l 560 489 l 560 531 b 628 708 576 563 554 708 b 722 529 711 708 722 608 b 721 458 722 501 721 476 b 747 224 721 290 731 236 b 865 113 797 149 818 113 b 922 131 890 113 894 113 b 1039 267 986 190 1038 264 l 1056 310 l 1058 344 b 1068 392 1063 358 1068 385 b 1064 413 1068 400 1065 411 l 1074 471 l 1074 531 l 1068 599 b 1022 683 1067 618 1024 671 l 1019 701 b 1094 667 1031 686 1068 693 b 1164 615 1121 654 1138 640 l 1186 582 b 1256 410 1242 499 1251 433 l 1256 397 b 1243 326 1256 365 1243 354 l 1246 301 b 1157 88 1246 238 1197 142 l 1118 54 b 956 -24 1063 -22 990 -24 b 843 38 915 -24 917 -18 l 818 54 b 771 106 813 61 779 99 b 765 104 771 104 767 104 b 736 131 751 104 753 131 b 485 -3 668 44 636 -3 b 447 0 472 -3 460 -3 l 422 3 b 46 404 376 8 63 79 "},"v":{"ha":826,"x_min":0,"x_max":0,"o":"m 289 78 b 72 306 215 169 132 206 b 42 447 51 350 57 400 l 44 479 l 42 522 l 47 567 b 68 669 54 575 58 631 l 68 679 l 57 704 l 56 714 l 65 732 b 118 753 68 747 93 753 b 164 743 142 753 164 749 b 161 740 164 742 164 742 b 236 706 189 729 236 721 b 246 626 236 644 246 642 b 235 582 242 614 235 594 l 235 547 b 215 486 228 528 215 517 l 215 479 b 218 318 215 350 217 335 l 219 296 b 238 265 224 275 231 268 b 343 138 242 249 307 138 b 403 156 368 138 372 138 b 540 296 476 219 539 290 l 563 340 l 567 375 b 581 425 569 390 581 422 b 579 444 581 432 579 443 l 593 504 l 597 567 l 596 636 b 556 722 596 656 557 708 l 556 740 b 629 704 567 724 607 733 b 700 653 660 692 675 678 l 722 618 b 783 438 779 529 782 461 l 783 422 b 763 363 785 400 761 390 l 764 332 b 749 288 764 321 749 297 l 749 285 b 747 282 749 283 747 283 l 749 281 b 650 113 738 239 704 144 l 608 78 b 426 -1 543 0 464 -1 l 422 -1 b 311 61 383 -1 383 7 l 289 78 "}," ":{"ha":644,"x_min":0,"x_max":0,"o":""},"Q":{"ha":1028,"x_min":0,"x_max":0,"o":"m 694 4 l 710 13 l 783 67 b 826 121 799 82 826 110 b 822 203 824 133 822 192 b 828 269 822 211 826 265 b 832 376 828 289 829 360 b 829 399 832 378 829 393 l 829 419 l 817 517 b 775 626 810 538 799 594 l 760 679 b 749 694 757 681 750 690 l 736 715 b 704 751 731 718 707 749 b 478 946 704 751 643 851 b 386 1000 424 946 386 989 b 497 1042 386 1008 431 1026 l 506 1042 b 639 1032 578 1042 615 1032 b 707 999 651 1025 701 1010 b 815 919 722 988 815 933 l 832 899 b 926 738 874 847 913 797 b 953 686 928 738 944 692 l 979 597 l 979 571 b 981 539 979 563 981 540 b 975 493 981 535 978 504 b 949 374 974 485 971 389 b 939 275 944 347 949 307 l 925 232 b 900 139 925 207 911 150 l 892 139 b 869 146 890 140 871 144 b 854 113 857 146 854 129 b 935 29 854 68 878 56 l 957 15 b 1047 -35 1001 -12 1035 -24 b 1150 -104 1067 -35 1131 -94 b 1210 -156 1157 -111 1196 -136 b 1379 -274 1247 -168 1353 -274 b 1488 -343 1379 -281 1440 -331 b 1646 -407 1522 -369 1551 -378 b 1700 -425 1674 -407 1692 -425 l 1700 -447 b 1443 -504 1700 -464 1665 -504 l 1389 -490 b 1343 -471 1383 -489 1351 -474 l 1282 -435 b 1189 -372 1231 -410 1231 -386 l 1142 -329 b 943 -179 1142 -315 986 -201 b 850 -115 942 -179 874 -139 b 694 -3 824 -96 694 -46 m 44 564 b 42 628 43 581 42 625 b 168 810 42 624 89 810 b 188 560 175 717 179 628 b 269 375 188 492 229 432 b 354 289 288 349 336 326 b 450 182 396 257 436 182 l 451 182 b 496 146 454 178 492 147 b 511 131 497 144 510 131 l 579 110 b 618 96 583 110 615 97 b 708 79 675 96 708 88 b 464 8 708 38 569 8 b 442 17 464 8 449 13 l 404 29 b 319 93 354 54 332 69 l 272 144 b 83 375 144 272 93 318 l 75 390 b 57 454 75 393 64 447 b 44 564 46 504 44 506 "},"O":{"ha":1042,"x_min":0,"x_max":0,"o":"m 411 8 b 318 36 385 8 356 36 l 257 86 b 206 135 242 99 218 119 l 179 169 l 182 168 l 169 178 b 125 257 164 182 128 236 b 76 351 121 257 81 321 l 63 388 b 42 488 63 393 42 415 l 42 536 b 83 661 42 558 54 632 l 83 663 b 136 765 83 663 118 754 l 189 825 b 275 872 203 825 243 858 l 275 871 b 338 915 299 882 321 892 l 350 933 l 436 967 b 571 985 457 975 508 981 b 638 968 588 985 629 975 l 692 950 b 696 949 693 949 694 949 l 738 933 l 761 913 l 781 901 l 779 901 b 783 900 781 900 782 900 l 847 856 l 889 814 l 897 801 b 986 626 944 768 986 639 b 997 558 986 607 994 565 l 1000 510 b 972 374 1001 479 971 399 b 925 243 972 369 957 267 l 908 231 l 889 208 b 818 147 858 174 831 153 l 800 129 b 707 64 761 90 732 93 l 665 44 b 633 35 657 40 643 36 l 619 31 b 615 25 618 31 615 28 l 525 7 l 526 7 b 478 0 513 3 499 0 b 432 6 454 0 442 3 l 433 6 b 411 8 426 7 419 8 m 279 335 b 288 308 286 326 288 318 b 365 207 340 238 349 211 l 393 183 l 392 183 l 453 147 b 533 136 471 136 510 143 b 551 139 538 138 546 139 l 589 139 b 653 154 608 139 619 150 l 668 158 l 667 157 b 713 178 700 178 699 168 l 753 210 b 789 254 781 236 789 243 l 808 293 b 817 342 808 301 813 325 l 836 444 l 831 457 b 825 485 828 465 825 474 l 825 496 b 819 525 822 504 819 517 l 821 574 b 810 603 821 593 810 586 l 804 614 b 786 650 799 618 794 633 b 742 708 778 667 750 692 l 699 751 b 574 831 664 769 618 818 l 575 831 l 550 839 b 483 851 526 839 503 851 l 471 851 b 411 836 449 851 432 842 l 413 838 b 379 821 397 829 385 822 l 369 821 l 349 810 b 321 794 343 806 329 797 b 200 608 242 746 203 675 l 200 544 b 258 374 200 481 244 432 l 279 335 "},"-":{"ha":1188,"x_min":0,"x_max":0,"o":"m 1043 464 b 871 408 983 464 928 414 l 818 393 b 775 385 808 386 790 385 l 706 385 b 658 393 701 385 663 392 b 638 392 657 393 646 392 b 617 401 631 392 621 393 b 561 400 608 400 585 400 b 444 408 504 400 486 400 l 350 393 b 238 361 301 381 272 378 l 196 322 l 185 283 b 179 243 183 279 179 247 l 167 228 b 149 219 164 225 151 219 l 72 219 l 54 243 l 42 268 l 42 283 l 54 314 b 65 338 57 321 65 338 l 143 393 l 185 408 b 208 417 190 411 207 417 b 242 415 211 417 228 415 b 303 432 251 415 281 425 b 356 438 319 435 336 433 l 357 439 b 397 456 358 442 388 453 l 457 471 b 492 479 465 474 490 479 l 533 479 b 599 488 540 479 593 488 l 724 488 b 783 471 735 488 767 479 l 831 464 b 896 456 840 461 885 456 b 1013 518 931 463 994 492 l 1014 518 b 1025 535 1014 519 1022 531 l 1061 565 b 1114 589 1063 567 1100 589 l 1132 589 b 1146 549 1142 583 1146 574 b 1103 488 1146 535 1133 488 l 1090 471 b 1063 463 1083 464 1079 463 b 1049 464 1058 463 1050 464 l 1043 464 "},"M":{"ha":1613,"x_min":0,"x_max":0,"o":"m 42 539 b 44 544 42 540 43 542 b 43 553 43 547 43 550 b 44 564 43 557 43 560 b 476 956 85 649 90 892 b 589 971 493 961 572 967 l 622 971 b 694 953 635 969 675 961 l 718 943 l 799 888 l 831 860 b 839 850 832 860 839 854 l 856 822 b 896 796 869 806 876 796 b 1057 888 911 796 1015 872 l 1121 897 l 1201 897 b 1282 850 1228 890 1256 881 l 1339 797 b 1378 760 1344 778 1374 760 l 1403 732 l 1418 722 b 1451 676 1429 717 1446 688 l 1467 631 l 1531 475 l 1539 447 l 1564 392 l 1564 365 l 1556 319 b 1571 292 1557 315 1571 294 b 1556 246 1571 286 1557 249 b 1547 199 1556 242 1550 204 b 1492 81 1543 183 1500 85 l 1451 43 b 1374 -4 1418 11 1403 -4 b 1346 -3 1372 -4 1353 -3 l 1388 99 l 1388 126 b 1290 521 1388 249 1344 404 b 1289 528 1290 522 1289 525 b 1290 549 1289 536 1290 546 b 1282 567 1290 551 1285 564 l 1242 621 l 1208 639 l 1178 676 l 1088 760 l 1047 788 l 1017 788 l 975 778 b 886 658 961 778 886 700 l 886 586 b 896 521 886 579 896 526 l 896 447 b 879 419 894 442 882 424 b 869 278 871 361 869 314 b 871 199 869 240 871 214 l 871 171 b 879 143 871 168 876 149 l 896 117 b 936 57 896 83 936 83 b 935 43 936 56 936 44 l 886 15 b 831 -3 872 8 839 -3 b 743 25 806 -3 760 8 l 726 71 b 718 117 726 76 719 108 b 708 210 708 163 708 188 b 718 254 708 231 708 249 l 718 429 l 735 447 b 736 476 735 447 736 468 b 726 539 736 508 736 528 l 710 621 l 701 649 b 671 742 701 693 675 724 l 622 797 b 574 822 604 797 604 822 b 500 860 574 821 532 860 l 485 860 b 260 739 410 838 307 792 l 243 676 l 218 631 l 218 503 l 226 483 l 226 456 b 236 410 228 447 232 415 l 275 300 b 292 264 275 285 285 271 l 324 236 b 413 153 332 218 382 178 l 500 108 l 540 99 b 574 89 544 99 571 90 l 597 89 l 604 81 l 622 71 b 574 25 608 49 583 28 l 549 15 b 439 6 507 10 499 6 b 349 15 385 6 381 8 l 282 43 l 251 71 l 236 81 l 238 81 b 194 108 238 83 201 97 b 99 226 158 136 132 193 l 90 246 b 50 382 61 314 51 349 l 42 475 l 42 539 "},"s":{"ha":674,"x_min":0,"x_max":0,"o":"m 49 107 b 51 124 49 115 51 124 l 111 192 b 189 210 136 203 185 210 b 218 200 203 210 206 208 l 265 171 b 292 153 274 165 282 161 l 301 149 b 399 110 340 125 372 110 b 467 181 439 110 467 144 l 467 183 b 390 263 464 249 446 253 b 306 276 358 265 315 276 l 203 282 b 147 299 193 282 158 293 l 149 299 l 117 313 l 117 311 b 90 328 111 313 93 324 l 64 354 b 43 396 50 368 43 378 b 51 472 43 439 46 453 l 56 483 b 89 553 56 494 63 507 b 114 585 89 553 106 569 l 126 597 l 139 617 l 138 615 b 150 633 140 622 149 632 l 222 681 b 288 711 235 692 258 710 l 333 719 b 404 735 360 724 368 733 l 411 735 b 603 628 494 735 601 667 l 603 622 b 503 531 603 567 560 531 l 497 531 b 456 540 482 531 475 531 l 457 540 l 365 581 b 338 593 360 583 340 593 l 310 600 l 292 610 b 278 617 285 613 276 615 b 274 615 278 617 275 615 l 265 610 l 251 593 b 246 582 250 592 246 583 l 232 564 b 210 507 224 551 215 532 l 215 476 b 219 469 217 475 218 469 l 243 447 l 267 435 l 265 435 b 356 415 275 431 342 415 l 567 415 b 628 344 600 415 606 374 l 632 232 b 444 47 632 176 476 47 l 435 47 b 310 -3 383 4 356 1 l 258 -7 l 236 1 l 219 1 b 186 8 217 1 193 4 l 169 15 b 107 42 157 19 113 38 l 82 64 b 49 107 65 79 49 89 "},"K":{"ha":939,"x_min":0,"x_max":0,"o":"m 57 -157 b 93 49 69 -90 92 -28 l 96 97 l 96 222 b 81 564 96 363 89 444 l 65 783 b 43 1144 58 1010 67 1072 l 42 1144 b 3 1203 42 1144 3 1193 b 29 1238 3 1226 21 1238 l 60 1238 b 122 1240 75 1238 108 1239 l 132 1240 b 267 1272 163 1249 210 1254 b 269 1267 268 1269 269 1268 b 232 1244 269 1257 236 1254 b 228 1203 228 1229 228 1215 b 233 1129 228 1174 233 1150 b 213 865 233 1042 213 961 b 301 525 213 782 221 525 b 356 556 317 525 335 535 b 713 757 463 663 661 757 b 849 636 810 757 849 696 b 756 519 849 578 811 519 b 642 590 722 519 683 539 b 610 614 635 599 635 614 l 524 571 b 369 450 489 568 404 493 l 383 428 b 599 200 456 336 494 282 l 658 150 b 897 90 743 90 824 90 b 890 72 897 90 889 71 l 874 56 l 819 19 b 664 1 794 7 732 1 b 435 90 542 1 504 17 l 424 101 b 268 274 390 118 318 240 l 243 290 b 240 278 242 285 240 279 b 244 197 243 250 244 224 b 35 -201 244 58 196 -201 l 21 -201 b 57 -157 38 -190 57 -160 "},"L":{"ha":342,"x_min":0,"x_max":0,"o":"m 954 -593 b 274 -376 707 -581 503 -528 b 47 -211 217 -339 47 -293 b 85 -76 47 -178 85 -154 b 110 121 101 28 110 89 b 99 292 110 175 99 246 b 100 318 99 300 100 314 b 76 519 100 367 76 486 b 78 603 76 551 78 596 b 71 697 78 635 71 639 b 72 819 71 744 72 810 b 64 889 72 828 64 885 l 64 924 b 3 1140 64 1081 3 1122 b 115 1239 3 1160 39 1211 b 151 1249 117 1242 144 1246 l 193 1249 b 199 1256 194 1253 197 1256 b 253 886 225 1256 253 910 b 251 768 253 847 251 806 b 261 667 251 729 253 693 l 261 650 b 276 540 261 608 276 576 b 290 288 285 451 290 342 l 290 282 b 285 236 290 278 285 242 l 285 93 b 276 56 285 92 278 60 b 253 -76 265 -3 253 -43 l 253 -106 b 285 -140 253 -124 276 -125 l 290 -149 b 563 -354 357 -212 476 -271 b 886 -489 614 -406 819 -465 b 967 -496 913 -490 939 -496 b 1113 -462 1010 -496 1049 -469 b 1117 -460 1113 -461 1114 -460 b 1138 -464 1122 -460 1132 -464 b 1142 -462 1140 -464 1140 -464 l 1142 -471 b 1044 -551 1143 -468 1058 -543 b 988 -587 1033 -558 992 -583 "},"C":{"ha":996,"x_min":0,"x_max":0,"o":"m 746 200 b 799 276 768 217 785 246 l 803 283 b 886 363 828 326 849 363 b 954 301 897 363 954 343 b 947 278 954 293 950 283 l 919 228 l 896 199 l 824 125 b 775 83 801 103 790 93 l 722 51 b 525 -8 685 32 582 -8 b 458 -1 485 -8 468 -3 l 453 -1 b 314 40 453 0 372 10 l 293 49 b 261 65 286 50 269 60 l 246 81 b 189 125 219 88 190 121 l 189 129 l 150 168 l 126 206 b 100 251 117 221 107 236 l 100 250 l 83 274 l 65 340 l 65 339 l 54 363 b 42 463 46 388 42 433 l 42 490 b 44 506 42 493 43 501 b 42 515 43 508 42 513 l 42 561 b 74 679 50 615 56 625 b 75 686 74 682 75 685 l 92 704 b 103 722 93 708 99 718 l 101 722 l 131 765 b 314 893 178 811 261 864 l 318 894 b 390 929 346 911 378 917 l 532 971 l 571 971 l 578 968 l 594 968 b 613 964 599 967 608 964 l 624 964 b 642 958 625 963 638 958 l 665 953 l 754 918 l 781 896 l 806 869 l 824 831 b 851 783 850 810 851 793 l 851 781 b 822 731 851 771 847 744 l 807 715 b 793 714 804 715 797 714 l 789 714 b 774 701 785 708 779 704 l 765 699 b 718 707 746 699 729 704 l 704 714 l 644 772 l 632 779 b 603 797 619 792 611 789 l 592 806 l 594 803 b 500 825 579 808 532 819 b 476 824 494 824 481 824 b 261 718 390 804 296 743 l 263 718 l 226 688 l 226 689 b 203 568 222 685 203 692 b 319 271 203 446 235 368 l 340 244 b 354 231 347 243 350 238 l 378 207 b 406 190 388 197 406 204 l 410 188 l 408 189 b 456 168 426 179 451 168 l 524 151 b 553 146 535 149 544 146 l 569 142 l 589 142 b 699 165 622 142 681 147 l 731 192 l 746 200 "},"P":{"ha":865,"x_min":0,"x_max":0,"o":"m -144 -367 b -51 -335 -126 -349 -65 -342 b -11 -315 -47 -333 -19 -318 l 6 -303 b 43 -251 25 -283 29 -265 l 46 -246 b 58 -226 50 -246 54 -226 l 60 -212 b 67 -194 60 -207 67 -193 l 67 -187 b 79 -176 68 -186 79 -176 b 75 -156 79 -174 75 -158 l 75 -144 b 79 -132 75 -143 79 -133 l 79 -106 b 88 -76 79 -101 82 -93 l 88 -72 b 92 -42 88 -69 92 -44 l 92 -25 b 96 0 93 -24 96 -4 l 96 64 b 92 83 96 65 92 81 l 92 114 b 96 157 93 118 96 154 l 96 190 b 92 196 96 190 93 196 l 92 201 b 96 204 93 203 96 204 l 96 282 b 92 321 96 285 93 317 l 92 326 b 96 332 93 326 96 332 l 96 340 b 88 372 96 351 90 365 b 92 381 88 374 92 379 l 93 385 b 88 408 93 390 88 401 b 92 413 88 408 92 411 l 92 415 b 75 604 88 415 75 528 l 75 618 b 71 638 75 621 72 636 b 72 692 71 646 72 669 b 67 769 72 738 67 747 l 67 789 b 25 917 67 824 53 917 l -24 928 b -44 936 -31 928 -37 936 l -44 939 b 64 964 -42 942 -14 964 l 79 964 b 92 967 81 964 92 967 l 104 967 b 107 972 104 967 106 972 l 124 972 b 208 956 124 972 157 956 l 242 956 b 258 960 244 956 257 960 b 297 956 263 960 293 957 l 326 956 b 372 960 331 957 367 960 l 388 960 b 436 967 393 965 419 967 l 447 967 b 465 964 449 967 460 965 l 493 956 b 610 906 528 956 553 906 l 635 892 b 696 828 657 869 679 843 b 729 806 703 821 722 813 l 732 797 b 750 776 739 789 746 783 b 749 772 750 776 749 774 b 750 769 749 771 750 769 l 754 761 b 765 746 754 751 758 746 l 768 738 b 776 722 768 732 776 726 l 776 715 l 793 688 b 824 569 804 650 824 621 b 789 417 824 499 799 419 l 781 396 b 757 365 781 396 765 365 l 742 356 b 729 340 739 356 731 343 l 713 328 b 688 317 711 328 690 318 l 688 314 b 631 282 688 314 668 289 b 497 235 621 272 547 235 l 476 235 b 465 229 475 235 465 229 b 419 225 450 225 435 225 b 361 226 400 225 381 226 b 268 163 322 226 268 218 b 269 157 268 160 269 158 l 269 138 b 272 122 269 136 272 124 l 272 110 l 278 99 b 269 69 278 88 269 82 l 272 44 b 278 36 272 42 278 36 l 278 19 b 286 -33 278 6 281 -28 b 285 -44 286 -35 285 -40 b 293 -56 285 -51 293 -51 b 289 -64 293 -56 290 -64 l 289 -68 b 293 -76 290 -69 293 -76 l 307 -87 l 307 -96 b 392 -176 308 -96 392 -160 l 392 -179 b 358 -192 369 -190 385 -185 l 343 -185 b 293 -200 331 -197 331 -200 b 251 -192 271 -200 264 -192 l 233 -192 b 204 -187 231 -190 207 -187 l 200 -187 b 201 -189 200 -189 201 -189 b 172 -199 201 -193 178 -193 l 164 -207 b 156 -212 164 -207 157 -210 l 153 -218 l 132 -235 b 88 -279 132 -235 88 -250 l 54 -296 b -1 -331 49 -296 4 -331 b -122 -371 -68 -353 -67 -371 b -140 -369 -126 -371 -140 -369 l -144 -367 m 265 408 b 269 389 265 407 269 390 l 269 381 b 272 372 269 379 272 374 l 272 353 b 301 313 272 344 292 313 b 444 256 300 313 386 256 b 553 321 492 256 553 296 b 599 385 558 324 583 338 b 619 436 610 385 593 410 l 622 444 b 626 467 624 447 626 465 l 626 511 b 631 546 626 517 631 544 l 631 571 b 622 618 631 574 626 608 l 622 632 b 614 674 622 640 614 657 l 601 707 b 596 728 601 708 596 722 l 596 729 b 578 761 594 733 578 757 b 508 846 564 801 563 775 l 510 847 b 497 853 508 849 499 853 l 481 861 b 436 881 472 861 443 872 l 388 889 b 372 892 386 889 375 892 b 318 872 368 890 329 883 b 269 746 268 860 292 789 b 265 690 269 733 265 718 b 272 607 265 669 272 640 l 272 551 b 269 539 272 549 269 540 l 269 517 b 265 472 269 511 265 475 l 265 408 "},"S":{"ha":817,"x_min":0,"x_max":0,"o":"m 429 78 b 622 222 574 83 622 154 b 460 354 622 310 557 354 l 431 354 b 382 361 419 354 394 358 l 365 361 b 254 401 360 361 297 381 l 247 406 b 131 463 182 404 168 425 l 118 475 b 96 493 111 478 101 486 l 99 492 b 78 513 86 500 81 508 l 69 522 l 46 575 l 46 582 b 42 688 44 599 42 633 b 54 738 42 707 54 738 l 54 746 b 56 774 54 750 54 767 b 418 1024 104 919 243 1024 b 622 997 474 1024 610 997 l 633 997 b 642 996 635 997 636 996 l 671 996 b 703 1000 681 1000 697 1000 l 708 1003 l 728 1003 b 775 958 736 1003 775 1003 b 765 921 775 950 771 932 l 758 897 b 756 883 756 890 756 886 b 767 819 756 881 767 853 b 765 801 767 808 765 801 l 751 778 b 700 728 749 754 710 728 b 500 897 617 728 586 897 b 425 908 483 897 468 904 l 421 913 b 388 918 413 913 401 915 l 389 918 b 385 919 388 918 386 919 b 297 904 365 919 319 910 l 286 894 l 288 894 l 261 872 l 251 856 l 236 843 l 233 838 l 233 839 b 232 836 233 838 232 836 l 232 821 b 213 749 214 801 213 761 b 225 643 213 707 218 690 l 247 624 l 257 608 b 358 542 300 579 306 576 l 357 542 b 653 467 440 501 576 536 b 672 454 653 465 661 461 l 682 450 b 767 282 714 428 767 379 b 399 -26 767 61 578 -26 b 307 -19 367 -26 333 -24 b 289 -22 303 -21 296 -22 b 219 -8 247 -22 233 -17 l 217 -8 b 72 94 196 -6 121 18 l 46 142 l 46 161 b 69 199 46 172 63 192 l 86 208 l 94 208 b 165 219 115 215 158 219 l 172 219 b 176 218 174 219 174 218 l 200 218 l 211 208 b 232 178 233 208 232 203 l 240 169 b 267 138 249 156 260 140 l 282 124 b 296 119 282 122 289 121 l 331 100 b 429 78 358 88 393 78 "},"N":{"ha":1063,"x_min":0,"x_max":0,"o":"m 90 -90 b 86 -31 90 -65 86 -47 l 86 -26 b 83 14 85 -17 83 0 l 83 58 b 86 79 83 68 86 74 l 86 90 b 79 149 86 97 81 140 l 79 178 l 75 211 b 78 288 75 224 75 269 l 78 307 b 76 315 78 308 76 310 l 76 382 b 78 386 76 383 78 385 l 78 456 b 81 481 78 460 81 478 l 81 504 b 78 572 81 514 78 558 b 82 611 78 578 79 606 l 86 667 b 85 671 86 668 85 669 l 85 685 b 88 713 85 689 86 703 l 88 718 b 93 758 90 731 93 749 b 92 774 92 763 92 769 l 86 813 b 82 844 83 818 82 840 l 81 850 b 74 876 76 860 75 868 l 64 892 b 42 925 54 901 43 913 b 64 979 42 954 64 979 l 89 989 b 133 999 106 989 129 994 l 154 1001 b 182 1003 158 1003 169 1003 l 240 1003 l 240 972 b 264 797 249 953 264 910 l 265 769 b 263 740 265 763 264 747 l 263 707 b 276 660 263 679 264 671 b 826 233 358 556 726 279 l 825 235 b 844 229 842 231 838 229 l 847 229 l 847 264 b 849 331 847 283 847 314 l 849 350 b 846 363 849 351 847 357 l 846 361 b 843 383 844 364 843 368 l 843 639 b 844 647 843 642 844 644 b 835 815 844 722 842 813 l 818 828 b 797 878 807 839 797 868 b 804 917 797 888 797 910 l 864 972 b 917 993 878 979 914 993 l 932 993 b 1006 924 974 993 1006 958 l 1010 907 b 1007 897 1010 904 1008 901 l 1014 897 b 1021 854 1014 883 1021 876 l 1021 843 b 1015 769 1021 821 1015 789 l 1015 746 l 1018 736 l 1018 738 b 1021 721 1019 731 1021 721 l 1021 629 b 1017 611 1017 625 1017 617 l 1017 588 b 1015 576 1017 583 1015 579 l 1015 546 b 1010 369 1015 481 1010 422 b 1015 238 1010 317 1015 289 l 1015 214 b 1017 182 1017 203 1017 183 b 1011 153 1017 167 1015 160 l 1011 108 b 1010 106 1010 107 1010 107 l 1010 107 b 996 60 1008 107 1001 68 b 900 1 990 54 949 1 l 857 38 l 850 67 b 729 75 778 76 750 72 l 699 88 b 610 138 667 92 635 117 l 575 160 b 565 165 569 164 572 160 l 546 183 b 547 186 546 185 547 186 b 540 192 543 190 540 192 l 525 201 l 526 201 b 307 368 454 228 349 339 l 281 386 l 253 414 l 258 390 b 263 324 263 372 263 347 b 260 174 263 278 260 222 l 260 140 b 257 67 260 113 257 86 l 257 19 b 253 -4 257 7 253 1 l 247 -17 l 247 -39 b 250 -93 247 -49 250 -79 b 158 -182 250 -117 171 -182 b 100 -139 143 -182 114 -171 "},"D":{"ha":1117,"x_min":0,"x_max":0,"o":"m 42 490 b 71 588 42 533 71 543 l 93 628 b 139 683 114 650 126 669 l 172 722 l 206 751 l 303 818 b 364 853 317 825 354 849 l 364 851 b 393 867 374 856 383 863 l 392 867 l 442 892 b 569 935 454 894 549 919 b 554 942 564 936 558 939 l 511 965 b 492 974 507 967 504 969 l 489 979 l 440 1003 l 418 1026 b 357 1064 406 1031 371 1050 b 229 1133 238 1133 229 1075 l 229 1147 b 233 1164 229 1147 233 1157 l 263 1185 l 307 1208 b 375 1231 335 1224 357 1231 b 461 1208 392 1231 436 1224 l 496 1186 b 615 1118 568 1140 600 1126 l 614 1118 l 635 1104 b 654 1092 644 1097 654 1092 l 669 1079 b 828 978 669 1074 815 1006 l 853 967 l 869 953 l 910 931 b 922 911 910 925 915 918 l 935 894 b 950 883 939 890 944 883 l 996 821 b 1014 786 1004 811 1004 796 l 1031 756 b 1069 635 1031 715 1069 665 l 1069 633 b 1074 592 1074 621 1074 604 l 1074 554 b 1075 517 1075 543 1075 521 b 1049 351 1074 396 1063 374 l 1006 279 l 960 217 b 788 74 869 103 849 125 b 738 53 772 68 740 56 l 674 29 l 599 8 l 600 8 b 571 4 596 7 576 4 b 457 0 488 1 471 0 b 432 3 447 1 439 3 b 399 0 418 3 410 0 b 350 10 389 0 363 3 l 351 8 b 317 22 339 13 329 18 l 233 65 l 193 92 l 151 135 l 153 135 b 104 189 131 154 117 167 l 85 215 l 60 268 b 42 390 58 274 42 343 l 42 490 m 846 251 b 871 294 847 265 865 289 l 869 292 l 878 306 b 894 349 878 319 888 340 l 904 369 b 908 386 904 375 907 382 b 907 404 908 392 907 397 b 908 408 907 406 908 407 l 908 419 b 924 472 911 435 915 456 b 915 568 918 513 915 544 l 906 604 b 888 654 897 619 889 639 l 889 651 l 868 699 l 842 726 b 813 757 831 739 822 749 l 786 781 l 788 781 b 740 832 774 792 758 810 l 717 849 b 697 857 710 853 706 853 l 681 851 b 593 831 678 847 628 831 l 583 831 b 560 819 576 831 568 829 l 524 819 l 511 807 l 467 792 b 422 767 457 789 443 785 l 339 707 b 285 654 315 690 296 665 l 274 644 l 274 646 b 203 506 240 608 206 560 l 203 456 b 199 399 201 453 199 408 b 239 301 199 307 222 347 l 249 275 l 271 251 b 351 189 289 226 313 208 l 357 183 l 467 128 b 499 122 472 124 485 122 b 611 128 539 122 579 128 b 615 126 613 128 613 126 b 789 197 693 136 715 135 "},"E":{"ha":1051,"x_min":0,"x_max":0,"o":"m 847 -61 b 850 -18 847 -47 847 -32 b 831 3 840 -15 831 -11 l 832 11 b 767 38 801 26 772 38 l 733 39 b 660 19 722 15 692 29 l 635 11 l 636 11 l 596 -1 b 571 -4 592 -3 579 -4 l 508 -10 b 503 -11 507 -10 504 -10 l 504 -11 b 490 -12 500 -12 492 -12 b 438 -7 478 -12 451 -7 l 411 -7 l 369 3 b 356 6 365 4 360 6 l 321 19 l 286 40 b 260 63 282 42 263 58 l 238 97 b 68 304 174 139 110 175 l 56 386 b 46 467 53 404 46 456 l 46 507 b 47 513 46 507 46 508 b 42 572 47 529 42 554 b 51 625 42 579 43 593 b 82 732 58 656 69 669 l 150 842 l 199 890 l 214 910 b 242 936 222 919 236 932 l 242 935 l 254 949 b 281 961 260 949 269 954 l 321 982 b 360 1000 338 990 350 1000 l 417 1008 b 460 982 436 1008 449 994 l 458 982 b 469 972 464 976 468 972 l 561 971 b 581 969 567 971 572 969 b 622 971 593 969 608 971 l 707 971 l 739 964 b 756 958 739 964 751 958 l 788 958 b 792 957 789 958 790 957 b 821 963 806 957 810 963 l 857 961 b 885 965 861 961 864 965 b 926 938 897 965 926 956 l 926 932 b 914 904 926 918 914 910 l 929 839 l 944 821 b 947 794 944 817 947 800 l 956 768 l 954 769 l 961 760 l 961 761 l 989 729 l 1001 694 b 1010 668 1007 689 1010 686 b 982 625 1010 633 1004 631 l 961 622 l 936 633 b 928 643 936 635 932 640 l 917 669 l 918 668 b 911 676 917 671 913 674 l 911 675 l 878 718 b 872 733 876 722 872 729 l 814 793 b 788 807 808 796 797 803 l 738 832 l 724 836 b 629 863 711 839 664 856 l 611 871 l 613 871 l 590 886 l 576 889 b 553 883 571 886 554 883 l 506 885 l 493 890 l 449 892 b 408 893 435 892 421 893 b 351 871 378 893 368 886 l 344 865 l 344 867 b 294 807 326 849 313 825 l 269 782 b 260 767 267 775 264 771 l 247 697 l 242 689 l 242 681 b 233 649 242 667 233 664 l 233 640 b 235 633 233 638 235 635 b 233 617 235 624 233 617 l 263 617 l 283 621 l 392 613 l 433 613 b 547 617 467 613 513 617 l 724 613 b 850 622 744 613 821 619 l 864 629 b 883 639 872 629 881 636 l 932 638 b 942 600 932 606 942 613 l 946 592 l 944 513 b 933 488 944 507 939 493 l 924 472 l 908 458 l 900 457 l 879 461 b 865 485 872 465 865 474 l 868 481 b 864 493 868 482 865 489 l 854 496 b 831 507 847 496 835 507 b 765 526 810 522 789 521 b 633 522 735 526 640 522 l 601 518 l 247 518 b 224 504 235 518 226 513 b 226 499 224 503 226 499 b 232 504 226 501 228 504 l 239 450 b 243 403 239 446 242 413 l 243 404 l 253 381 b 294 286 265 349 282 306 l 311 271 l 308 271 b 351 203 328 251 347 238 l 356 199 l 356 200 l 413 132 l 489 96 l 488 97 l 514 88 b 579 74 544 76 558 74 l 599 74 b 622 76 601 74 613 75 l 621 76 b 636 78 624 78 632 78 l 683 92 l 706 101 b 710 104 707 101 708 103 l 726 121 b 765 146 732 129 764 146 b 822 185 817 146 819 165 l 832 217 l 879 289 b 932 304 896 289 899 304 l 928 178 l 917 138 b 924 86 917 131 919 114 l 924 74 b 911 3 924 51 911 32 l 904 -33 b 896 -49 904 -33 897 -46 l 881 -65 b 876 -67 879 -65 878 -67 b 854 -69 868 -69 854 -69 "},"X":{"ha":1036,"x_min":0,"x_max":0,"o":"m 518 644 b 596 811 540 690 550 744 l 594 810 l 635 876 b 639 899 635 885 636 890 l 639 894 l 643 976 b 861 919 671 953 799 946 b 875 915 867 917 869 915 l 903 907 l 963 878 l 961 878 b 994 831 988 868 994 832 b 981 803 994 821 981 803 l 965 800 b 935 803 958 800 942 803 l 922 814 l 885 828 b 842 839 874 832 856 839 l 835 839 b 829 835 835 839 831 836 l 800 808 b 664 588 760 736 707 694 l 665 589 l 656 561 l 643 538 l 611 493 b 631 431 621 476 631 450 b 838 125 649 379 749 151 l 851 118 b 856 115 853 117 854 115 l 886 107 l 924 106 b 964 68 947 104 964 101 b 961 42 964 61 963 47 b 856 0 958 14 857 0 l 819 -3 b 732 19 804 -1 751 10 l 726 25 l 714 28 l 692 47 b 665 83 685 58 675 74 l 590 206 b 525 304 568 249 542 281 l 518 322 l 510 304 l 510 306 b 468 229 496 276 485 247 l 458 218 b 217 -3 390 94 310 19 l 179 0 b 76 24 140 0 143 15 l 75 42 b 72 68 74 47 72 61 b 129 107 72 103 99 107 l 153 107 l 179 115 b 226 151 186 115 208 135 l 225 151 l 258 183 b 422 490 317 244 389 396 l 389 542 l 381 561 l 382 560 l 368 592 b 235 810 329 694 271 746 l 207 835 b 201 839 206 836 201 839 l 194 839 b 149 828 176 839 160 833 l 113 815 l 114 815 l 100 803 b 69 800 94 803 78 800 l 54 803 b 42 831 54 803 42 821 b 75 878 42 832 49 868 l 74 878 l 132 907 l 164 915 b 210 933 165 917 186 925 l 300 958 b 392 976 335 968 363 976 l 397 894 b 401 893 399 894 400 894 l 401 879 b 510 661 468 775 503 688 l 511 657 m 510 661 b 511 657 511 660 511 658 "},"W":{"ha":1517,"x_min":0,"x_max":0,"o":"m 42 492 b 101 721 47 581 65 649 l 111 740 b 260 886 164 789 183 854 l 258 886 l 274 896 b 444 961 303 936 386 961 b 468 960 453 961 460 960 l 479 960 b 582 950 514 960 549 954 l 607 940 b 656 894 626 929 643 913 b 638 885 649 892 643 888 l 629 876 l 606 876 b 529 857 583 868 553 860 l 436 813 b 342 731 403 788 368 764 l 307 703 b 232 511 292 682 232 561 l 232 483 l 222 464 b 228 335 222 421 225 378 b 256 288 235 318 247 304 l 278 222 b 514 90 343 158 429 122 b 529 89 519 90 524 89 b 604 126 558 89 582 111 l 606 126 b 728 303 646 126 728 231 l 736 340 b 743 468 740 379 743 422 b 738 704 743 550 738 636 b 758 894 738 758 739 842 l 775 940 b 860 968 799 958 831 965 b 907 949 876 965 892 957 l 944 921 l 946 904 b 915 851 946 882 915 874 l 915 849 b 894 794 904 832 897 813 b 896 767 894 785 894 776 l 896 757 b 897 704 896 739 897 722 b 890 582 897 650 890 613 b 913 297 890 499 913 461 b 1046 142 926 232 985 154 l 1075 139 b 1188 253 1121 179 1151 210 l 1188 257 b 1303 606 1274 354 1303 479 b 1278 831 1303 681 1296 760 l 1271 858 b 1224 965 1253 893 1236 928 b 1242 967 1229 965 1236 965 b 1307 917 1271 964 1288 936 l 1349 876 b 1475 507 1468 710 1475 590 b 1447 283 1475 419 1456 368 l 1442 226 b 1417 174 1435 208 1429 189 l 1404 163 b 1385 131 1397 153 1392 140 b 1233 -8 1347 118 1321 0 b 1154 6 1207 -3 1181 1 b 928 143 1053 31 1007 100 l 924 143 b 874 89 901 143 878 106 l 865 78 b 833 50 854 69 844 60 l 751 -6 l 728 -15 b 654 -31 704 -25 679 -25 b 508 -8 611 -31 554 -21 b 46 403 288 24 101 186 b 43 428 46 410 46 419 "},"Y":{"ha":944,"x_min":0,"x_max":0,"o":"m 447 -192 b 332 -283 372 -261 333 -274 b 260 -328 331 -283 283 -315 b 181 -358 240 -344 182 -349 l 178 -358 b 118 -368 164 -358 128 -368 l 61 -360 b 51 -365 61 -360 54 -365 l -47 -351 b -82 -322 -62 -344 -68 -324 l -147 -297 b -250 -178 -162 -281 -232 -217 l -247 -172 b -231 -171 -243 -172 -233 -171 b -229 -174 -229 -172 -229 -172 b -124 -217 -181 -186 -156 -212 b -62 -219 -101 -219 -82 -218 b -12 -203 -51 -215 -29 -203 l -4 -203 b 193 -133 39 -203 176 -149 b 268 -78 229 -100 267 -89 l 283 -67 b 325 -37 294 -49 317 -56 b 417 24 385 -1 396 0 l 422 31 b 449 58 429 43 447 43 l 450 76 b 447 78 449 76 449 76 l 442 99 b 354 179 440 119 367 151 b 299 233 335 197 318 193 l 257 317 b 236 374 254 324 243 351 l 236 372 b 228 396 232 381 228 396 l 218 456 b 194 518 215 460 200 494 l 196 519 b 178 553 196 526 182 544 b 64 819 99 742 122 740 b 29 867 58 840 29 835 l 29 872 b 128 957 32 892 56 938 l 125 954 l 157 971 b 271 804 215 931 249 874 b 494 321 344 569 393 321 b 511 322 500 321 506 321 l 535 315 b 549 338 538 317 547 326 l 619 550 b 657 690 631 550 642 636 l 658 707 b 657 721 657 710 657 717 b 585 808 643 725 585 753 b 740 886 585 843 600 886 l 813 924 b 872 925 819 924 849 925 b 903 924 885 925 896 925 b 875 864 897 885 876 872 l 864 831 b 821 781 861 825 831 789 l 793 751 l 793 753 b 786 726 790 750 786 732 l 761 564 l 740 514 b 675 346 736 482 694 381 l 656 286 b 592 -53 639 286 592 28 l 592 -57 b 450 -194 586 -99 524 -154 b 447 -192 449 -194 447 -193 "},"Z":{"ha":869,"x_min":0,"x_max":0,"o":"m 460 -62 b 458 -65 460 -64 458 -65 b 249 99 336 -6 342 75 l 249 115 b 272 178 249 118 254 163 l 293 239 b 297 251 293 242 294 247 l 297 253 b 306 281 300 264 306 276 l 329 353 l 329 365 l 333 365 l 367 461 b 397 544 375 486 386 521 l 458 689 l 457 688 b 478 744 458 704 472 736 l 504 807 l 500 807 l 510 818 b 399 835 468 835 424 835 l 326 836 l 294 831 b 281 799 290 817 285 810 l 261 776 l 261 779 b 188 750 257 775 204 750 b 42 889 168 750 42 769 b 75 949 57 935 67 943 l 100 965 l 135 969 b 150 978 135 969 140 974 l 149 975 b 190 989 158 981 172 989 l 200 989 b 281 963 207 989 244 968 l 300 963 b 360 957 322 960 350 957 l 550 957 l 568 961 l 660 961 l 693 957 b 797 961 722 957 786 960 b 842 928 822 942 842 972 l 842 910 l 800 847 b 775 840 797 844 786 840 b 736 844 763 840 740 844 l 700 804 b 686 786 694 797 686 788 l 661 718 l 653 682 b 538 404 626 596 589 507 l 526 376 b 519 356 522 368 519 356 b 458 218 499 297 458 265 l 458 206 b 486 175 460 189 478 189 l 492 167 b 585 103 513 142 524 140 b 629 72 594 83 617 90 l 643 60 b 721 0 644 47 683 35 b 921 -76 738 -17 879 -76 l 931 -76 b 982 -94 949 -76 972 -90 b 1043 -92 1003 -93 1022 -94 b 1151 -43 1076 -86 1103 -56 b 1153 -40 1151 -42 1151 -42 b 1171 -42 1157 -40 1167 -42 b 1172 -40 1172 -42 1172 -42 l 1174 -47 b 1068 -176 1156 -92 1083 -158 b 797 -253 961 -257 875 -240 b 735 -242 786 -253 751 -242 l 733 -242 b 651 -210 732 -232 672 -228 b 578 -161 629 -197 581 -161 b 460 -62 576 -151 538 -137 "},"(":{"ha":631,"x_min":0,"x_max":0,"o":"m 42 479 b 86 711 42 568 58 638 l 96 732 b 226 885 142 783 154 846 l 225 885 l 238 894 b 438 969 271 954 375 969 b 518 963 464 969 492 965 l 543 954 b 589 911 561 944 578 928 b 572 900 582 907 578 903 l 565 892 l 544 890 l 513 879 b 474 868 500 876 486 869 l 390 819 b 307 733 361 793 331 767 l 276 701 b 215 513 278 661 213 572 l 217 479 l 208 460 b 219 331 211 417 214 374 b 246 285 226 314 238 301 l 269 219 b 538 43 349 140 538 99 b 535 14 538 33 535 25 b 539 -8 535 6 539 0 l 490 -1 b 49 390 288 21 108 175 b 46 415 49 397 49 407 "},")":{"ha":631,"x_min":0,"x_max":0,"o":"m 585 415 b 582 390 582 407 582 397 b 140 -1 522 175 343 21 l 92 -8 b 96 14 92 0 96 6 b 93 43 96 25 93 33 b 361 219 93 99 282 140 l 385 285 b 411 331 393 301 404 314 b 422 460 417 374 419 417 l 414 479 l 415 513 b 354 701 417 549 371 635 l 324 733 b 240 819 300 767 269 793 l 157 868 b 118 879 144 869 131 876 l 86 890 l 65 892 l 58 900 b 42 911 53 903 49 907 b 88 954 53 928 69 944 l 113 963 b 193 969 138 965 165 969 b 393 894 246 969 357 958 l 406 885 l 404 885 b 535 732 475 846 489 783 l 544 711 b 589 479 572 638 589 568 "},":":{"ha":294,"x_min":0,"x_max":0,"o":"m 42 75 b 176 207 40 136 60 186 l 192 207 b 251 82 244 171 251 104 b 147 -3 251 0 213 -3 b 42 67 103 -3 42 -8 m 33 556 b 168 696 33 621 44 674 l 183 696 b 243 571 236 660 243 593 b 139 486 243 489 204 486 b 33 556 94 486 33 481 "},";":{"ha":414,"x_min":0,"x_max":0,"o":"m 185 -164 b 218 -106 185 -164 211 -128 l 233 -56 b 239 -31 235 -51 239 -32 l 239 43 b 224 54 239 53 231 54 b 164 28 221 54 183 50 l 132 19 l 85 19 l 69 28 b 58 36 68 29 58 36 l 47 53 b 42 68 46 56 42 67 l 42 103 b 53 129 42 108 53 122 l 81 161 b 147 197 101 186 133 197 b 181 171 157 197 174 188 l 244 171 b 261 179 246 171 260 179 l 313 194 b 347 206 326 201 336 206 b 372 179 357 206 372 201 l 372 121 l 356 19 b 150 -228 328 -189 175 -228 b 167 -200 149 -228 168 -200 l 185 -164 m 94 553 b 229 693 94 618 106 671 l 244 693 b 304 568 297 657 304 590 b 200 483 304 486 265 483 b 94 553 156 483 94 478 "},",":{"ha":414,"x_min":0,"x_max":0,"o":"m 185 -164 b 218 -106 185 -164 211 -128 l 233 -56 b 239 -31 235 -51 239 -32 l 239 43 b 224 54 239 53 231 54 b 164 28 221 54 183 50 l 132 19 l 85 19 l 69 28 b 58 36 68 29 58 36 l 47 53 b 42 68 46 56 42 67 l 42 103 b 53 129 42 108 53 122 l 81 161 b 147 197 101 186 133 197 b 181 171 157 197 174 188 l 244 171 b 261 179 246 171 260 179 l 313 194 b 347 206 326 201 336 206 b 372 179 357 206 372 201 l 372 121 l 356 19 b 150 -228 328 -189 175 -228 b 167 -200 149 -228 168 -200 l 185 -164 "},"/":{"ha":796,"x_min":0,"x_max":0,"o":"m 542 550 b 306 42 474 372 394 218 l 299 32 b 290 19 293 28 293 24 l 279 19 l 267 8 b 186 -15 251 0 203 -12 l 149 -15 b 51 3 122 -15 103 -3 l 49 10 b 43 36 49 17 43 28 b 61 51 43 47 51 50 l 71 51 b 78 53 71 51 75 51 l 106 54 b 122 60 107 54 121 58 l 143 68 b 165 82 147 69 163 81 l 222 142 b 296 282 254 182 268 236 b 367 454 339 386 339 397 b 506 861 406 563 506 806 l 524 886 b 533 906 526 889 531 897 b 699 972 539 967 622 972 l 754 972 b 738 953 754 963 740 957 l 718 932 l 718 935 b 644 799 715 935 651 800 b 643 801 643 799 643 800 b 594 692 632 776 608 757 l 590 658 b 575 613 590 656 575 614 l 542 550 "},"\\":{"ha":796,"x_min":0,"x_max":0,"o":"m 221 613 b 206 658 221 614 206 656 l 201 692 b 153 801 188 757 164 776 b 151 799 153 800 153 799 b 78 935 144 800 81 935 l 78 932 l 58 953 b 42 972 56 957 42 963 l 97 972 b 263 906 174 972 257 967 b 272 886 265 897 269 889 l 290 861 b 429 454 290 806 390 563 b 500 282 457 397 457 386 b 574 142 528 236 542 182 l 631 82 b 653 68 633 81 649 69 l 674 60 b 690 54 675 58 689 54 l 718 53 b 725 51 721 51 725 51 l 735 51 b 753 36 744 50 753 47 b 747 10 753 28 747 17 l 744 3 b 647 -15 693 -3 674 -15 l 610 -15 b 529 8 593 -12 544 0 l 517 19 l 506 19 b 497 32 503 24 503 28 l 490 42 b 254 550 401 218 321 372 "},"Æ":{"ha":1639,"x_min":0,"x_max":0,"o":"m 1454 -58 b 1457 -15 1454 -44 1454 -29 b 1440 6 1449 -12 1440 -8 l 1442 14 b 1383 40 1414 29 1389 40 l 1354 42 b 1289 22 1344 39 1318 33 l 1233 1 b 1175 -7 1215 -6 1194 -7 b 1093 -4 1126 -7 1113 -7 l 1071 -4 b 831 153 942 8 865 60 l 819 182 b 768 308 817 182 786 247 l 754 356 b 746 388 750 364 747 381 l 739 406 l 722 421 l 724 421 b 715 426 721 422 718 424 b 697 394 713 410 706 403 l 682 375 b 646 311 679 347 646 326 b 647 289 646 306 647 296 l 642 257 b 632 224 642 243 632 224 l 632 225 l 624 213 b 613 199 622 206 617 203 b 614 193 614 199 614 196 l 599 193 b 565 296 581 193 574 269 l 560 303 b 550 313 558 304 553 308 l 542 324 l 543 324 l 506 357 l 506 356 l 461 382 b 447 388 458 382 450 386 l 436 388 b 421 360 435 386 422 381 b 381 276 421 360 381 308 l 372 260 b 360 225 365 246 360 235 l 349 208 b 243 15 343 183 317 97 l 206 -19 l 142 -86 b 140 -65 142 -67 140 -65 l 140 -43 l 151 -33 b 188 57 172 -11 188 6 b 185 92 188 61 185 82 l 181 104 b 168 143 179 107 168 136 l 168 144 b 114 169 161 144 138 169 l 99 169 b 65 168 97 169 82 168 b 42 169 57 168 49 168 b 78 207 42 190 61 199 l 92 214 b 97 218 94 214 94 215 b 256 267 122 231 235 246 b 350 324 306 279 339 283 l 393 394 l 392 393 b 421 457 401 419 400 403 b 453 557 422 465 453 544 l 453 558 b 485 631 458 581 479 607 l 532 729 l 531 729 l 536 746 b 540 758 540 754 540 756 b 539 771 540 761 539 768 b 547 801 539 771 543 790 l 547 803 b 540 822 544 807 542 817 l 517 856 b 503 872 513 858 507 865 l 494 881 b 486 890 492 882 490 886 l 475 899 b 449 908 469 899 449 908 l 440 908 b 392 899 431 908 410 899 l 307 899 b 275 904 307 901 288 904 l 263 915 l 263 926 b 283 944 265 931 278 942 l 292 949 l 338 949 b 393 943 354 949 369 943 l 400 943 b 414 947 403 943 410 946 l 413 946 b 421 949 418 949 418 949 b 475 963 460 949 467 954 b 565 971 479 967 483 971 l 581 971 b 610 976 590 971 607 975 b 661 1008 608 979 643 990 l 669 1010 b 706 968 690 1010 674 968 l 707 951 b 725 896 707 942 725 907 l 736 875 l 750 826 b 788 750 757 824 772 790 l 840 847 l 897 915 b 921 942 904 925 917 938 l 921 940 l 932 954 b 956 967 938 954 946 960 l 990 988 b 1025 1006 1006 996 1017 1006 l 1075 1014 b 1114 988 1093 1014 1104 1000 l 1113 988 b 1122 978 1117 982 1121 978 l 1203 976 b 1219 975 1207 976 1213 975 b 1257 976 1231 975 1244 976 l 1331 976 l 1360 969 b 1374 964 1360 969 1371 964 l 1401 964 b 1406 963 1403 964 1404 963 b 1432 968 1418 963 1422 968 l 1464 967 b 1488 971 1467 967 1469 971 b 1525 943 1499 971 1525 961 l 1525 938 b 1514 910 1525 924 1514 915 l 1526 844 l 1540 826 b 1543 799 1540 822 1543 804 l 1550 772 l 1549 774 l 1556 764 l 1556 765 l 1579 733 l 1590 699 b 1597 672 1596 693 1597 690 b 1574 629 1597 639 1593 632 l 1556 626 l 1533 638 b 1525 647 1533 639 1529 644 l 1515 674 l 1517 672 l 1511 681 l 1511 679 l 1482 722 b 1476 738 1481 726 1476 733 l 1425 797 b 1401 811 1421 800 1411 807 l 1358 838 l 1346 842 b 1263 868 1335 844 1293 861 l 1228 892 l 1217 894 b 1196 889 1211 892 1196 889 l 1154 890 l 1143 896 l 1104 897 b 1068 899 1092 897 1079 899 b 1018 876 1042 899 1032 892 l 1011 871 l 1011 872 b 968 811 994 854 985 829 l 946 786 b 938 771 943 779 940 775 l 926 701 l 921 693 l 921 685 b 914 653 921 671 914 668 l 914 644 b 915 638 914 642 915 639 b 914 621 915 628 914 621 l 939 621 l 958 625 l 1053 617 l 1090 617 b 1190 621 1119 617 1160 621 l 1351 617 b 1457 626 1375 615 1432 624 l 1469 633 b 1486 643 1476 633 1485 640 l 1529 642 b 1538 604 1529 610 1538 617 l 1542 596 l 1540 517 b 1531 492 1540 511 1536 497 l 1522 476 l 1508 463 l 1501 461 l 1483 465 b 1471 489 1476 469 1471 478 l 1474 485 b 1469 497 1474 486 1471 493 l 1461 500 b 1440 511 1454 500 1443 511 b 1382 531 1422 526 1403 525 b 1267 526 1356 531 1272 526 l 1238 522 l 926 522 b 906 508 915 522 908 517 b 908 503 906 507 908 503 b 913 508 908 506 908 508 l 919 454 l 919 432 b 982 285 936 393 957 347 b 985 278 982 282 983 279 l 985 281 b 1018 206 996 253 1013 242 l 1022 201 l 1022 203 l 1072 135 l 1139 99 l 1138 100 l 1161 90 b 1218 76 1188 79 1200 76 l 1236 76 b 1257 79 1238 76 1247 78 l 1256 79 b 1268 81 1258 81 1265 81 l 1331 104 l 1349 124 b 1382 149 1353 132 1382 149 b 1433 188 1428 149 1431 168 l 1442 219 l 1483 293 b 1529 308 1497 293 1500 308 l 1525 181 l 1515 140 b 1522 89 1515 133 1518 117 l 1522 76 b 1511 6 1522 54 1511 35 l 1504 -31 b 1497 -46 1504 -31 1499 -43 l 1485 -62 b 1463 -68 1482 -62 1467 -68 b 1461 -67 1461 -68 1461 -67 m 646 386 b 669 410 650 389 660 399 l 708 443 b 721 460 711 447 721 451 l 721 468 b 585 732 708 494 610 732 b 560 685 581 732 564 732 l 542 664 l 538 650 l 519 621 l 499 564 l 494 532 b 479 492 494 524 479 501 l 479 485 b 526 440 485 479 489 456 l 539 433 l 615 360 l 617 361 b 618 364 617 363 617 363 l 646 386 "},"å":{"ha":779,"x_min":0,"x_max":0,"o":"m 335 999 b 336 997 335 999 335 997 l 392 976 l 392 978 b 468 856 417 971 460 907 l 468 818 l 464 804 b 408 711 457 764 431 735 l 388 696 b 429 619 406 676 419 651 l 428 619 b 450 529 440 592 439 560 l 468 478 l 475 438 b 478 425 476 435 478 429 b 501 347 486 381 489 360 b 597 178 521 251 544 226 l 596 179 l 608 168 l 667 131 b 738 63 676 128 738 94 b 581 17 738 35 657 17 b 492 33 536 17 525 21 b 483 36 489 33 485 36 l 471 42 l 415 97 l 415 96 b 372 153 392 117 379 142 l 369 153 b 354 142 368 153 358 144 l 331 124 l 304 90 b 276 64 300 86 283 69 l 200 13 b 161 -3 197 8 169 -3 l 121 -3 b 50 76 78 7 54 42 l 42 139 l 51 151 b 119 231 75 201 119 221 l 150 253 l 172 274 b 215 282 181 278 196 282 l 215 263 b 196 207 213 257 196 211 l 196 189 l 201 169 l 201 171 b 253 138 210 144 219 138 b 344 238 315 138 333 203 l 349 244 b 324 311 349 250 331 311 l 297 311 b 282 303 296 311 285 304 l 261 303 l 232 296 l 232 318 b 303 385 254 324 296 374 l 303 417 b 282 483 303 425 285 478 l 251 563 l 253 561 b 192 672 207 629 222 658 l 125 753 l 121 772 l 122 771 b 111 819 111 794 111 794 b 175 942 111 863 142 913 l 247 988 b 319 1004 265 996 303 1004 b 333 1000 322 1004 325 1004 l 335 999 m 219 878 b 218 868 218 875 218 872 b 243 806 218 850 231 829 l 246 799 b 260 776 253 793 258 785 b 311 743 281 757 301 743 b 344 747 333 747 344 747 l 357 772 b 361 796 360 779 361 785 b 267 914 342 824 340 897 l 261 914 b 254 913 260 914 258 913 b 249 914 253 913 251 914 b 224 888 246 914 236 904 l 219 878 "},"Å":{"ha":1169,"x_min":0,"x_max":0,"o":"m 151 -33 b 188 57 172 -11 188 6 b 185 92 188 61 185 82 l 181 104 b 168 143 179 107 168 136 l 168 144 b 114 169 161 144 138 169 l 99 169 b 65 168 97 169 82 168 b 42 169 57 168 49 168 b 78 207 42 190 61 199 l 92 214 b 97 218 94 214 94 215 b 256 267 122 231 235 246 b 350 324 306 279 339 283 l 393 394 l 392 393 b 421 457 401 419 400 403 b 453 557 422 465 453 544 l 453 558 b 485 631 458 581 479 607 l 532 729 l 531 729 l 536 746 b 540 758 540 754 540 756 b 539 771 540 761 539 768 b 547 801 539 771 543 790 l 547 803 b 540 822 544 807 542 817 l 517 856 b 503 872 513 858 507 865 l 494 881 b 486 890 492 882 490 886 l 475 899 b 449 908 469 899 449 908 l 440 908 b 392 899 431 908 410 899 l 307 899 b 275 904 307 901 288 904 l 263 915 l 263 926 b 283 944 265 931 278 942 l 292 949 l 338 949 b 393 943 354 949 369 943 l 400 943 b 414 947 403 943 410 946 l 413 946 b 421 949 418 949 418 949 b 475 963 460 949 467 954 b 565 971 479 967 483 971 l 581 971 b 610 976 590 971 607 975 b 661 1008 608 979 643 990 l 669 1010 b 706 968 690 1010 674 968 l 707 951 b 725 896 707 942 725 907 l 736 875 l 750 826 b 801 715 760 824 782 769 b 982 285 869 529 890 513 b 985 278 982 282 983 279 l 985 281 b 992 253 990 271 992 263 b 1008 203 992 233 1008 221 l 1063 121 b 1068 106 1063 119 1065 108 l 1074 97 b 1088 71 1078 89 1085 81 b 1085 72 1088 71 1086 72 l 1085 71 b 1101 56 1085 63 1088 56 l 1113 50 b 1128 36 1119 46 1128 39 b 1119 22 1128 35 1125 31 l 1104 15 b 1032 7 1068 15 1050 11 l 1033 7 b 944 -12 1018 1 953 3 l 932 -19 b 878 -79 914 -37 888 -79 b 864 -74 874 -79 869 -78 b 867 -61 864 -69 864 -64 l 867 -35 b 869 -8 867 -29 869 -14 l 869 1 b 831 153 864 53 863 69 l 819 182 b 776 290 814 190 796 257 l 754 356 b 746 388 750 364 747 381 l 739 406 l 722 421 l 724 421 b 715 426 721 422 718 424 b 697 394 713 410 706 403 l 682 375 b 646 311 679 347 646 326 b 647 289 646 306 647 296 l 642 257 b 632 224 642 243 632 224 l 632 225 l 624 213 b 613 199 622 206 617 203 b 614 193 614 199 614 196 l 599 193 b 565 296 581 193 574 269 l 560 303 b 550 313 558 304 553 308 l 542 324 l 543 324 l 506 357 l 506 356 l 461 382 b 447 388 458 382 450 386 l 436 388 b 421 360 435 386 422 381 b 381 276 421 360 381 308 l 372 260 b 360 225 365 246 360 235 l 349 208 b 243 15 343 183 317 97 l 206 -19 l 142 -86 b 140 -65 142 -67 140 -65 l 140 -43 m 658 1326 l 658 1328 b 735 1206 683 1321 726 1257 l 735 1168 l 731 1154 b 675 1061 724 1114 697 1085 l 672 1060 b 544 1003 621 1022 594 1003 l 535 1003 b 458 1022 503 1003 490 1006 l 392 1103 l 388 1122 l 389 1121 b 378 1169 378 1144 378 1144 b 442 1292 378 1213 408 1263 l 514 1338 b 586 1354 532 1346 569 1354 b 600 1349 589 1354 592 1354 l 601 1349 m 646 386 b 669 410 650 389 660 399 l 708 443 b 721 460 711 447 721 451 l 721 468 b 585 732 708 494 610 732 b 560 685 581 732 564 732 l 542 664 l 538 650 l 519 621 l 499 564 l 494 532 b 479 492 494 524 479 501 l 479 485 b 526 440 485 479 489 456 l 658 367 l 646 386 m 486 1228 b 485 1218 485 1225 485 1222 b 510 1156 485 1200 497 1179 l 513 1149 b 526 1126 519 1143 525 1135 b 578 1093 547 1107 568 1093 b 611 1097 600 1097 611 1097 l 624 1122 b 628 1146 626 1129 628 1135 b 533 1264 608 1174 607 1247 l 528 1264 b 521 1263 526 1264 525 1263 b 515 1264 519 1263 518 1264 b 490 1238 513 1264 503 1254 l 486 1228 m 617 361 b 611 363 617 361 615 363 l 617 361 "},"ç":{"ha":738,"x_min":0,"x_max":0,"o":"m 288 -129 b 340 7 288 -89 296 -15 b 211 60 293 19 264 40 l 176 75 b 154 82 171 76 156 82 b 140 81 154 82 146 81 b 106 146 125 81 106 121 l 78 181 l 57 229 b 42 278 51 235 42 267 l 42 383 b 63 440 42 386 58 425 l 85 475 b 163 581 100 518 140 560 l 183 594 b 232 638 189 599 226 635 b 324 686 242 643 315 681 l 331 693 l 367 708 b 411 707 371 708 394 707 b 471 729 433 707 451 724 l 528 729 b 549 721 531 729 546 724 l 592 693 l 647 651 b 696 601 663 640 692 600 l 696 581 b 585 517 696 571 642 517 b 563 518 579 517 563 518 l 535 525 b 493 551 531 526 497 550 l 479 560 b 429 589 460 567 450 583 l 408 601 b 350 624 397 613 379 624 b 260 581 329 624 278 599 l 239 539 l 239 525 b 232 511 239 524 232 513 b 225 433 229 483 225 460 b 233 393 225 414 233 400 b 232 379 233 389 232 382 b 239 335 232 369 239 344 l 246 306 b 288 236 246 303 279 256 b 388 146 293 231 351 146 l 408 131 b 471 117 421 122 453 126 b 493 103 474 117 490 104 b 650 86 521 89 585 86 b 444 -3 650 58 538 0 l 444 -12 b 443 -17 444 -14 443 -15 b 446 -24 443 -18 444 -21 l 444 -28 b 443 -31 444 -29 444 -29 l 438 -69 l 489 -157 b 565 -287 515 -217 565 -239 b 554 -332 565 -300 561 -315 l 542 -374 b 515 -410 532 -389 521 -400 l 507 -414 b 401 -467 481 -443 436 -456 l 353 -483 l 332 -487 l 333 -487 l 300 -493 b 261 -499 289 -497 274 -499 l 246 -497 b 240 -496 244 -497 243 -496 l 233 -493 b 214 -478 226 -493 214 -486 l 213 -472 l 217 -465 b 229 -456 221 -464 228 -457 l 233 -451 b 247 -446 239 -450 243 -447 l 279 -432 b 344 -390 308 -419 338 -406 l 344 -389 b 354 -356 344 -385 350 -364 l 361 -311 b 356 -290 361 -306 356 -296 l 356 -289 b 329 -218 354 -256 356 -254 l 288 -142 "},"Ç":{"ha":996,"x_min":0,"x_max":0,"o":"m 383 -121 b 421 4 383 -87 392 -19 b 314 40 393 10 350 21 l 293 49 b 261 65 286 50 269 60 l 246 81 b 189 125 219 88 190 121 l 189 129 l 150 168 l 126 206 b 100 251 117 221 107 236 l 100 250 l 83 274 l 65 340 l 65 339 l 54 363 b 42 463 46 388 42 433 l 42 490 b 44 506 42 493 43 501 b 42 515 43 508 42 513 l 42 561 b 74 679 50 615 56 625 b 75 686 74 682 75 685 l 92 704 b 103 722 93 708 99 718 l 101 722 l 131 765 b 314 893 178 811 261 864 l 318 894 b 390 929 346 911 378 917 l 532 971 l 571 971 l 578 968 l 594 968 b 613 964 599 967 608 964 l 624 964 b 642 958 625 963 638 958 l 665 953 l 754 918 l 781 896 l 806 869 l 824 831 b 851 783 850 810 851 793 l 851 781 b 822 731 851 771 847 744 l 807 715 b 793 714 804 715 797 714 l 789 714 b 774 701 785 708 779 704 l 765 699 b 718 707 746 699 729 704 l 704 714 l 644 772 l 632 779 b 603 797 619 792 611 789 l 592 806 l 594 803 b 500 825 579 808 532 819 b 476 824 494 824 481 824 b 261 718 390 804 296 743 l 263 718 l 226 688 l 226 689 b 203 568 222 685 203 692 b 319 271 203 446 235 368 l 340 244 b 354 231 347 243 350 238 l 378 207 b 406 190 388 197 406 204 l 410 188 l 408 189 b 456 168 426 179 451 168 l 524 151 b 553 146 535 149 544 146 l 569 142 l 589 142 b 699 165 622 142 681 147 l 731 192 l 746 200 b 799 276 768 217 785 246 l 803 283 b 886 363 828 326 849 363 b 954 301 897 363 954 343 b 947 278 954 293 950 283 l 919 228 l 896 199 l 824 125 b 775 83 801 103 790 93 l 722 51 b 539 -7 688 33 597 -1 b 542 -15 539 -10 540 -12 l 540 -19 b 539 -22 540 -21 540 -21 l 533 -61 l 585 -149 b 661 -279 611 -208 661 -231 b 650 -324 661 -292 657 -307 l 638 -365 b 611 -401 628 -381 617 -392 l 603 -406 b 497 -458 576 -435 532 -447 l 449 -475 l 428 -479 l 429 -479 l 396 -485 b 357 -490 385 -489 369 -490 l 342 -489 b 336 -487 340 -489 339 -487 l 329 -485 b 310 -469 322 -485 310 -478 l 308 -464 l 313 -457 b 325 -447 317 -456 324 -449 l 329 -443 b 343 -437 335 -442 339 -439 l 375 -424 b 440 -382 404 -411 433 -397 l 440 -381 b 450 -347 440 -376 446 -356 l 457 -303 b 451 -282 457 -297 451 -287 l 451 -281 b 425 -210 450 -247 451 -246 l 383 -133 "},"œ":{"ha":1193,"x_min":0,"x_max":0,"o":"m 42 340 b 160 596 42 432 97 536 l 210 628 l 210 626 b 253 661 224 636 239 651 l 254 660 l 299 690 b 426 726 335 715 396 726 b 449 719 432 726 440 724 l 447 719 b 453 717 449 718 451 717 l 496 701 l 524 682 b 544 669 532 675 538 669 l 568 663 b 626 590 592 658 610 613 b 686 657 651 621 681 654 l 708 664 l 739 692 b 832 722 768 713 822 722 b 942 706 868 722 922 706 b 1151 481 965 706 1151 639 b 1032 358 1151 372 1042 358 l 858 358 b 761 368 817 358 799 368 b 699 353 733 368 708 363 b 722 293 700 332 711 293 l 726 253 l 726 254 b 743 229 732 243 736 238 l 776 189 b 829 144 807 167 829 144 l 864 131 l 889 117 l 988 96 l 1017 107 b 1024 108 1018 108 1022 108 l 1058 117 b 1071 118 1061 117 1065 118 b 1097 99 1090 118 1093 115 l 1097 79 b 1072 58 1096 74 1079 61 l 1028 43 b 964 7 1004 35 990 19 b 813 -6 903 1 854 -6 b 631 88 742 -6 690 13 l 601 144 l 567 99 l 550 82 l 533 74 b 468 26 513 63 486 33 b 326 -1 392 7 369 -1 b 200 33 268 -1 250 4 l 176 58 b 71 206 97 143 88 193 l 54 247 b 42 340 42 290 42 290 m 188 469 b 183 444 188 467 183 443 l 192 444 l 199 401 l 208 365 b 215 344 211 357 215 343 l 215 346 b 274 221 233 301 269 251 l 307 182 b 344 151 314 172 332 158 l 381 133 b 414 121 386 128 411 121 l 490 121 b 519 171 499 128 507 143 l 529 203 l 536 211 l 535 210 b 550 288 546 236 550 247 b 514 403 550 332 521 360 l 507 419 b 460 510 494 431 479 483 b 317 606 457 522 347 601 b 304 600 314 601 310 600 l 299 600 b 286 601 296 600 292 601 b 203 521 269 601 244 590 l 192 503 b 188 482 192 497 188 483 l 188 469 m 724 475 b 792 469 740 474 776 469 l 853 469 b 972 453 894 469 956 457 l 999 453 b 1067 458 1028 453 1067 453 b 1058 465 1067 460 1064 461 l 1060 465 b 1032 492 1050 469 1040 478 b 953 578 1003 542 953 528 b 810 626 940 578 871 626 b 739 599 783 626 758 619 l 732 583 l 717 564 b 710 553 715 564 710 553 l 710 478 "},"Œ":{"ha":1582,"x_min":0,"x_max":0,"o":"m 1385 -64 l 1385 -24 b 1372 3 1378 -21 1372 -15 l 1374 6 b 1325 29 1349 19 1328 29 l 1296 31 b 1238 11 1288 31 1257 18 l 1183 -10 b 1160 -12 1179 -11 1165 -12 l 1131 -17 b 1092 -21 1115 -19 1100 -21 b 1047 -15 1081 -21 1060 -15 l 1022 -15 l 986 -6 b 975 -3 983 -4 978 -3 l 949 10 l 915 33 l 917 32 b 886 65 913 33 892 58 l 871 92 b 764 200 831 124 797 144 b 710 144 740 169 719 150 l 697 129 b 650 89 676 103 661 96 l 643 86 l 644 86 b 615 64 635 81 625 76 l 581 44 l 582 44 b 543 25 572 39 543 36 l 463 7 b 418 0 451 3 436 0 b 281 36 332 0 335 36 l 183 129 l 161 169 l 153 178 b 113 258 149 182 117 238 b 72 353 101 275 76 324 l 60 389 b 42 489 60 394 42 408 l 42 538 b 78 664 42 560 53 633 b 125 768 78 664 108 757 l 171 831 b 246 876 186 831 231 868 l 250 879 l 249 879 b 290 911 264 888 281 893 l 307 935 l 381 969 b 497 988 399 978 442 983 b 557 971 511 988 546 979 l 642 936 l 671 907 b 682 900 674 904 681 900 l 736 858 l 775 813 l 779 804 l 796 833 l 853 901 b 876 926 858 908 871 921 l 890 943 b 904 951 892 943 897 947 l 911 954 l 910 954 b 939 974 919 960 929 968 l 956 982 l 954 982 l 975 994 l 1017 1003 l 1031 1003 b 1071 972 1051 1003 1060 990 l 1076 967 b 1197 964 1107 967 1139 964 b 1275 965 1218 964 1244 964 l 1304 958 l 1315 953 l 1347 951 b 1372 957 1353 951 1360 957 l 1403 957 b 1425 960 1406 958 1414 960 b 1468 924 1439 960 1468 947 l 1468 918 b 1461 894 1468 907 1465 901 l 1461 896 l 1457 889 l 1469 832 l 1469 833 l 1483 811 b 1486 785 1483 807 1486 790 l 1492 761 l 1500 753 b 1511 738 1504 746 1508 740 l 1522 724 l 1533 686 b 1540 658 1536 682 1540 674 b 1511 607 1540 618 1535 615 l 1488 604 l 1475 611 l 1481 600 b 1482 590 1481 599 1482 594 l 1485 582 l 1483 506 b 1472 475 1483 500 1478 482 l 1468 468 l 1469 469 l 1465 461 l 1447 443 l 1436 442 l 1418 446 b 1401 474 1413 451 1403 463 b 1338 507 1401 474 1363 507 l 1321 511 b 1214 507 1281 511 1225 507 l 1186 503 l 882 503 l 888 443 b 899 379 888 422 894 393 l 904 363 b 933 286 913 336 924 304 l 932 288 l 946 268 b 951 263 947 267 950 263 l 954 257 b 985 201 965 243 979 228 l 983 203 b 1039 131 996 183 1032 131 l 1092 103 b 1167 81 1131 93 1144 81 l 1183 81 b 1213 85 1190 81 1201 85 l 1253 97 b 1274 108 1260 100 1267 106 l 1285 124 b 1318 151 1294 138 1318 151 b 1365 188 1360 151 1363 169 l 1375 221 l 1415 293 b 1474 308 1436 293 1415 308 l 1469 172 l 1460 132 b 1467 85 1460 124 1467 108 l 1467 74 b 1456 3 1467 47 1456 25 l 1449 -37 b 1444 -49 1449 -37 1447 -43 l 1425 -74 b 1400 -79 1425 -74 1407 -79 b 1397 -78 1399 -79 1397 -78 m 192 546 b 325 222 192 468 300 239 l 351 194 l 404 158 b 467 150 413 151 450 154 b 481 153 469 151 475 153 l 513 153 b 565 168 528 153 511 157 l 575 171 b 607 188 590 181 599 185 l 608 188 b 644 222 613 188 636 213 l 653 232 b 674 261 668 247 674 251 l 690 300 b 697 349 690 313 693 336 l 711 426 b 704 486 707 450 704 461 l 704 494 b 700 526 701 503 700 515 l 701 572 b 653 674 700 572 671 640 b 635 704 644 685 636 697 l 603 740 b 497 819 565 763 540 807 l 478 828 b 424 840 453 828 436 840 l 413 840 b 313 799 385 840 356 819 l 314 799 l 292 785 l 292 786 b 192 546 228 740 194 671 m 1404 626 b 1422 638 1413 628 1419 635 l 1451 636 l 1444 656 l 1438 665 l 1439 664 l 1411 704 b 1407 721 1408 708 1407 717 b 1193 851 1372 793 1200 843 b 1154 864 1174 863 1163 864 l 1103 865 l 1092 871 l 1074 871 b 1057 872 1067 871 1060 872 l 1031 872 b 1022 874 1028 872 1025 874 b 979 854 1000 874 992 867 l 961 831 l 961 832 l 913 768 l 904 751 l 896 685 l 890 676 l 890 671 b 883 639 890 653 883 647 l 883 629 b 885 624 883 628 885 626 l 885 615 l 914 619 l 1008 611 l 1044 611 b 1090 613 1058 611 1074 611 l 1097 613 b 1139 615 1113 614 1125 615 l 1286 611 b 1347 617 1292 611 1319 614 l 1394 621 b 1399 624 1394 621 1396 622 l 1397 622 l 1404 626 "},"+":{"ha":569,"x_min":0,"x_max":0,"o":"m 79 446 b 158 432 124 446 147 442 l 164 432 b 200 433 167 433 190 433 l 200 550 b 153 635 200 586 196 624 b 178 664 160 647 161 660 b 332 721 192 676 256 721 l 340 721 l 358 711 b 375 564 369 699 375 653 l 375 544 b 361 479 375 529 372 506 b 353 460 361 478 353 463 b 357 433 353 457 356 446 l 415 435 b 471 478 439 435 463 440 b 528 318 472 476 528 449 l 522 293 b 424 279 515 283 483 279 l 411 279 b 357 296 393 279 385 286 b 353 175 354 257 353 217 b 357 154 353 171 357 157 b 407 63 379 96 407 79 b 304 -3 407 14 336 10 b 285 0 299 -3 289 0 b 213 39 276 1 213 24 l 186 54 b 201 172 186 118 190 156 l 201 178 b 199 239 200 183 200 232 b 200 294 200 267 200 275 l 188 294 b 86 247 113 294 101 247 b 42 338 53 247 49 307 b 43 356 42 342 43 351 b 69 419 43 363 58 419 l 79 446 "},"À":{"ha":1169,"x_min":0,"x_max":0,"o":"m 151 -33 b 188 57 172 -11 188 6 b 185 92 188 61 185 82 l 181 104 b 168 143 179 107 168 136 l 168 144 b 114 169 161 144 138 169 l 99 169 b 65 168 97 169 82 168 b 42 169 57 168 49 168 b 78 207 42 190 61 199 l 92 214 b 97 218 94 214 94 215 b 256 267 122 231 235 246 b 350 324 306 279 339 283 l 393 394 l 392 393 b 421 457 401 419 400 403 b 453 557 422 465 453 544 l 453 558 b 485 631 458 581 479 607 l 532 729 l 531 729 l 536 746 b 540 758 540 754 540 756 b 539 771 540 761 539 768 b 547 801 539 771 543 790 l 547 803 b 540 822 544 807 542 817 l 517 856 b 503 872 513 858 507 865 l 494 881 b 486 890 492 882 490 886 l 475 899 b 449 908 469 899 449 908 l 440 908 b 392 899 431 908 410 899 l 307 899 b 275 904 307 901 288 904 l 263 915 l 263 926 b 283 944 265 931 278 942 l 292 949 l 338 949 b 393 943 354 949 369 943 l 400 943 b 414 947 403 943 410 946 l 413 946 b 421 949 418 949 418 949 b 475 963 460 949 467 954 b 565 971 479 967 483 971 l 581 971 b 610 976 590 971 607 975 b 661 1008 608 979 643 990 l 669 1010 b 706 968 690 1010 674 968 l 707 951 b 725 896 707 942 725 907 l 736 875 l 750 826 b 801 715 760 824 782 769 b 982 285 869 529 890 513 b 985 278 982 282 983 279 l 985 281 b 992 253 990 271 992 263 b 1008 203 992 233 1008 221 l 1063 121 b 1068 106 1063 119 1065 108 l 1074 97 b 1088 71 1078 89 1085 81 b 1085 72 1088 71 1086 72 l 1085 71 b 1101 56 1085 63 1088 56 l 1113 50 b 1128 36 1119 46 1128 39 b 1119 22 1128 35 1125 31 l 1104 15 b 1032 7 1068 15 1050 11 l 1033 7 b 944 -12 1018 1 953 3 l 932 -19 b 878 -79 914 -37 888 -79 b 864 -74 874 -79 869 -78 b 867 -61 864 -69 864 -64 l 867 -35 b 869 -8 867 -29 869 -14 l 869 1 b 831 153 864 53 863 69 l 819 182 b 776 290 814 190 796 257 l 754 356 b 746 388 750 364 747 381 l 739 406 l 722 421 l 724 421 b 715 426 721 422 718 424 b 697 394 713 410 706 403 l 682 375 b 646 311 679 347 646 326 b 647 289 646 306 647 296 l 642 257 b 632 224 642 243 632 224 l 632 225 l 624 213 b 613 199 622 206 617 203 b 614 193 614 199 614 196 l 599 193 b 565 296 581 193 574 269 l 560 303 b 550 313 558 304 553 308 l 542 324 l 543 324 l 506 357 l 506 356 l 461 382 b 447 388 458 382 450 386 l 436 388 b 421 360 435 386 422 381 b 381 276 421 360 381 308 l 372 260 b 360 225 365 246 360 235 l 349 208 b 243 15 343 183 317 97 l 206 -19 l 142 -86 b 140 -65 142 -67 140 -65 l 140 -43 m 582 1217 b 575 1249 581 1225 576 1247 b 492 1318 565 1260 508 1318 l 483 1319 b 368 1306 450 1319 410 1306 l 340 1308 b 294 1315 331 1308 299 1314 l 268 1331 l 247 1351 b 242 1372 246 1353 243 1368 l 240 1392 l 308 1447 l 342 1465 b 374 1476 346 1469 367 1476 l 382 1476 b 372 1450 382 1472 378 1450 l 383 1424 l 392 1414 b 465 1399 411 1413 442 1400 l 500 1397 b 557 1406 517 1397 538 1406 l 599 1418 l 635 1410 l 686 1378 b 721 1351 686 1378 711 1361 l 726 1344 b 753 1290 733 1336 750 1296 l 750 1278 b 739 1267 750 1276 739 1268 b 744 1243 739 1257 744 1254 l 744 1233 b 692 1138 744 1221 714 1165 l 692 1139 b 654 1076 688 1139 667 1075 l 581 1033 b 531 1013 549 1018 549 1013 b 525 1014 528 1013 526 1014 l 525 1028 b 540 1063 529 1035 539 1057 b 582 1158 540 1071 582 1104 l 582 1217 m 646 386 b 669 410 650 389 660 399 l 708 443 b 721 460 711 447 721 451 l 721 468 b 585 732 708 494 610 732 b 560 685 581 732 564 732 l 542 664 l 538 650 l 519 621 l 499 564 l 494 532 b 479 492 494 524 479 501 l 479 485 b 526 440 485 479 489 456 l 539 433 l 615 360 l 617 361 b 618 364 617 363 617 363 l 646 386 "},"à":{"ha":779,"x_min":0,"x_max":0,"o":"m 313 903 b 306 935 311 911 307 933 b 222 1004 296 946 239 1004 l 214 1006 b 99 992 181 1006 140 992 l 71 994 b 25 1001 61 994 29 1000 l -1 1017 l -22 1038 b -28 1058 -24 1039 -26 1054 l -29 1078 l 39 1133 l 72 1151 b 104 1163 76 1156 97 1163 l 113 1163 b 103 1136 113 1158 108 1136 l 114 1110 l 122 1100 b 196 1085 142 1099 172 1086 l 231 1083 b 288 1092 247 1083 268 1092 l 329 1104 l 365 1096 l 417 1064 b 451 1038 417 1064 442 1047 l 457 1031 b 483 976 464 1022 481 982 l 481 964 b 469 953 481 963 469 954 b 475 929 469 943 475 940 l 475 919 b 422 824 475 907 444 851 l 422 825 b 385 763 418 825 397 761 l 328 729 l 344 729 b 429 619 385 707 413 674 l 428 619 b 450 529 440 592 439 560 l 468 478 l 475 438 b 478 425 476 435 478 429 b 501 347 486 381 489 360 b 597 178 521 251 544 226 l 596 179 l 608 168 l 667 131 b 738 63 676 128 738 94 b 581 17 738 35 657 17 b 492 33 536 17 525 21 b 483 36 489 33 485 36 l 471 42 l 415 97 l 415 96 b 372 153 392 117 379 142 l 369 153 b 354 142 368 153 358 144 l 331 124 l 304 90 b 276 64 300 86 283 69 l 200 13 b 161 -3 197 8 169 -3 l 121 -3 b 50 76 78 7 54 42 l 42 139 l 51 151 b 119 231 75 201 119 221 l 150 253 l 172 274 b 215 282 181 278 196 282 l 215 263 b 196 207 213 257 196 211 l 196 189 l 201 169 l 201 171 b 253 138 210 144 219 138 b 344 238 315 138 333 203 l 349 244 b 324 311 349 250 331 311 l 297 311 b 282 303 296 311 285 304 l 261 303 l 232 296 l 232 318 b 303 385 254 324 296 374 l 303 417 b 282 483 303 425 285 478 l 251 563 l 253 561 l 226 607 b 211 654 214 621 211 644 b 213 665 211 656 213 661 l 219 682 b 271 749 232 688 265 728 b 313 844 271 757 313 790 l 313 903 "},"á":{"ha":779,"x_min":0,"x_max":0,"o":"m 667 131 b 738 63 676 128 738 94 b 581 17 738 35 657 17 b 492 33 536 17 525 21 b 483 36 489 33 485 36 l 471 42 l 415 97 l 415 96 b 372 153 392 117 379 142 l 369 153 b 354 142 368 153 358 144 l 331 124 l 304 90 b 276 64 300 86 283 69 l 200 13 b 161 -3 197 8 169 -3 l 121 -3 b 50 76 78 7 54 42 l 42 139 l 51 151 b 119 231 75 201 119 221 l 150 253 l 172 274 b 215 282 181 278 196 282 l 215 263 b 196 207 213 257 196 211 l 196 189 l 201 169 l 201 171 b 253 138 210 144 219 138 b 344 238 315 138 333 203 l 349 244 b 324 311 349 250 331 311 l 297 311 b 282 303 296 311 285 304 l 261 303 l 232 296 l 232 318 b 303 385 254 324 296 374 l 303 417 b 282 483 303 425 285 478 l 251 563 l 253 561 l 226 607 b 211 654 214 621 211 644 b 213 665 211 656 213 661 l 219 682 b 258 718 225 685 243 707 l 269 724 l 317 729 l 344 729 b 429 619 385 707 413 674 l 428 619 b 450 529 440 592 439 560 l 468 478 l 475 438 b 478 425 476 435 478 429 b 501 347 486 381 489 360 b 597 178 521 251 544 226 l 596 179 l 608 168 l 667 131 m 247 850 b 304 879 250 850 292 867 l 342 915 b 546 1086 410 981 475 1086 b 594 1054 560 1086 594 1086 b 589 1033 594 1049 593 1042 l 564 986 l 493 906 b 269 783 418 815 325 783 b 183 806 217 783 183 800 b 207 826 183 813 197 822 l 247 850 "},"Á":{"ha":1169,"x_min":0,"x_max":0,"o":"m 151 -33 b 188 57 172 -11 188 6 b 185 92 188 61 185 82 l 181 104 b 168 143 179 107 168 136 l 168 144 b 114 169 161 144 138 169 l 99 169 b 65 168 97 169 82 168 b 42 169 57 168 49 168 b 78 207 42 190 61 199 l 92 214 b 97 218 94 214 94 215 b 256 267 122 231 235 246 b 350 324 306 279 339 283 l 393 394 l 392 393 b 421 457 401 419 400 403 b 453 557 422 465 453 544 l 453 558 b 485 631 458 581 479 607 l 532 729 l 531 729 l 536 746 b 540 758 540 754 540 756 b 539 771 540 761 539 768 b 547 801 539 771 543 790 l 547 803 b 540 822 544 807 542 817 l 517 856 b 503 872 513 858 507 865 l 494 881 b 486 890 492 882 490 886 l 475 899 b 449 908 469 899 449 908 l 440 908 b 392 899 431 908 410 899 l 307 899 b 275 904 307 901 288 904 l 263 915 l 263 926 b 283 944 265 931 278 942 l 292 949 l 338 949 b 393 943 354 949 369 943 l 400 943 b 414 947 403 943 410 946 l 413 946 b 421 949 418 949 418 949 b 475 963 460 949 467 954 b 565 971 479 967 483 971 l 581 971 b 610 976 590 971 607 975 b 661 1008 608 979 643 990 l 669 1010 b 706 968 690 1010 674 968 l 707 951 b 725 896 707 942 725 907 l 736 875 l 750 826 b 801 715 760 824 782 769 b 982 285 869 529 890 513 b 985 278 982 282 983 279 l 985 281 b 992 253 990 271 992 263 b 1008 203 992 233 1008 221 l 1063 121 b 1068 106 1063 119 1065 108 l 1074 97 b 1088 71 1078 89 1085 81 b 1085 72 1088 71 1086 72 l 1085 71 b 1101 56 1085 63 1088 56 l 1113 50 b 1128 36 1119 46 1128 39 b 1119 22 1128 35 1125 31 l 1104 15 b 1032 7 1068 15 1050 11 l 1033 7 b 944 -12 1018 1 953 3 l 932 -19 b 878 -79 914 -37 888 -79 b 864 -74 874 -79 869 -78 b 867 -61 864 -69 864 -64 l 867 -35 b 869 -8 867 -29 869 -14 l 869 1 b 831 153 864 53 863 69 l 819 182 b 776 290 814 190 796 257 l 754 356 b 746 388 750 364 747 381 l 739 406 l 722 421 l 724 421 b 715 426 721 422 718 424 b 697 394 713 410 706 403 l 682 375 b 646 311 679 347 646 326 b 647 289 646 306 647 296 l 642 257 b 632 224 642 243 632 224 l 632 225 l 624 213 b 613 199 622 206 617 203 b 614 193 614 199 614 196 l 599 193 b 565 296 581 193 574 269 l 560 303 b 550 313 558 304 553 308 l 542 324 l 543 324 l 506 357 l 506 356 l 461 382 b 447 388 458 382 450 386 l 436 388 b 421 360 435 386 422 381 b 381 276 421 360 381 308 l 372 260 b 360 225 365 246 360 235 l 349 208 b 243 15 343 183 317 97 l 206 -19 l 142 -86 b 140 -65 142 -67 140 -65 l 140 -43 m 646 386 b 669 410 650 389 660 399 l 708 443 b 721 460 711 447 721 451 l 721 468 b 585 732 708 494 610 732 b 560 685 581 732 564 732 l 542 664 l 538 650 l 519 621 l 499 564 l 494 532 b 479 492 494 524 479 501 l 479 485 b 526 440 485 479 489 456 l 539 433 l 615 360 l 617 361 b 618 364 617 363 617 363 l 646 386 m 471 1083 b 528 1113 474 1083 515 1100 l 565 1149 b 769 1319 633 1214 699 1319 b 818 1288 783 1319 818 1319 b 813 1267 818 1282 817 1275 l 788 1219 l 717 1139 b 493 1017 642 1049 549 1017 b 407 1039 440 1017 407 1033 b 431 1060 407 1046 421 1056 l 471 1083 "},"ä":{"ha":779,"x_min":0,"x_max":0,"o":"m 667 131 b 738 63 676 128 738 94 b 581 17 738 35 657 17 b 492 33 536 17 525 21 b 483 36 489 33 485 36 l 471 42 l 415 97 l 415 96 b 372 153 392 117 379 142 l 369 153 b 354 142 368 153 358 144 l 331 124 l 304 90 b 276 64 300 86 283 69 l 200 13 b 161 -3 197 8 169 -3 l 121 -3 b 50 76 78 7 54 42 l 42 139 l 51 151 b 119 231 75 201 119 221 l 150 253 l 172 274 b 215 282 181 278 196 282 l 215 263 b 196 207 213 257 196 211 l 196 189 l 201 169 l 201 171 b 253 138 210 144 219 138 b 344 238 315 138 333 203 l 349 244 b 324 311 349 250 331 311 l 297 311 b 282 303 296 311 285 304 l 261 303 l 232 296 l 232 318 b 303 385 254 324 296 374 l 303 417 b 282 483 303 425 285 478 l 251 563 l 253 561 l 226 607 b 211 654 214 621 211 644 b 213 665 211 656 213 661 l 219 682 b 258 718 225 685 243 707 l 269 724 l 317 729 l 344 729 b 429 619 385 707 413 674 l 428 619 b 450 529 440 592 439 560 l 468 478 l 475 438 b 478 425 476 435 478 429 b 501 347 486 381 489 360 b 597 178 521 251 544 226 l 596 179 l 608 168 l 667 131 m 444 778 b 338 922 394 776 353 799 l 338 939 b 438 999 365 990 415 999 l 443 999 b 511 890 508 997 511 957 b 454 778 511 844 513 778 l 444 778 m 186 774 b 72 918 132 775 89 789 l 74 935 b 178 996 104 989 158 996 b 246 894 242 996 246 954 b 189 774 246 849 251 774 l 186 774 "},"Ä":{"ha":1169,"x_min":0,"x_max":0,"o":"m 151 -33 b 188 57 172 -11 188 6 b 185 92 188 61 185 82 l 181 104 b 168 143 179 107 168 136 l 168 144 b 114 169 161 144 138 169 l 99 169 b 65 168 97 169 82 168 b 42 169 57 168 49 168 b 78 207 42 190 61 199 l 92 214 b 97 218 94 214 94 215 b 256 267 122 231 235 246 b 350 324 306 279 339 283 l 393 394 l 392 393 b 421 457 401 419 400 403 b 453 557 422 465 453 544 l 453 558 b 485 631 458 581 479 607 l 532 729 l 531 729 l 536 746 b 540 758 540 754 540 756 b 539 771 540 761 539 768 b 547 801 539 771 543 790 l 547 803 b 540 822 544 807 542 817 l 517 856 b 503 872 513 858 507 865 l 494 881 b 486 890 492 882 490 886 l 475 899 b 449 908 469 899 449 908 l 440 908 b 392 899 431 908 410 899 l 307 899 b 275 904 307 901 288 904 l 263 915 l 263 926 b 283 944 265 931 278 942 l 292 949 l 338 949 b 393 943 354 949 369 943 l 400 943 b 414 947 403 943 410 946 l 413 946 b 421 949 418 949 418 949 b 475 963 460 949 467 954 b 565 971 479 967 483 971 l 581 971 b 610 976 590 971 607 975 b 661 1008 608 979 643 990 l 669 1010 b 706 968 690 1010 674 968 l 707 951 b 725 896 707 942 725 907 l 736 875 l 750 826 b 801 715 760 824 782 769 b 982 285 869 529 890 513 b 985 278 982 282 983 279 l 985 281 b 992 253 990 271 992 263 b 1008 203 992 233 1008 221 l 1063 121 b 1068 106 1063 119 1065 108 l 1074 97 b 1088 71 1078 89 1085 81 b 1085 72 1088 71 1086 72 l 1085 71 b 1101 56 1085 63 1088 56 l 1113 50 b 1128 36 1119 46 1128 39 b 1119 22 1128 35 1125 31 l 1104 15 b 1032 7 1068 15 1050 11 l 1033 7 b 944 -12 1018 1 953 3 l 932 -19 b 878 -79 914 -37 888 -79 b 864 -74 874 -79 869 -78 b 867 -61 864 -69 864 -64 l 867 -35 b 869 -8 867 -29 869 -14 l 869 1 b 831 153 864 53 863 69 l 819 182 b 776 290 814 190 796 257 l 754 356 b 746 388 750 364 747 381 l 739 406 l 722 421 l 724 421 b 715 426 721 422 718 424 b 697 394 713 410 706 403 l 682 375 b 646 311 679 347 646 326 b 647 289 646 306 647 296 l 642 257 b 632 224 642 243 632 224 l 632 225 l 624 213 b 613 199 622 206 617 203 b 614 193 614 199 614 196 l 599 193 b 565 296 581 193 574 269 l 560 303 b 550 313 558 304 553 308 l 542 324 l 543 324 l 506 357 l 506 356 l 461 382 b 447 388 458 382 450 386 l 436 388 b 421 360 435 386 422 381 b 381 276 421 360 381 308 l 372 260 b 360 225 365 246 360 235 l 349 208 b 243 15 343 183 317 97 l 206 -19 l 142 -86 b 140 -65 142 -67 140 -65 l 140 -43 m 646 386 b 669 410 650 389 660 399 l 708 443 b 721 460 711 447 721 451 l 721 468 b 585 732 708 494 610 732 b 560 685 581 732 564 732 l 542 664 l 538 650 l 519 621 l 499 564 l 494 532 b 479 492 494 524 479 501 l 479 485 b 526 440 485 479 489 456 l 539 433 l 615 360 l 617 361 b 618 364 617 363 617 363 l 646 386 m 688 1056 b 581 1200 638 1054 596 1076 l 581 1217 b 681 1276 608 1268 658 1276 l 686 1276 b 754 1168 751 1275 754 1235 b 697 1056 754 1122 756 1056 l 688 1056 m 429 1051 b 315 1196 375 1053 332 1067 l 317 1213 b 421 1274 347 1267 401 1274 b 489 1172 485 1274 489 1232 b 432 1051 489 1126 494 1051 l 429 1051 "},"Ø":{"ha":1042,"x_min":0,"x_max":0,"o":"m 411 8 b 392 13 404 8 399 10 b 376 -22 385 0 385 -6 l 369 -35 b 361 -49 364 -39 364 -44 l 349 -49 l 336 -62 b 253 -90 321 -72 271 -87 l 214 -90 b 114 -69 188 -90 167 -75 l 111 -61 b 106 -31 111 -53 106 -40 b 124 -11 106 -15 114 -12 l 135 -11 b 142 -10 135 -11 139 -11 l 169 -8 b 188 -1 171 -8 186 -3 l 208 8 b 232 25 213 10 229 24 l 272 74 l 257 86 b 206 135 242 99 218 119 l 179 169 l 182 168 l 169 178 b 125 257 164 182 128 236 b 76 351 121 257 81 321 l 63 388 b 42 488 63 393 42 415 l 42 536 b 83 661 42 558 54 632 l 83 663 b 136 765 83 663 118 754 l 189 825 b 275 872 203 825 243 858 l 275 871 b 338 915 299 882 321 892 l 350 933 l 436 967 b 571 985 457 975 508 981 b 603 979 578 985 590 982 l 611 1001 b 783 1081 617 1074 703 1081 l 839 1081 b 822 1057 839 1068 825 1061 l 801 1032 l 801 1036 b 750 922 799 1036 771 969 l 781 901 l 779 901 b 783 900 781 900 782 900 l 847 856 l 889 814 l 897 801 b 986 626 944 768 986 639 b 997 558 986 607 994 565 l 1000 507 b 972 378 1001 475 971 404 l 972 379 b 925 243 971 379 963 271 l 908 231 l 889 208 b 818 147 858 174 831 153 l 800 129 b 707 64 761 90 732 93 l 665 44 b 633 35 657 40 643 36 l 619 31 b 615 25 618 31 615 28 l 525 7 l 526 7 b 478 0 513 3 499 0 b 432 6 454 0 442 3 l 433 6 b 411 8 426 7 419 8 m 619 579 b 453 147 569 429 517 289 b 533 136 471 136 510 143 b 551 139 538 138 546 139 l 589 139 b 653 154 608 139 619 150 l 668 158 l 667 157 b 713 178 700 178 699 168 l 753 210 b 789 254 781 236 789 243 l 808 293 b 817 342 808 301 813 325 l 836 444 l 831 457 b 825 485 828 465 825 474 l 825 496 b 819 525 822 504 819 517 l 821 574 b 810 603 821 593 810 586 l 804 614 b 786 650 799 618 794 633 b 742 708 778 667 750 692 l 699 751 b 676 764 692 754 685 758 l 669 708 b 654 654 669 704 654 656 l 619 579 m 279 335 b 288 308 286 326 288 318 b 347 221 321 264 336 236 b 439 467 411 382 408 392 b 557 836 467 556 525 721 l 550 839 b 483 851 526 839 503 851 l 471 851 b 411 836 449 851 432 842 l 413 838 b 379 821 397 829 385 822 l 369 821 l 349 810 b 321 794 343 806 329 797 b 200 608 242 746 203 675 l 200 544 b 258 374 200 481 244 432 l 279 335 "},"ø":{"ha":838,"x_min":0,"x_max":0,"o":"m 42 340 b 174 592 42 431 103 533 l 238 626 l 282 657 b 292 661 285 658 292 660 l 342 692 b 489 726 382 717 451 726 b 494 725 490 726 492 726 b 499 756 497 738 499 749 l 517 781 b 526 800 519 783 524 792 b 692 867 532 861 615 867 l 747 867 b 731 847 747 857 733 851 l 711 826 l 711 829 b 638 693 708 829 644 694 b 636 696 636 693 636 694 b 619 668 632 686 626 678 l 653 661 b 744 572 685 658 694 607 b 796 421 744 546 789 489 l 796 353 l 789 314 b 650 99 772 225 671 147 l 636 86 l 610 74 b 536 26 599 69 557 29 l 476 11 b 463 7 471 10 461 7 l 464 7 b 371 -1 429 -1 418 -1 b 332 0 356 -1 343 -1 b 299 -64 319 -21 310 -40 l 292 -74 b 283 -86 286 -78 286 -82 l 272 -86 l 260 -97 b 179 -121 244 -106 196 -118 l 142 -121 b 44 -103 115 -121 96 -108 l 42 -96 b 36 -69 42 -89 36 -78 b 54 -54 36 -58 44 -56 l 64 -54 b 71 -53 64 -54 68 -54 l 99 -51 b 115 -46 100 -51 114 -47 l 136 -37 b 158 -24 140 -36 156 -25 l 215 36 b 217 39 215 36 217 38 l 199 57 b 75 206 124 126 113 168 l 57 247 b 42 340 42 290 42 290 m 203 471 b 208 444 203 468 208 444 l 208 446 l 217 400 b 236 343 218 390 233 350 l 235 344 l 272 274 b 306 219 282 254 303 243 l 306 218 b 444 574 353 338 388 415 b 358 613 410 594 374 613 b 346 607 354 608 350 607 b 324 608 340 607 333 608 b 221 525 303 608 272 597 l 208 506 b 206 496 208 503 207 499 l 206 497 b 203 483 204 492 203 486 l 203 471 m 535 444 b 403 139 494 339 451 239 l 433 126 b 475 114 440 121 471 114 l 565 114 b 604 168 574 119 588 133 l 603 167 l 615 200 l 622 208 l 621 207 b 639 286 633 233 639 244 b 636 324 639 297 638 322 b 597 404 632 339 597 390 l 589 421 b 554 482 581 436 568 460 l 535 444 "},"ß":{"ha":829,"x_min":0,"x_max":0,"o":"m 263 353 b 264 336 263 350 264 343 l 267 232 b 269 201 267 218 267 206 l 269 178 l 278 128 b 324 4 278 99 324 56 b 263 -69 324 -17 321 -50 b 63 -14 201 -69 63 -69 l 63 7 b 86 156 67 51 86 124 l 86 190 b 103 507 89 238 103 476 b 88 688 103 522 99 550 b 96 726 88 704 96 724 l 96 806 b 42 907 90 843 78 875 l 42 942 b 196 1011 67 990 157 1011 b 238 1003 215 1008 228 1006 l 249 999 b 257 996 250 999 253 996 l 339 975 l 389 944 l 428 933 l 447 933 b 507 944 456 933 499 944 l 568 944 b 639 957 585 944 599 957 b 710 918 668 957 706 942 l 650 829 l 650 831 b 632 794 642 819 639 807 l 631 792 b 610 733 622 763 615 742 l 578 679 l 578 681 b 556 631 565 668 556 636 b 636 589 556 590 603 624 l 681 563 b 769 460 681 563 769 499 b 774 439 771 453 771 446 l 778 418 b 788 328 778 400 788 393 b 778 253 788 303 778 279 l 771 222 l 771 224 b 631 33 732 119 693 33 b 599 63 618 33 611 33 l 610 113 b 617 136 610 122 613 129 l 617 135 l 621 140 b 626 161 624 146 626 154 b 617 190 626 167 621 181 l 618 190 l 600 228 b 451 431 557 317 519 368 l 424 456 l 390 467 b 374 478 386 467 379 472 l 374 489 b 392 535 381 513 388 526 l 403 553 l 431 565 l 429 565 b 447 579 438 568 444 572 l 474 599 l 500 633 l 525 700 l 524 700 l 550 757 l 550 772 b 447 869 531 864 513 863 l 386 869 b 278 758 289 853 278 842 l 278 564 b 263 421 278 551 263 486 l 263 353 "},"?":{"ha":763,"x_min":0,"x_max":0,"o":"m 374 188 b 363 210 371 190 363 204 l 361 208 b 360 225 360 210 360 217 b 364 288 360 244 361 276 l 365 307 b 367 339 367 318 365 328 l 403 376 b 426 400 408 383 419 394 l 442 415 l 440 415 b 463 439 450 425 460 439 l 463 438 b 511 503 476 456 511 501 l 521 692 b 478 767 521 699 490 751 b 401 826 475 772 422 813 l 378 842 b 369 844 376 842 372 843 l 371 844 b 349 853 368 846 349 853 l 340 853 b 299 854 328 853 308 854 l 275 854 b 249 853 263 854 253 853 l 244 847 b 193 779 240 842 193 789 l 188 656 l 196 642 l 206 635 b 213 631 207 633 211 631 l 250 613 b 368 567 246 608 368 585 l 367 536 b 310 475 363 532 332 496 l 293 463 b 238 435 269 450 242 435 l 233 435 b 222 433 229 435 224 433 l 213 433 b 199 435 208 433 200 435 l 131 489 b 86 536 122 494 94 526 l 54 581 b 42 611 49 588 42 607 l 42 644 b 44 667 42 649 44 661 l 44 674 b 75 733 46 679 72 726 l 79 757 b 138 857 82 764 100 819 l 158 878 l 157 878 l 172 892 b 182 900 175 893 182 899 l 225 922 b 233 925 226 922 229 924 l 329 956 l 329 954 b 401 974 346 961 397 974 l 408 974 b 421 975 413 974 419 975 b 499 954 426 975 479 969 l 497 954 l 593 900 b 600 893 593 899 599 893 b 690 772 657 831 664 817 l 690 771 b 719 683 690 763 707 739 l 719 678 b 721 656 719 671 721 660 b 718 636 719 651 718 642 l 717 626 b 693 561 715 621 696 565 l 683 533 b 565 392 661 471 633 450 l 447 299 l 451 281 l 450 281 l 456 246 b 488 218 465 242 485 221 l 496 206 b 499 196 496 206 499 200 b 493 186 497 192 496 188 l 489 185 b 483 179 488 182 485 179 l 482 178 b 442 167 478 174 464 167 b 374 188 425 167 401 172 m 349 42 b 453 139 351 88 361 124 l 464 139 b 503 53 500 114 503 68 b 410 -6 500 -10 464 -6 b 349 39 381 -6 349 -3 l 349 42 "},"!":{"ha":325,"x_min":0,"x_max":0,"o":"m 64 299 b 76 829 76 465 76 631 b 65 864 76 833 65 864 l 65 868 b 64 874 65 868 64 871 l 63 878 b 50 900 63 883 50 896 l 50 906 b 46 924 50 907 46 922 b 90 965 46 956 67 933 b 132 961 108 961 121 961 b 219 969 160 961 169 969 l 235 969 b 260 963 242 969 249 963 b 251 956 260 961 253 956 l 249 956 l 250 954 l 238 947 l 238 932 b 228 867 238 904 228 897 b 208 772 228 853 208 796 b 229 313 208 693 229 417 l 229 308 b 232 301 231 307 232 301 l 232 283 b 251 244 232 279 251 249 l 251 233 b 283 213 257 218 283 224 b 278 199 283 208 278 203 b 279 196 279 197 279 196 b 275 194 279 194 278 194 b 192 213 258 194 201 208 l 188 213 b 107 190 178 203 125 200 l 71 190 b 42 207 50 190 42 192 b 64 299 42 221 50 249 m 57 51 b 178 153 57 99 67 136 l 192 153 b 246 63 240 126 246 78 b 151 1 246 4 211 1 l 135 1 b 57 51 99 1 57 6 "},"‹":{"ha":551,"x_min":0,"x_max":0,"o":"m 307 158 b 194 281 264 199 231 240 b 64 403 160 318 128 393 b 42 421 60 407 42 407 b 157 479 42 439 138 442 b 171 492 158 483 167 488 l 181 501 l 181 500 l 228 551 l 225 549 b 288 628 232 565 264 594 l 311 661 b 431 717 351 692 399 714 b 482 633 456 714 456 686 l 463 624 l 436 600 b 250 407 428 593 354 499 b 288 360 257 386 272 374 l 326 314 l 325 315 l 381 253 b 410 236 388 246 400 239 l 429 226 l 447 222 l 467 222 b 510 182 490 222 510 207 b 500 154 510 178 506 160 l 497 149 b 456 133 492 136 476 133 b 368 138 433 133 396 133 b 347 140 350 140 347 140 l 342 143 b 331 144 340 143 333 144 "},"›":{"ha":551,"x_min":0,"x_max":0,"o":"m 221 144 b 210 143 218 144 211 143 l 204 140 b 94 133 204 138 125 133 b 54 149 74 133 60 136 l 51 154 b 42 182 46 160 42 178 b 85 222 42 207 61 222 l 104 222 l 142 236 b 171 253 151 239 164 246 l 226 315 l 225 314 l 264 360 b 301 407 276 375 292 388 b 115 600 197 499 124 593 l 89 624 l 69 633 b 121 717 96 686 96 714 b 240 661 153 714 200 692 l 264 628 b 326 549 288 594 319 565 l 324 551 l 371 500 l 371 501 l 381 492 b 394 479 385 488 393 483 b 510 421 414 442 510 439 b 488 403 510 407 492 407 b 357 281 422 393 392 318 b 244 158 319 240 286 199 "},"=":{"ha":943,"x_min":0,"x_max":0,"o":"m 836 772 b 843 753 840 767 843 760 b 653 553 843 697 721 601 b 421 469 581 483 479 488 b 333 447 378 456 360 450 l 257 403 b 197 357 233 389 219 356 l 176 315 b 175 281 176 303 175 292 b 182 239 175 276 181 246 l 174 218 b 108 188 158 194 136 188 b 63 199 96 188 81 190 l 44 225 l 42 247 l 46 278 b 386 568 124 426 263 478 l 426 589 b 650 631 561 631 607 617 l 646 631 b 717 711 668 643 708 683 l 724 736 l 743 775 b 786 813 751 782 768 806 l 786 811 l 804 815 b 836 771 822 811 831 800 l 836 772 m 894 533 b 901 514 899 528 901 521 b 711 314 901 458 779 363 b 479 231 639 244 538 249 b 392 208 436 217 418 211 l 315 164 b 256 118 292 150 278 117 l 235 76 b 233 42 235 64 233 53 b 240 0 233 38 239 7 l 232 -21 b 167 -51 215 -42 196 -51 b 121 -40 154 -51 139 -49 l 103 -14 l 100 8 l 104 39 b 444 329 182 188 321 239 l 485 350 b 708 392 619 392 665 378 l 704 392 b 775 472 726 404 767 444 l 782 497 l 801 536 b 844 574 810 543 826 567 l 844 572 l 863 576 b 894 532 881 572 889 561 l 894 533 "},"È":{"ha":1051,"x_min":0,"x_max":0,"o":"m 847 -61 b 850 -18 847 -47 847 -32 b 831 3 840 -15 831 -11 l 832 11 b 767 38 801 26 772 38 l 733 39 b 660 19 722 15 692 29 l 635 11 l 636 11 l 596 -1 b 571 -4 592 -3 579 -4 l 508 -10 b 503 -11 507 -10 504 -10 l 504 -11 b 490 -12 500 -12 492 -12 b 438 -7 478 -12 451 -7 l 411 -7 l 369 3 b 356 6 365 4 360 6 l 321 19 l 286 40 b 260 63 282 42 263 58 l 238 97 b 68 304 174 139 110 175 l 56 386 b 46 467 53 404 46 456 l 46 507 b 47 513 46 507 46 508 b 42 572 47 529 42 554 b 51 625 42 579 43 593 b 82 732 58 656 69 669 l 150 842 l 199 890 l 214 910 b 242 936 222 919 236 932 l 242 935 l 254 949 b 281 961 260 949 269 954 l 321 982 b 360 1000 338 990 350 1000 l 417 1008 b 460 982 436 1008 449 994 l 458 982 b 469 972 464 976 468 972 l 561 971 b 581 969 567 971 572 969 b 622 971 593 969 608 971 l 707 971 l 739 964 b 756 958 739 964 751 958 l 788 958 b 792 957 789 958 790 957 b 821 963 806 957 810 963 l 857 961 b 885 965 861 961 864 965 b 926 938 897 965 926 956 l 926 932 b 914 904 926 918 914 910 l 929 839 l 944 821 b 947 794 944 817 947 800 l 956 768 l 954 769 l 961 760 l 961 761 l 989 729 l 1001 694 b 1010 668 1007 689 1010 686 b 982 625 1010 633 1004 631 l 961 622 l 936 633 b 928 643 936 635 932 640 l 917 669 l 918 668 b 911 676 917 671 913 674 l 911 675 l 878 718 b 872 733 876 722 872 729 l 814 793 b 788 807 808 796 797 803 l 738 832 l 724 836 b 629 863 711 839 664 856 l 611 871 l 613 871 l 590 886 l 576 889 b 553 883 571 886 554 883 l 506 885 l 493 890 l 449 892 b 408 893 435 892 421 893 b 351 871 378 893 368 886 l 344 865 l 344 867 b 294 807 326 849 313 825 l 269 782 b 260 767 267 775 264 771 l 247 697 l 242 689 l 242 681 b 233 649 242 667 233 664 l 233 640 b 235 633 233 638 235 635 b 233 617 235 624 233 617 l 263 617 l 283 621 l 392 613 l 433 613 b 547 617 467 613 513 617 l 724 613 b 850 622 744 613 821 619 l 864 629 b 883 639 872 629 881 636 l 932 638 b 942 600 932 606 942 613 l 946 592 l 944 513 b 933 488 944 507 939 493 l 924 472 l 908 458 l 900 457 l 879 461 b 865 485 872 465 865 474 l 868 481 b 864 493 868 482 865 489 l 854 496 b 831 507 847 496 835 507 b 765 526 810 522 789 521 b 633 522 735 526 640 522 l 601 518 l 247 518 b 224 504 235 518 226 513 b 226 499 224 503 226 499 b 232 504 226 501 228 504 l 239 450 b 243 403 239 446 242 413 l 243 404 l 253 381 b 294 286 265 349 282 306 l 311 271 l 308 271 b 351 203 328 251 347 238 l 356 199 l 356 200 l 413 132 l 489 96 l 488 97 l 514 88 b 579 74 544 76 558 74 l 599 74 b 622 76 601 74 613 75 l 621 76 b 636 78 624 78 632 78 l 683 92 l 706 101 b 710 104 707 101 708 103 l 726 121 b 765 146 732 129 764 146 b 822 185 817 146 819 165 l 832 217 l 879 289 b 932 304 896 289 899 304 l 928 178 l 917 138 b 924 86 917 131 919 114 l 924 74 b 911 3 924 51 911 32 l 904 -33 b 896 -49 904 -33 897 -46 l 881 -65 b 876 -67 879 -65 878 -67 b 854 -69 868 -69 854 -69 m 494 1242 b 488 1274 493 1250 489 1272 b 404 1343 478 1285 421 1343 l 396 1344 b 281 1331 363 1344 322 1331 l 253 1333 b 207 1340 243 1333 211 1339 l 181 1356 l 160 1376 b 154 1397 158 1378 156 1393 l 153 1417 l 221 1472 l 254 1490 b 286 1501 258 1494 279 1501 l 294 1501 b 285 1475 294 1497 290 1475 l 296 1449 l 304 1439 b 378 1424 324 1438 354 1425 l 413 1422 b 469 1431 429 1422 450 1431 l 511 1443 l 547 1435 l 599 1403 b 633 1376 599 1403 624 1386 l 639 1369 b 665 1315 646 1361 663 1321 l 663 1303 b 651 1292 663 1301 651 1293 b 657 1268 651 1282 657 1279 l 657 1258 b 604 1163 657 1246 626 1190 l 604 1164 b 567 1101 600 1164 579 1100 l 493 1058 b 443 1038 461 1043 461 1038 b 438 1039 440 1038 439 1039 l 438 1053 b 453 1088 442 1060 451 1082 b 494 1183 453 1096 494 1129 l 494 1242 "},"É":{"ha":1051,"x_min":0,"x_max":0,"o":"m 847 -61 b 850 -18 847 -47 847 -32 b 831 3 840 -15 831 -11 l 832 11 b 767 38 801 26 772 38 l 733 39 b 660 19 722 15 692 29 l 635 11 l 636 11 l 596 -1 b 571 -4 592 -3 579 -4 l 508 -10 b 503 -11 507 -10 504 -10 l 504 -11 b 490 -12 500 -12 492 -12 b 438 -7 478 -12 451 -7 l 411 -7 l 369 3 b 356 6 365 4 360 6 l 321 19 l 286 40 b 260 63 282 42 263 58 l 238 97 b 68 304 174 139 110 175 l 56 386 b 46 467 53 404 46 456 l 46 507 b 47 513 46 507 46 508 b 42 572 47 529 42 554 b 51 625 42 579 43 593 b 82 732 58 656 69 669 l 150 842 l 199 890 l 214 910 b 242 936 222 919 236 932 l 242 935 l 254 949 b 281 961 260 949 269 954 l 321 982 b 360 1000 338 990 350 1000 l 417 1008 b 460 982 436 1008 449 994 l 458 982 b 469 972 464 976 468 972 l 561 971 b 581 969 567 971 572 969 b 622 971 593 969 608 971 l 707 971 l 739 964 b 756 958 739 964 751 958 l 788 958 b 792 957 789 958 790 957 b 821 963 806 957 810 963 l 857 961 b 885 965 861 961 864 965 b 926 938 897 965 926 956 l 926 932 b 914 904 926 918 914 910 l 929 839 l 944 821 b 947 794 944 817 947 800 l 956 768 l 954 769 l 961 760 l 961 761 l 989 729 l 1001 694 b 1010 668 1007 689 1010 686 b 982 625 1010 633 1004 631 l 961 622 l 936 633 b 928 643 936 635 932 640 l 917 669 l 918 668 b 911 676 917 671 913 674 l 911 675 l 878 718 b 872 733 876 722 872 729 l 814 793 b 788 807 808 796 797 803 l 738 832 l 724 836 b 629 863 711 839 664 856 l 611 871 l 613 871 l 590 886 l 576 889 b 553 883 571 886 554 883 l 506 885 l 493 890 l 449 892 b 408 893 435 892 421 893 b 351 871 378 893 368 886 l 344 865 l 344 867 b 294 807 326 849 313 825 l 269 782 b 260 767 267 775 264 771 l 247 697 l 242 689 l 242 681 b 233 649 242 667 233 664 l 233 640 b 235 633 233 638 235 635 b 233 617 235 624 233 617 l 263 617 l 283 621 l 392 613 l 433 613 b 547 617 467 613 513 617 l 724 613 b 850 622 744 613 821 619 l 864 629 b 883 639 872 629 881 636 l 932 638 b 942 600 932 606 942 613 l 946 592 l 944 513 b 933 488 944 507 939 493 l 924 472 l 908 458 l 900 457 l 879 461 b 865 485 872 465 865 474 l 868 481 b 864 493 868 482 865 489 l 854 496 b 831 507 847 496 835 507 b 765 526 810 522 789 521 b 633 522 735 526 640 522 l 601 518 l 247 518 b 224 504 235 518 226 513 b 226 499 224 503 226 499 b 232 504 226 501 228 504 l 239 450 b 243 403 239 446 242 413 l 243 404 l 253 381 b 294 286 265 349 282 306 l 311 271 l 308 271 b 351 203 328 251 347 238 l 356 199 l 356 200 l 413 132 l 489 96 l 488 97 l 514 88 b 579 74 544 76 558 74 l 599 74 b 622 76 601 74 613 75 l 621 76 b 636 78 624 78 632 78 l 683 92 l 706 101 b 710 104 707 101 708 103 l 726 121 b 765 146 732 129 764 146 b 822 185 817 146 819 165 l 832 217 l 879 289 b 932 304 896 289 899 304 l 928 178 l 917 138 b 924 86 917 131 919 114 l 924 74 b 911 3 924 51 911 32 l 904 -33 b 896 -49 904 -33 897 -46 l 881 -65 b 876 -67 879 -65 878 -67 b 854 -69 868 -69 854 -69 m 453 1125 b 510 1154 456 1125 497 1142 l 547 1190 b 751 1361 615 1256 681 1361 b 800 1329 765 1361 800 1361 b 794 1308 800 1324 799 1317 l 769 1261 l 699 1181 b 475 1058 624 1090 531 1058 b 389 1081 422 1058 389 1075 b 413 1101 389 1088 403 1097 l 453 1125 "},"Ë":{"ha":1051,"x_min":0,"x_max":0,"o":"m 847 -61 b 850 -18 847 -47 847 -32 b 831 3 840 -15 831 -11 l 832 11 b 767 38 801 26 772 38 l 733 39 b 660 19 722 15 692 29 l 635 11 l 636 11 l 596 -1 b 571 -4 592 -3 579 -4 l 508 -10 b 503 -11 507 -10 504 -10 l 504 -11 b 490 -12 500 -12 492 -12 b 438 -7 478 -12 451 -7 l 411 -7 l 369 3 b 356 6 365 4 360 6 l 321 19 l 286 40 b 260 63 282 42 263 58 l 238 97 b 68 304 174 139 110 175 l 56 386 b 46 467 53 404 46 456 l 46 507 b 47 513 46 507 46 508 b 42 572 47 529 42 554 b 51 625 42 579 43 593 b 82 732 58 656 69 669 l 150 842 l 199 890 l 214 910 b 242 936 222 919 236 932 l 242 935 l 254 949 b 281 961 260 949 269 954 l 321 982 b 360 1000 338 990 350 1000 l 417 1008 b 460 982 436 1008 449 994 l 458 982 b 469 972 464 976 468 972 l 561 971 b 581 969 567 971 572 969 b 622 971 593 969 608 971 l 707 971 l 739 964 b 756 958 739 964 751 958 l 788 958 b 792 957 789 958 790 957 b 821 963 806 957 810 963 l 857 961 b 885 965 861 961 864 965 b 926 938 897 965 926 956 l 926 932 b 914 904 926 918 914 910 l 929 839 l 944 821 b 947 794 944 817 947 800 l 956 768 l 954 769 l 961 760 l 961 761 l 989 729 l 1001 694 b 1010 668 1007 689 1010 686 b 982 625 1010 633 1004 631 l 961 622 l 936 633 b 928 643 936 635 932 640 l 917 669 l 918 668 b 911 676 917 671 913 674 l 911 675 l 878 718 b 872 733 876 722 872 729 l 814 793 b 788 807 808 796 797 803 l 738 832 l 724 836 b 629 863 711 839 664 856 l 611 871 l 613 871 l 590 886 l 576 889 b 553 883 571 886 554 883 l 506 885 l 493 890 l 449 892 b 408 893 435 892 421 893 b 351 871 378 893 368 886 l 344 865 l 344 867 b 294 807 326 849 313 825 l 269 782 b 260 767 267 775 264 771 l 247 697 l 242 689 l 242 681 b 233 649 242 667 233 664 l 233 640 b 235 633 233 638 235 635 b 233 617 235 624 233 617 l 263 617 l 283 621 l 392 613 l 433 613 b 547 617 467 613 513 617 l 724 613 b 850 622 744 613 821 619 l 864 629 b 883 639 872 629 881 636 l 932 638 b 942 600 932 606 942 613 l 946 592 l 944 513 b 933 488 944 507 939 493 l 924 472 l 908 458 l 900 457 l 879 461 b 865 485 872 465 865 474 l 868 481 b 864 493 868 482 865 489 l 854 496 b 831 507 847 496 835 507 b 765 526 810 522 789 521 b 633 522 735 526 640 522 l 601 518 l 247 518 b 224 504 235 518 226 513 b 226 499 224 503 226 499 b 232 504 226 501 228 504 l 239 450 b 243 403 239 446 242 413 l 243 404 l 253 381 b 294 286 265 349 282 306 l 311 271 l 308 271 b 351 203 328 251 347 238 l 356 199 l 356 200 l 413 132 l 489 96 l 488 97 l 514 88 b 579 74 544 76 558 74 l 599 74 b 622 76 601 74 613 75 l 621 76 b 636 78 624 78 632 78 l 683 92 l 706 101 b 710 104 707 101 708 103 l 726 121 b 765 146 732 129 764 146 b 822 185 817 146 819 165 l 832 217 l 879 289 b 932 304 896 289 899 304 l 928 178 l 917 138 b 924 86 917 131 919 114 l 924 74 b 911 3 924 51 911 32 l 904 -33 b 896 -49 904 -33 897 -46 l 881 -65 b 876 -67 879 -65 878 -67 b 854 -69 868 -69 854 -69 m 682 1058 b 575 1203 632 1057 590 1079 l 575 1219 b 675 1279 603 1271 653 1279 l 681 1279 b 749 1171 746 1278 749 1238 b 692 1058 749 1125 750 1058 l 682 1058 m 424 1054 b 310 1199 369 1056 326 1069 l 311 1215 b 415 1276 342 1269 396 1276 b 483 1175 479 1276 483 1235 b 426 1054 483 1129 489 1054 l 424 1054 "},"è":{"ha":858,"x_min":0,"x_max":0,"o":"m 450 933 b 443 965 449 942 444 964 b 360 1035 433 976 376 1035 l 351 1036 b 236 1022 318 1036 278 1022 l 208 1025 b 163 1032 199 1025 167 1031 l 136 1047 l 115 1068 b 110 1089 114 1069 111 1085 l 108 1108 l 176 1164 l 210 1182 b 242 1193 214 1186 235 1193 l 250 1193 b 240 1167 250 1189 246 1167 l 251 1140 l 260 1131 b 333 1115 279 1129 310 1117 l 368 1114 b 425 1122 385 1114 406 1122 l 467 1135 l 503 1126 l 554 1094 b 589 1068 554 1094 579 1078 l 594 1061 b 621 1007 601 1053 618 1013 l 618 994 b 607 983 618 993 607 985 b 613 960 607 974 613 971 l 613 950 b 560 854 613 938 582 882 l 560 856 b 522 793 556 856 535 792 l 438 744 b 547 731 478 740 524 731 b 817 506 576 731 817 664 b 665 386 817 400 679 386 l 436 386 b 310 396 386 386 361 396 b 222 379 264 396 232 393 b 251 311 224 358 238 311 l 258 275 b 282 249 265 263 272 258 l 328 208 l 326 208 b 396 160 376 179 393 160 l 428 150 b 475 132 444 144 464 140 l 594 111 l 607 111 l 628 118 b 656 124 632 118 649 122 l 703 132 b 717 133 707 132 714 133 b 744 117 736 133 739 131 l 744 100 b 717 81 742 94 724 82 l 658 65 b 574 29 638 60 618 44 l 517 8 b 493 1 511 7 494 1 l 436 1 b 385 8 432 1 393 7 l 329 17 b 318 19 325 17 321 18 l 319 19 b 306 22 314 21 311 22 l 289 31 b 267 42 279 40 274 42 l 256 42 b 242 40 251 42 247 40 b 144 110 222 40 194 50 l 107 161 b 43 294 75 204 44 257 l 43 304 l 57 329 b 42 400 43 344 42 375 b 57 485 42 429 42 436 l 57 483 b 101 579 63 511 76 550 b 214 681 126 608 201 676 l 213 681 l 242 689 l 240 688 l 283 718 b 408 779 336 747 396 729 b 450 875 408 788 450 821 l 450 933 m 246 496 l 251 496 b 350 490 272 494 328 490 l 429 490 b 628 472 533 490 581 472 b 715 483 665 472 715 475 b 703 496 715 492 710 492 l 704 494 b 671 518 693 499 681 506 b 575 581 635 572 621 546 l 574 582 b 567 608 568 585 567 607 l 553 614 b 444 644 531 625 486 644 l 419 644 l 411 653 b 369 681 397 665 389 671 l 333 660 l 310 653 l 274 629 l 264 611 l 244 592 l 246 592 b 236 581 240 585 236 581 l 236 500 "},"é":{"ha":858,"x_min":0,"x_max":0,"o":"m 57 329 b 42 400 43 344 42 375 b 57 485 42 429 42 436 l 57 483 b 101 579 63 511 76 550 b 214 681 126 608 201 676 l 213 681 l 242 689 l 240 688 l 283 718 b 403 747 319 738 390 747 b 547 731 447 747 517 731 b 817 506 576 731 817 664 b 665 386 817 400 679 386 l 436 386 b 310 396 386 386 361 396 b 222 379 264 396 232 393 b 251 311 224 358 238 311 l 258 275 b 282 249 265 263 272 258 l 328 208 l 326 208 b 396 160 376 179 393 160 l 428 150 b 475 132 444 144 464 140 l 594 111 l 607 111 l 628 118 b 656 124 632 118 649 122 l 703 132 b 717 133 707 132 714 133 b 744 117 736 133 739 131 l 744 100 b 717 81 742 94 724 82 l 658 65 b 574 29 638 60 618 44 l 517 8 b 493 1 511 7 494 1 l 436 1 b 385 8 432 1 393 7 l 329 17 b 318 19 325 17 321 18 l 319 19 b 306 22 314 21 311 22 l 289 31 b 267 42 279 40 274 42 l 256 42 b 242 40 251 42 247 40 b 144 110 222 40 194 50 l 107 161 b 43 294 75 204 44 257 l 43 304 m 246 496 l 251 496 b 350 490 272 494 328 490 l 429 490 b 628 472 533 490 581 472 b 715 483 665 472 715 475 b 703 496 715 492 710 492 l 704 494 b 671 518 693 499 681 506 b 575 581 635 572 621 546 l 574 582 b 567 608 568 585 567 607 l 553 614 b 444 644 531 625 486 644 l 419 644 l 411 653 b 369 681 397 665 389 671 l 333 660 l 310 653 l 274 629 l 264 611 l 244 592 l 246 592 b 236 581 240 585 236 581 l 236 500 m 288 850 b 344 879 290 850 332 867 l 382 915 b 586 1086 450 981 515 1086 b 635 1054 600 1086 635 1086 b 629 1033 635 1049 633 1042 l 604 986 l 533 906 b 310 783 458 815 365 783 b 224 806 257 783 224 800 b 246 826 224 813 238 822 l 288 850 "},"ë":{"ha":858,"x_min":0,"x_max":0,"o":"m 57 329 b 42 400 43 344 42 375 b 57 485 42 429 42 436 l 57 483 b 101 579 63 511 76 550 b 214 681 126 608 201 676 l 213 681 l 242 689 l 240 688 l 283 718 b 403 747 319 738 390 747 b 547 731 447 747 517 731 b 817 506 576 731 817 664 b 665 386 817 400 679 386 l 436 386 b 310 396 386 386 361 396 b 222 379 264 396 232 393 b 251 311 224 358 238 311 l 258 275 b 282 249 265 263 272 258 l 328 208 l 326 208 b 396 160 376 179 393 160 l 428 150 b 475 132 444 144 464 140 l 594 111 l 607 111 l 628 118 b 656 124 632 118 649 122 l 703 132 b 717 133 707 132 714 133 b 744 117 736 133 739 131 l 744 100 b 717 81 742 94 724 82 l 658 65 b 574 29 638 60 618 44 l 517 8 b 493 1 511 7 494 1 l 436 1 b 385 8 432 1 393 7 l 329 17 b 318 19 325 17 321 18 l 319 19 b 306 22 314 21 311 22 l 289 31 b 267 42 279 40 274 42 l 256 42 b 242 40 251 42 247 40 b 144 110 222 40 194 50 l 107 161 b 43 294 75 204 44 257 l 43 304 m 246 496 l 251 496 b 350 490 272 494 328 490 l 429 490 b 628 472 533 490 581 472 b 715 483 665 472 715 475 b 703 496 715 492 710 492 l 704 494 b 671 518 693 499 681 506 b 575 581 635 572 621 546 l 574 582 b 567 608 568 585 567 607 l 553 614 b 444 644 531 625 486 644 l 419 644 l 411 653 b 369 681 397 665 389 671 l 333 660 l 310 653 l 274 629 l 264 611 l 244 592 l 246 592 b 236 581 240 585 236 581 l 236 500 m 572 806 b 465 950 522 804 481 826 l 465 967 b 565 1026 493 1018 543 1026 l 571 1026 b 639 918 636 1025 639 985 b 582 806 639 872 640 806 l 572 806 m 314 801 b 200 946 260 803 217 817 l 201 963 b 306 1024 232 1017 286 1024 b 374 922 369 1024 374 982 b 317 801 374 876 379 801 l 314 801 "},"Ì":{"ha":386,"x_min":0,"x_max":0,"o":"m 44 -11 l 44 3 l 54 22 l 58 22 l 58 15 b 61 13 58 15 61 14 l 67 3 l 67 -6 b 81 -10 68 -6 79 -8 l 85 -10 b 93 8 88 -10 88 4 l 79 29 b 81 32 79 31 81 32 l 79 35 b 74 43 78 38 74 40 l 74 64 b 99 129 74 97 99 100 b 113 794 113 339 113 544 b 100 838 113 799 101 838 b 101 843 100 839 101 840 b 99 849 101 843 99 846 l 97 854 b 83 883 97 861 83 878 l 83 890 b 79 913 83 892 79 911 b 129 964 79 951 103 925 l 142 974 b 147 986 144 979 147 982 b 168 985 154 986 161 986 l 171 982 b 175 983 172 982 175 983 l 175 985 b 190 982 179 983 190 983 l 188 982 l 188 971 b 199 961 192 965 196 963 b 192 958 194 961 192 960 b 206 954 192 956 199 954 b 231 976 219 954 215 971 b 228 978 229 976 228 976 b 239 982 228 979 235 982 b 251 979 244 982 247 979 l 254 976 b 274 969 264 976 264 969 l 290 969 b 318 961 299 969 306 961 b 310 953 318 958 311 953 l 306 951 l 307 950 l 293 942 l 293 938 b 299 933 293 936 299 935 l 299 929 l 293 926 l 293 921 b 299 910 293 915 299 913 l 299 901 b 290 882 299 896 290 892 l 290 876 b 281 867 290 872 281 869 l 281 861 b 283 840 283 854 283 847 b 261 722 283 824 261 751 b 268 636 261 694 268 664 b 283 158 268 500 274 267 b 285 147 283 158 285 150 l 285 142 b 288 133 286 140 288 133 l 288 110 b 310 61 288 104 310 67 l 310 47 b 344 21 315 29 344 36 b 339 4 344 17 339 10 b 342 -1 339 4 342 0 l 342 -7 b 339 -10 342 -8 342 -10 l 329 -4 b 242 21 329 11 296 -3 l 238 21 b 147 -6 226 10 168 6 l 143 -6 b 122 -1 138 -6 128 -1 b 113 -10 122 -1 115 -6 l 92 -17 l 90 -19 b 83 -21 88 -19 85 -21 l 78 -19 b 68 -25 71 -19 72 -25 l 58 -25 b 42 -36 58 -31 49 -36 l 42 -32 b 44 -25 42 -31 44 -26 l 49 -21 l 49 -15 m 243 972 b 250 971 244 972 249 971 l 249 974 l 243 972 m 54 -17 b 53 -19 54 -17 53 -18 b 54 -21 53 -21 54 -21 b 56 -19 56 -21 56 -21 b 54 -17 56 -18 56 -17 m 165 1214 b 158 1246 164 1222 160 1244 b 75 1315 149 1257 92 1315 l 67 1317 b -49 1303 33 1317 -7 1303 l -76 1306 b -122 1313 -86 1306 -118 1311 l -149 1328 l -169 1349 b -175 1369 -171 1350 -174 1365 l -176 1389 l -108 1444 l -75 1463 b -43 1474 -71 1467 -50 1474 l -35 1474 b -44 1447 -35 1469 -39 1447 l -33 1421 l -25 1411 b 49 1396 -6 1410 25 1397 l 83 1394 b 140 1403 100 1394 121 1403 l 182 1415 l 218 1407 l 269 1375 b 304 1349 269 1375 294 1358 l 310 1342 b 336 1288 317 1333 333 1293 l 333 1275 b 322 1264 333 1274 322 1265 b 328 1240 322 1254 328 1251 l 328 1231 b 275 1135 328 1218 297 1163 l 275 1136 b 238 1074 271 1136 250 1072 l 164 1031 b 114 1010 132 1015 132 1010 b 108 1011 111 1010 110 1011 l 108 1025 b 124 1060 113 1032 122 1054 b 165 1156 124 1068 165 1101 l 165 1214 "},"ì":{"ha":332,"x_min":0,"x_max":0,"o":"m 193 911 b 186 943 192 919 188 942 b 103 1013 176 954 119 1013 l 94 1014 b -21 1000 61 1014 21 1000 l -49 1003 b -94 1010 -58 1003 -90 1008 l -121 1025 l -142 1046 b -147 1067 -143 1047 -146 1063 l -149 1086 l -81 1142 l -47 1160 b -15 1171 -43 1164 -22 1171 l -7 1171 b -17 1144 -7 1167 -11 1144 l -6 1118 l 3 1108 b 76 1093 22 1107 53 1094 l 111 1092 b 168 1100 128 1092 149 1100 l 210 1113 l 246 1104 l 297 1072 b 332 1046 297 1072 322 1056 l 338 1039 b 364 985 344 1031 361 990 l 361 972 b 350 961 361 971 350 963 b 356 938 350 951 356 949 l 356 928 b 303 832 356 915 325 860 l 303 833 b 190 726 299 833 276 769 b 200 728 193 726 196 728 b 243 719 208 728 219 725 b 258 571 254 707 258 660 l 258 551 b 246 485 258 535 257 511 b 238 465 246 483 238 468 b 247 410 238 460 247 417 b 238 176 247 339 238 261 b 242 156 238 172 242 158 b 290 64 263 97 290 81 b 190 -3 290 14 221 10 b 171 0 185 -3 175 0 b 100 39 163 1 100 24 l 74 54 b 89 174 74 119 78 157 l 89 181 b 86 242 88 186 88 235 b 88 307 88 274 88 278 l 88 557 b 42 642 88 593 83 631 b 193 853 76 667 193 776 l 193 911 "},"í":{"ha":332,"x_min":0,"x_max":0,"o":"m 74 54 b 89 174 74 119 78 157 l 89 181 b 86 242 88 186 88 235 b 88 307 88 274 88 278 l 88 557 b 42 642 88 593 83 631 b 67 672 49 654 50 667 b 217 729 79 685 142 729 l 225 729 l 243 719 b 258 571 254 707 258 660 l 258 551 b 246 485 258 535 257 511 b 238 465 246 483 238 468 b 247 410 238 460 247 417 b 238 176 247 339 238 261 b 242 156 238 172 242 158 b 290 64 263 97 290 81 b 190 -3 290 14 221 10 b 171 0 185 -3 175 0 b 100 39 163 1 100 24 l 74 54 m 25 850 b 82 879 28 850 69 867 l 119 915 b 324 1086 188 981 253 1086 b 372 1054 338 1086 372 1086 b 367 1033 372 1049 371 1042 l 342 986 l 271 906 b 47 783 196 815 103 783 b -39 806 -6 783 -39 800 b -15 826 -39 813 -25 822 l 25 850 "},"ï":{"ha":332,"x_min":0,"x_max":0,"o":"m 74 54 b 89 174 74 119 78 157 l 89 181 b 86 242 88 186 88 235 b 88 307 88 274 88 278 l 88 557 b 42 642 88 593 83 631 b 67 672 49 654 50 667 b 217 729 79 685 142 729 l 225 729 l 243 719 b 258 571 254 707 258 660 l 258 551 b 246 485 258 535 257 511 b 238 465 246 483 238 468 b 247 410 238 460 247 417 b 238 176 247 339 238 261 b 242 156 238 172 242 158 b 290 64 263 97 290 81 b 190 -3 290 14 221 10 b 171 0 185 -3 175 0 b 100 39 163 1 100 24 l 74 54 m 318 767 b 211 911 268 765 226 788 l 211 928 b 311 988 239 979 289 988 l 317 988 b 385 879 382 986 385 946 b 328 767 385 833 386 767 l 318 767 m 60 763 b -54 907 6 764 -37 778 l -53 924 b 51 985 -22 978 32 985 b 119 883 115 985 119 943 b 63 763 119 838 125 763 l 60 763 "},"Ï":{"ha":386,"x_min":0,"x_max":0,"o":"m 44 -11 l 44 3 l 54 22 l 58 22 l 58 15 b 61 13 58 15 61 14 l 67 3 l 67 -6 b 81 -10 68 -6 79 -8 l 85 -10 b 93 8 88 -10 88 4 l 79 29 b 81 32 79 31 81 32 l 79 35 b 74 43 78 38 74 40 l 74 64 b 99 129 74 97 99 100 b 113 794 113 339 113 544 b 100 838 113 799 101 838 b 101 843 100 839 101 840 b 99 849 101 843 99 846 l 97 854 b 83 883 97 861 83 878 l 83 890 b 79 913 83 892 79 911 b 129 964 79 951 103 925 l 142 974 b 147 986 144 979 147 982 b 168 985 154 986 161 986 l 171 982 b 175 983 172 982 175 983 l 175 985 b 190 982 179 983 190 983 l 188 982 l 188 971 b 199 961 192 965 196 963 b 192 958 194 961 192 960 b 206 954 192 956 199 954 b 231 976 219 954 215 971 b 228 978 229 976 228 976 b 239 982 228 979 235 982 b 251 979 244 982 247 979 l 254 976 b 274 969 264 976 264 969 l 290 969 b 318 961 299 969 306 961 b 310 953 318 958 311 953 l 306 951 l 307 950 l 293 942 l 293 938 b 299 933 293 936 299 935 l 299 929 l 293 926 l 293 921 b 299 910 293 915 299 913 l 299 901 b 290 882 299 896 290 892 l 290 876 b 281 867 290 872 281 869 l 281 861 b 283 840 283 854 283 847 b 261 722 283 824 261 751 b 268 636 261 694 268 664 b 283 158 268 500 274 267 b 285 147 283 158 285 150 l 285 142 b 288 133 286 140 288 133 l 288 110 b 310 61 288 104 310 67 l 310 47 b 344 21 315 29 344 36 b 339 4 344 17 339 10 b 342 -1 339 4 342 0 l 342 -7 b 339 -10 342 -8 342 -10 l 329 -4 b 242 21 329 11 296 -3 l 238 21 b 147 -6 226 10 168 6 l 143 -6 b 122 -1 138 -6 128 -1 b 113 -10 122 -1 115 -6 l 92 -17 l 90 -19 b 83 -21 88 -19 85 -21 l 78 -19 b 68 -25 71 -19 72 -25 l 58 -25 b 42 -36 58 -31 49 -36 l 42 -32 b 44 -25 42 -31 44 -26 l 49 -21 l 49 -15 m 243 972 b 250 971 244 972 249 971 l 249 974 l 243 972 m 54 -17 b 53 -19 54 -17 53 -18 b 54 -21 53 -21 54 -21 b 56 -19 56 -21 56 -21 b 54 -17 56 -18 56 -17 m 333 1061 b 226 1206 283 1060 242 1082 l 226 1222 b 326 1282 254 1274 304 1282 l 332 1282 b 400 1174 397 1281 400 1240 b 343 1061 400 1128 401 1061 l 333 1061 m 75 1057 b -39 1201 21 1058 -22 1072 l -37 1218 b 67 1279 -7 1272 47 1279 b 135 1178 131 1279 135 1238 b 78 1057 135 1132 140 1057 l 75 1057 "},"Í":{"ha":386,"x_min":0,"x_max":0,"o":"m 44 -11 l 44 3 l 54 22 l 58 22 l 58 15 b 61 13 58 15 61 14 l 67 3 l 67 -6 b 81 -10 68 -6 79 -8 l 85 -10 b 93 8 88 -10 88 4 l 79 29 b 81 32 79 31 81 32 l 79 35 b 74 43 78 38 74 40 l 74 64 b 99 129 74 97 99 100 b 113 794 113 339 113 544 b 100 838 113 799 101 838 b 101 843 100 839 101 840 b 99 849 101 843 99 846 l 97 854 b 83 883 97 861 83 878 l 83 890 b 79 913 83 892 79 911 b 129 964 79 951 103 925 l 142 974 b 147 986 144 979 147 982 b 168 985 154 986 161 986 l 171 982 b 175 983 172 982 175 983 l 175 985 b 190 982 179 983 190 983 l 188 982 l 188 971 b 199 961 192 965 196 963 b 192 958 194 961 192 960 b 206 954 192 956 199 954 b 231 976 219 954 215 971 b 228 978 229 976 228 976 b 239 982 228 979 235 982 b 251 979 244 982 247 979 l 254 976 b 274 969 264 976 264 969 l 290 969 b 318 961 299 969 306 961 b 310 953 318 958 311 953 l 306 951 l 307 950 l 293 942 l 293 938 b 299 933 293 936 299 935 l 299 929 l 293 926 l 293 921 b 299 910 293 915 299 913 l 299 901 b 290 882 299 896 290 892 l 290 876 b 281 867 290 872 281 869 l 281 861 b 283 840 283 854 283 847 b 261 722 283 824 261 751 b 268 636 261 694 268 664 b 283 158 268 500 274 267 b 285 147 283 158 285 150 l 285 142 b 288 133 286 140 288 133 l 288 110 b 310 61 288 104 310 67 l 310 47 b 344 21 315 29 344 36 b 339 4 344 17 339 10 b 342 -1 339 4 342 0 l 342 -7 b 339 -10 342 -8 342 -10 l 329 -4 b 242 21 329 11 296 -3 l 238 21 b 147 -6 226 10 168 6 l 143 -6 b 122 -1 138 -6 128 -1 b 113 -10 122 -1 115 -6 l 92 -17 l 90 -19 b 83 -21 88 -19 85 -21 l 78 -19 b 68 -25 71 -19 72 -25 l 58 -25 b 42 -36 58 -31 49 -36 l 42 -32 b 44 -25 42 -31 44 -26 l 49 -21 l 49 -15 m 243 972 b 250 971 244 972 249 971 l 249 974 l 243 972 m 54 -17 b 53 -19 54 -17 53 -18 b 54 -21 53 -21 54 -21 b 56 -19 56 -21 56 -21 b 54 -17 56 -18 56 -17 m 49 1111 b 106 1140 51 1111 93 1128 l 143 1176 b 347 1347 211 1242 276 1347 b 396 1315 361 1347 396 1347 b 390 1294 396 1310 394 1303 l 365 1247 l 294 1167 b 71 1044 219 1076 126 1044 b -15 1067 18 1044 -15 1061 b 8 1088 -15 1074 -1 1083 l 49 1111 "},"Ò":{"ha":1042,"x_min":0,"x_max":0,"o":"m 411 8 b 318 36 385 8 356 36 l 257 86 b 206 135 242 99 218 119 l 179 169 l 182 168 l 169 178 b 125 257 164 182 128 236 b 76 351 121 257 81 321 l 63 388 b 42 488 63 393 42 415 l 42 536 b 83 661 42 558 54 632 l 83 663 b 136 765 83 663 118 754 l 189 825 b 275 872 203 825 243 858 l 275 871 b 338 915 299 882 321 892 l 350 933 l 436 967 b 571 985 457 975 508 981 b 638 968 588 985 629 975 l 692 950 b 696 949 693 949 694 949 l 738 933 l 761 913 l 781 901 l 779 901 b 783 900 781 900 782 900 l 847 856 l 889 814 l 897 801 b 986 626 944 768 986 639 b 997 558 986 607 994 565 l 1000 510 b 972 374 1001 479 971 399 b 925 243 972 369 957 267 l 908 231 l 889 208 b 818 147 858 174 831 153 l 800 129 b 707 64 761 90 732 93 l 665 44 b 633 35 657 40 643 36 l 619 31 b 615 25 618 31 615 28 l 525 7 l 526 7 b 478 0 513 3 499 0 b 432 6 454 0 442 3 l 433 6 b 411 8 426 7 419 8 m 279 335 b 288 308 286 326 288 318 b 365 207 340 238 349 211 l 393 183 l 392 183 l 453 147 b 533 136 471 136 510 143 b 551 139 538 138 546 139 l 589 139 b 653 154 608 139 619 150 l 668 158 l 667 157 b 713 178 700 178 699 168 l 753 210 b 789 254 781 236 789 243 l 808 293 b 817 342 808 301 813 325 l 836 444 l 831 457 b 825 485 828 465 825 474 l 825 496 b 819 525 822 504 819 517 l 821 574 b 810 603 821 593 810 586 l 804 614 b 786 650 799 618 794 633 b 742 708 778 667 750 692 l 699 751 b 574 831 664 769 618 818 l 575 831 l 550 839 b 483 851 526 839 503 851 l 471 851 b 411 836 449 851 432 842 l 413 838 b 379 821 397 829 385 822 l 369 821 l 349 810 b 321 794 343 806 329 797 b 200 608 242 746 203 675 l 200 544 b 258 374 200 481 244 432 l 279 335 m 558 1228 b 551 1260 557 1236 553 1258 b 468 1329 542 1271 485 1329 l 460 1331 b 344 1317 426 1331 386 1317 l 317 1319 b 271 1326 307 1319 275 1325 l 244 1342 l 224 1363 b 218 1383 222 1364 219 1379 l 217 1403 l 285 1458 l 318 1476 b 350 1488 322 1481 343 1488 l 358 1488 b 349 1461 358 1483 354 1461 l 360 1435 l 368 1425 b 442 1410 388 1424 418 1411 l 476 1408 b 533 1417 493 1408 514 1417 l 575 1429 l 611 1421 l 663 1389 b 697 1363 663 1389 688 1372 l 703 1356 b 729 1301 710 1347 726 1307 l 726 1289 b 715 1278 726 1288 715 1279 b 721 1254 715 1268 721 1265 l 721 1244 b 668 1149 721 1232 690 1176 l 668 1150 b 631 1088 664 1150 643 1086 l 557 1044 b 507 1024 525 1029 525 1024 b 501 1025 504 1024 503 1025 l 501 1039 b 517 1074 506 1046 515 1068 b 558 1169 517 1082 558 1115 l 558 1228 "},"Ó":{"ha":1042,"x_min":0,"x_max":0,"o":"m 411 8 b 318 36 385 8 356 36 l 257 86 b 206 135 242 99 218 119 l 179 169 l 182 168 l 169 178 b 125 257 164 182 128 236 b 76 351 121 257 81 321 l 63 388 b 42 488 63 393 42 415 l 42 536 b 83 661 42 558 54 632 l 83 663 b 136 765 83 663 118 754 l 189 825 b 275 872 203 825 243 858 l 275 871 b 338 915 299 882 321 892 l 350 933 l 436 967 b 571 985 457 975 508 981 b 638 968 588 985 629 975 l 692 950 b 696 949 693 949 694 949 l 738 933 l 761 913 l 781 901 l 779 901 b 783 900 781 900 782 900 l 847 856 l 889 814 l 897 801 b 986 626 944 768 986 639 b 997 558 986 607 994 565 l 1000 510 l 1000 507 b 972 375 1000 475 972 401 l 972 374 b 925 243 972 369 957 267 l 908 231 l 889 208 b 818 147 858 174 831 153 l 800 129 b 707 64 761 90 732 93 l 665 44 b 633 35 657 40 643 36 l 619 31 b 615 25 618 31 615 28 l 525 7 l 526 7 b 478 0 513 3 499 0 b 432 6 454 0 442 3 l 433 6 b 411 8 426 7 419 8 m 279 335 b 288 308 286 326 288 318 b 365 207 340 238 349 211 l 393 183 l 392 183 l 453 147 b 533 136 471 136 510 143 b 551 139 538 138 546 139 l 589 139 b 653 154 608 139 619 150 l 668 158 l 667 157 b 713 178 700 178 699 168 l 753 210 b 789 254 781 236 789 243 l 808 293 b 817 342 808 301 813 325 l 836 444 l 831 457 b 825 485 828 465 825 474 l 825 496 b 819 525 822 504 819 517 l 821 574 b 810 603 821 593 810 586 l 804 614 b 786 650 799 618 794 633 b 742 708 778 667 750 692 l 699 751 b 574 831 664 769 618 818 l 575 831 l 550 839 b 483 851 526 839 503 851 l 471 851 b 411 836 449 851 432 842 l 413 838 b 379 821 397 829 385 822 l 369 821 l 349 810 b 321 794 343 806 329 797 b 200 608 242 746 203 675 l 200 544 b 258 374 200 481 244 432 l 279 335 m 396 1086 b 453 1115 399 1086 440 1103 l 490 1151 b 694 1322 558 1217 624 1322 b 743 1290 708 1322 743 1322 b 738 1269 743 1285 742 1278 l 713 1222 l 642 1142 b 418 1019 567 1051 474 1019 b 332 1042 365 1019 332 1036 b 356 1063 332 1049 346 1058 l 396 1086 "},"Õ":{"ha":1042,"x_min":0,"x_max":0,"o":"m 983 1219 b 797 1013 936 1022 872 1013 b 601 1181 740 1013 767 1004 b 556 1188 586 1182 571 1186 b 454 1028 485 1188 463 1081 l 444 969 b 571 985 469 976 515 981 b 638 968 588 985 629 975 l 692 950 b 696 949 693 949 694 949 l 738 933 l 761 913 l 781 901 l 779 901 b 783 900 781 900 782 900 l 847 856 l 889 814 l 897 801 b 986 626 944 768 986 639 b 997 558 986 607 994 565 l 1000 507 b 972 371 1001 475 971 390 l 972 369 b 925 243 972 351 951 263 l 908 231 l 889 208 b 818 147 858 174 831 153 l 800 129 b 707 64 761 90 732 93 l 665 44 b 633 35 657 40 643 36 l 619 31 b 615 25 618 31 615 28 l 525 7 l 526 7 b 478 0 513 3 499 0 b 432 6 454 0 442 3 l 433 6 b 411 8 426 7 419 8 b 318 36 385 8 356 36 l 257 86 b 206 135 242 99 218 119 l 179 169 l 182 168 l 169 178 b 125 257 164 182 128 236 b 76 351 121 257 81 321 l 63 388 b 42 488 63 393 42 415 l 42 536 b 83 661 42 558 54 632 l 83 663 b 136 765 83 663 118 754 l 189 825 b 275 872 203 825 243 858 l 275 871 b 338 915 299 882 321 892 l 350 933 l 374 942 l 374 1050 l 378 1085 l 390 1136 b 401 1176 394 1151 401 1176 l 453 1267 l 478 1283 b 626 1314 522 1308 594 1310 b 703 1297 657 1314 672 1297 l 764 1249 l 763 1250 b 790 1193 769 1249 785 1217 l 789 1194 l 815 1158 b 836 1125 819 1150 832 1131 b 914 1238 864 1131 899 1179 l 939 1285 b 976 1318 939 1285 963 1318 l 988 1304 b 990 1285 989 1300 990 1294 b 983 1219 990 1271 983 1251 m 279 335 b 288 308 286 326 288 318 b 365 207 340 238 349 211 l 393 183 l 392 183 l 453 147 b 533 136 471 136 510 143 b 551 139 538 138 546 139 l 589 139 b 653 154 608 139 619 150 l 668 158 l 667 157 b 713 178 700 178 699 168 l 753 210 b 789 254 781 236 789 243 l 808 293 b 817 342 808 301 813 325 l 836 444 l 831 457 b 825 485 828 465 825 474 l 825 496 b 819 525 822 504 819 517 l 821 574 b 810 603 821 593 810 586 l 804 614 b 786 650 799 618 794 633 b 742 708 778 667 750 692 l 699 751 b 574 831 664 769 618 818 l 575 831 l 550 839 b 483 851 526 839 503 851 l 471 851 b 411 836 449 851 432 842 l 413 838 b 379 821 397 829 385 822 l 369 821 l 349 810 b 321 794 343 806 329 797 b 200 608 242 746 203 675 l 200 544 b 258 374 200 481 244 432 l 279 335 "},"Ã":{"ha":1169,"x_min":0,"x_max":0,"o":"m 1103 1231 b 917 1024 1056 1033 992 1024 b 721 1192 860 1024 886 1015 b 675 1199 706 1193 690 1197 b 574 1039 604 1199 582 1092 l 563 971 l 581 971 b 610 976 590 971 607 975 b 661 1008 608 979 643 990 l 669 1010 b 706 968 690 1010 674 968 l 707 951 b 725 896 707 942 725 907 l 736 875 l 750 826 b 801 715 760 824 782 769 b 982 285 869 529 890 513 b 985 278 982 282 983 279 l 985 281 b 992 253 990 271 992 263 b 1008 203 992 233 1008 221 l 1063 121 b 1068 106 1063 119 1065 108 l 1074 97 b 1088 71 1078 89 1085 81 b 1085 72 1088 71 1086 72 l 1085 71 b 1101 56 1085 63 1088 56 l 1113 50 b 1128 36 1119 46 1128 39 b 1119 22 1128 35 1125 31 l 1104 15 b 1032 7 1068 15 1050 11 l 1033 7 b 944 -12 1018 1 953 3 l 932 -19 b 878 -79 914 -37 888 -79 b 864 -74 874 -79 869 -78 b 867 -61 864 -69 864 -64 l 867 -35 b 869 -8 867 -29 869 -14 l 869 1 b 831 153 864 53 863 69 l 819 182 b 776 290 814 190 796 257 l 754 356 b 746 388 750 364 747 381 l 739 406 l 722 421 l 724 421 b 715 426 721 422 718 424 b 697 394 713 410 706 403 l 682 375 b 646 311 679 347 646 326 b 647 289 646 306 647 296 l 642 257 b 632 224 642 243 632 224 l 632 225 l 624 213 b 613 199 622 206 617 203 b 614 193 614 199 614 196 l 599 193 b 565 296 581 193 574 269 l 560 303 b 550 313 558 304 553 308 l 542 324 l 543 324 l 506 357 l 506 356 l 461 382 b 447 388 458 382 450 386 l 436 388 b 421 360 435 386 422 381 b 381 276 421 360 381 308 l 372 260 b 360 225 365 246 360 235 l 349 208 b 243 15 343 183 317 97 l 206 -19 l 142 -86 b 140 -65 142 -67 140 -65 l 140 -43 l 151 -33 b 188 57 172 -11 188 6 b 185 92 188 61 185 82 l 181 104 b 168 143 179 107 168 136 l 168 144 b 114 169 161 144 138 169 l 99 169 b 65 168 97 169 82 168 b 42 169 57 168 49 168 b 78 207 42 190 61 199 l 92 214 b 97 218 94 214 94 215 b 256 267 122 231 235 246 b 350 324 306 279 339 283 l 393 394 l 392 393 b 421 457 401 419 400 403 b 453 557 422 465 453 544 l 453 558 b 485 631 458 581 479 607 l 532 729 l 531 729 l 536 746 b 540 758 540 754 540 756 b 539 771 540 761 539 768 b 547 801 539 771 543 790 l 547 803 b 540 822 544 807 542 817 l 517 856 b 503 872 513 858 507 865 l 494 881 b 486 890 492 882 490 886 l 475 899 b 449 908 469 899 449 908 l 440 908 b 392 899 431 908 410 899 l 307 899 b 275 904 307 901 288 904 l 263 915 l 263 926 b 283 944 265 931 278 942 l 292 949 l 338 949 b 393 943 354 949 369 943 l 400 943 b 414 947 403 943 410 946 l 413 946 b 421 949 418 949 418 949 b 493 968 478 949 458 964 l 493 1061 l 497 1096 l 510 1147 b 521 1188 514 1163 521 1188 l 572 1278 l 597 1294 b 746 1325 642 1319 714 1321 b 822 1308 776 1325 792 1308 l 883 1260 l 882 1261 b 910 1204 889 1260 904 1228 l 908 1206 l 935 1169 b 956 1136 939 1161 951 1142 b 1033 1249 983 1142 1018 1190 l 1058 1296 b 1096 1329 1058 1296 1082 1329 l 1107 1315 b 1110 1296 1108 1311 1110 1306 b 1103 1231 1110 1282 1103 1263 m 646 386 b 669 410 650 389 660 399 l 708 443 b 721 460 711 447 721 451 l 721 468 b 585 732 708 494 610 732 b 560 685 581 732 564 732 l 542 664 l 538 650 l 519 621 l 499 564 l 494 532 b 479 492 494 524 479 501 l 479 485 b 526 440 485 479 489 456 l 539 433 l 615 360 l 617 361 b 618 364 617 363 617 363 l 646 386 "},"ò":{"ha":838,"x_min":0,"x_max":0,"o":"m 463 900 b 456 932 461 908 457 931 b 372 1001 446 943 389 1001 l 364 1003 b 249 989 331 1003 290 989 l 221 992 b 175 999 211 992 179 997 l 149 1014 l 128 1035 b 122 1056 126 1036 124 1051 l 121 1075 l 189 1131 l 222 1149 b 254 1160 226 1153 247 1160 l 263 1160 b 253 1133 263 1156 258 1133 l 264 1107 l 272 1097 b 346 1082 292 1096 322 1083 l 381 1081 b 438 1089 397 1081 418 1089 l 479 1101 l 515 1093 l 567 1061 b 601 1035 567 1061 592 1044 l 607 1028 b 628 969 624 1008 628 988 b 625 926 628 954 625 940 l 625 917 b 478 726 625 872 524 750 l 489 726 b 519 717 496 726 508 721 l 531 713 l 529 714 l 569 701 b 626 668 593 690 613 668 l 653 661 b 744 572 685 658 694 607 b 796 421 744 546 789 489 l 796 353 l 789 314 b 650 99 772 225 671 147 l 636 86 l 610 74 b 536 26 599 69 557 29 l 476 11 b 463 7 471 10 461 7 l 464 7 b 371 -1 429 -1 418 -1 b 224 33 304 -1 283 4 l 199 57 b 75 206 125 126 97 154 l 57 247 b 42 340 42 290 42 290 b 174 592 42 431 103 533 l 238 626 l 282 657 b 292 661 285 658 292 660 l 342 692 b 463 842 394 724 463 742 l 463 900 m 203 471 b 208 444 203 468 208 444 l 208 446 l 217 400 b 236 343 218 390 233 350 l 235 344 l 272 274 b 306 219 282 254 303 243 l 344 176 b 390 144 353 167 375 151 l 401 139 l 400 140 l 433 126 b 475 114 440 121 471 114 l 565 114 b 604 168 574 119 588 133 l 603 167 l 615 200 l 622 208 l 621 207 b 639 286 633 233 639 244 b 636 324 639 297 638 322 b 597 404 632 339 597 390 l 589 421 b 532 513 576 444 554 486 b 358 613 529 525 392 613 b 346 607 354 608 350 607 b 324 608 340 607 333 608 b 221 525 303 608 272 597 l 208 506 b 206 496 208 503 207 499 l 206 497 b 203 483 204 492 203 486 l 203 471 "},"ó":{"ha":838,"x_min":0,"x_max":0,"o":"m 42 340 b 174 592 42 431 103 533 l 238 626 l 282 657 b 292 661 285 658 292 660 l 342 692 b 489 726 382 717 451 726 b 519 717 496 726 508 721 l 531 713 l 529 714 l 569 701 b 626 668 593 690 613 668 l 653 661 b 744 572 685 658 694 607 b 796 421 744 546 789 489 l 796 353 l 789 314 b 650 99 772 225 672 147 l 636 86 l 610 74 b 536 26 599 69 557 29 l 476 11 b 463 7 471 10 461 7 l 464 7 b 371 -1 429 -1 418 -1 b 224 33 304 -1 283 4 l 199 57 b 75 206 125 126 97 154 l 57 247 b 42 340 42 290 42 290 m 203 471 b 208 444 203 468 208 444 l 208 446 l 217 400 b 236 343 218 390 233 350 l 235 344 l 272 274 b 306 219 282 254 303 243 l 344 176 b 390 144 353 167 375 151 l 401 139 l 400 140 l 433 126 b 475 114 440 121 471 114 l 565 114 b 604 168 574 119 588 133 l 603 167 l 615 200 l 622 208 l 621 207 b 639 286 633 233 639 244 b 636 324 639 297 638 322 b 597 404 632 339 597 390 l 589 421 b 532 513 576 444 554 486 b 358 613 529 525 392 613 b 346 607 354 608 350 607 b 324 608 340 607 333 608 b 221 525 303 608 272 597 l 208 506 b 206 496 208 503 207 499 l 206 497 b 203 483 204 492 203 486 l 203 471 m 276 850 b 333 879 279 850 321 867 l 371 915 b 575 1086 439 981 504 1086 b 624 1054 589 1086 624 1086 b 618 1033 624 1049 622 1042 l 593 986 l 522 906 b 299 783 447 815 354 783 b 213 806 246 783 213 800 b 236 826 213 813 226 822 l 276 850 "},"Ö":{"ha":1042,"x_min":0,"x_max":0,"o":"m 411 8 b 318 36 385 8 356 36 l 257 86 b 206 135 242 99 218 119 l 179 169 l 182 168 l 169 178 b 125 257 164 182 128 236 b 76 351 121 257 81 321 l 63 388 b 42 488 63 393 42 415 l 42 536 b 83 661 42 558 54 632 l 83 663 b 136 765 83 663 118 754 l 189 825 b 275 872 203 825 243 858 l 275 871 b 338 915 299 882 321 892 l 350 933 l 436 967 b 571 985 457 975 508 981 b 638 968 588 985 629 975 l 692 950 b 696 949 693 949 694 949 l 738 933 l 761 913 l 781 901 l 779 901 b 783 900 781 900 782 900 l 847 856 l 889 814 l 897 801 b 986 626 944 768 986 639 b 997 558 986 607 994 565 l 1000 510 b 972 374 1001 479 971 399 b 925 243 972 369 957 267 l 908 231 l 889 208 b 818 147 858 174 831 153 l 800 129 b 707 64 761 90 732 93 l 665 44 b 633 35 657 40 643 36 l 619 31 b 615 25 618 31 615 28 l 525 7 l 526 7 b 478 0 513 3 499 0 b 432 6 454 0 442 3 l 433 6 b 411 8 426 7 419 8 m 279 335 b 288 308 286 326 288 318 b 365 207 340 238 349 211 l 393 183 l 392 183 l 453 147 b 533 136 471 136 510 143 b 551 139 538 138 546 139 l 589 139 b 653 154 608 139 619 150 l 668 158 l 667 157 b 713 178 700 178 699 168 l 753 210 b 789 254 781 236 789 243 l 808 293 b 817 342 808 301 813 325 l 836 444 l 831 457 b 825 485 828 465 825 474 l 825 496 b 819 525 822 504 819 517 l 821 574 b 810 603 821 593 810 586 l 804 614 b 786 650 799 618 794 633 b 742 708 778 667 750 692 l 699 751 b 574 831 664 769 618 818 l 575 831 l 550 839 b 483 851 526 839 503 851 l 471 851 b 411 836 449 851 432 842 l 413 838 b 379 821 397 829 385 822 l 369 821 l 349 810 b 321 794 343 806 329 797 b 200 608 242 746 203 675 l 200 544 b 258 374 200 481 244 432 l 279 335 m 644 1017 b 538 1161 594 1015 553 1038 l 538 1178 b 638 1238 565 1229 615 1238 l 643 1238 b 711 1129 708 1236 711 1196 b 654 1017 711 1083 713 1017 l 644 1017 m 386 1013 b 272 1157 332 1014 289 1028 l 274 1174 b 378 1235 304 1228 358 1235 b 446 1133 442 1235 446 1193 b 389 1013 446 1088 451 1013 l 386 1013 "},"ö":{"ha":838,"x_min":0,"x_max":0,"o":"m 42 340 b 174 592 42 431 103 533 l 238 626 l 282 657 b 292 661 285 658 292 660 l 342 692 b 489 726 382 717 451 726 b 519 717 496 726 508 721 l 531 713 l 529 714 l 569 701 b 626 668 593 690 613 668 l 653 661 b 744 572 685 658 694 607 b 796 421 744 546 789 489 l 796 353 l 789 314 b 650 99 772 225 672 147 l 636 86 l 610 74 b 536 26 599 69 557 29 l 476 11 b 463 7 471 10 461 7 l 464 7 b 371 -1 429 -1 418 -1 b 224 33 304 -1 283 4 l 199 57 b 75 206 125 126 97 154 l 57 247 b 42 340 42 290 42 290 m 203 471 b 208 444 203 468 208 444 l 208 446 l 217 400 b 236 343 218 390 233 350 l 235 344 l 272 274 b 306 219 282 254 303 243 l 344 176 b 390 144 353 167 375 151 l 401 139 l 400 140 l 433 126 b 475 114 440 121 471 114 l 565 114 b 604 168 574 119 588 133 l 603 167 l 615 200 l 622 208 l 621 207 b 639 286 633 233 639 244 b 636 324 639 297 638 322 b 597 404 632 339 597 390 l 589 421 b 532 513 576 444 554 486 b 358 613 529 525 392 613 b 346 607 354 608 350 607 b 324 608 340 607 333 608 b 221 525 303 608 272 597 l 208 506 b 206 496 208 503 207 499 l 206 497 b 203 483 204 492 203 486 l 203 471 m 569 767 b 463 911 519 765 478 788 l 463 928 b 563 988 490 979 540 988 l 568 988 b 636 879 633 986 636 946 b 579 767 636 833 638 767 l 569 767 m 311 763 b 197 907 257 764 214 778 l 199 924 b 303 985 229 978 283 985 b 371 883 367 985 371 943 b 314 763 371 838 376 763 l 311 763 "},"Ù":{"ha":1036,"x_min":0,"x_max":0,"o":"m 740 115 b 703 149 736 126 703 139 l 703 154 l 721 179 l 735 218 b 744 285 739 225 744 254 l 742 294 l 742 493 l 746 568 b 744 639 744 576 744 607 l 743 747 b 688 940 738 850 688 853 b 711 985 688 965 690 965 l 726 999 l 753 1010 b 888 1026 797 1024 801 1026 b 933 978 911 1026 931 1019 b 958 743 940 869 951 842 l 958 722 b 932 593 958 650 932 651 l 939 489 b 932 443 939 478 935 460 l 933 431 b 928 296 929 354 928 326 b 929 243 928 281 929 265 b 919 203 922 236 919 219 b 938 115 919 143 926 131 l 965 78 b 994 33 981 65 993 58 l 994 32 b 913 -47 994 6 935 -25 l 889 -86 b 833 -100 876 -100 863 -100 l 806 -100 b 740 115 761 -100 746 24 m 44 307 b 42 375 43 331 42 353 b 47 431 42 394 43 413 l 60 493 l 58 507 b 172 733 82 588 128 658 l 188 772 l 201 822 l 201 853 b 185 936 197 910 185 878 b 364 975 185 971 292 975 l 411 975 l 411 969 b 311 836 411 917 344 926 b 290 760 307 828 293 767 l 258 708 l 246 644 l 242 585 b 232 482 242 556 232 544 l 233 456 b 264 367 239 424 261 400 l 274 342 b 347 243 285 325 336 254 b 471 190 351 233 432 208 l 488 179 l 540 168 l 567 154 b 631 115 578 150 621 122 b 608 65 614 97 617 81 l 585 39 l 517 3 b 431 1 503 3 444 1 b 278 28 336 1 324 4 l 206 78 b 88 168 158 111 114 106 b 44 307 54 214 47 258 m 489 1211 b 482 1243 488 1219 483 1242 b 399 1313 472 1254 415 1313 l 390 1314 b 275 1300 357 1314 317 1300 l 247 1303 b 201 1310 238 1303 206 1308 l 175 1325 l 154 1346 b 149 1367 153 1347 150 1363 l 147 1386 l 215 1442 l 249 1460 b 281 1471 253 1464 274 1471 l 289 1471 b 279 1444 289 1467 285 1444 l 290 1418 l 299 1408 b 372 1393 318 1407 349 1394 l 407 1392 b 464 1400 424 1392 444 1400 l 506 1413 l 542 1404 l 593 1372 b 628 1346 593 1372 618 1356 l 633 1339 b 660 1285 640 1331 657 1290 l 657 1272 b 646 1261 657 1271 646 1263 b 651 1238 646 1251 651 1249 l 651 1228 b 599 1132 651 1215 621 1160 l 599 1133 b 561 1071 594 1133 574 1069 l 488 1028 b 438 1007 456 1013 456 1007 b 432 1008 435 1007 433 1008 l 432 1022 b 447 1057 436 1029 446 1051 b 489 1153 447 1065 489 1099 l 489 1211 "},"Ú":{"ha":1036,"x_min":0,"x_max":0,"o":"m 740 115 b 703 149 736 126 703 139 l 703 154 l 721 179 l 735 218 b 744 285 739 225 744 254 l 742 294 l 742 493 l 746 568 b 744 639 744 576 744 607 l 743 747 b 688 940 738 850 688 853 b 711 985 688 965 690 965 l 726 999 l 753 1010 b 888 1026 797 1024 801 1026 b 933 978 911 1026 931 1019 b 958 743 940 869 951 842 l 958 722 b 932 593 958 650 932 651 l 939 489 b 932 443 939 478 935 460 l 933 431 b 928 296 929 354 928 326 b 929 243 928 281 929 265 b 919 203 922 236 919 219 b 938 115 919 143 926 131 l 965 78 b 994 33 981 65 993 58 l 994 32 b 913 -47 994 6 935 -25 l 889 -86 b 833 -100 876 -100 863 -100 l 806 -100 b 740 115 761 -100 746 24 m 44 307 b 42 375 43 331 42 353 b 47 431 42 394 43 413 l 60 493 l 58 507 b 172 733 82 588 128 658 l 188 772 l 201 822 l 201 853 b 185 936 197 910 185 878 b 364 975 185 971 292 975 l 411 975 l 411 969 b 311 836 411 917 344 926 b 290 760 307 828 293 767 l 258 708 l 246 644 l 242 585 b 232 482 242 556 232 544 l 233 456 b 264 367 239 424 261 400 l 274 342 b 347 243 285 325 336 254 b 471 190 351 233 432 208 l 488 179 l 540 168 l 567 154 b 631 115 578 150 621 122 b 608 65 614 97 617 81 l 585 39 l 517 3 b 431 1 503 3 444 1 b 278 28 336 1 324 4 l 206 78 b 88 168 158 111 114 106 b 44 307 54 214 47 258 m 399 1114 b 456 1143 401 1114 443 1131 l 493 1179 b 697 1350 561 1244 626 1350 b 746 1318 711 1350 746 1350 b 740 1297 746 1313 744 1306 l 715 1250 l 644 1169 b 421 1047 569 1079 476 1047 b 335 1069 368 1047 335 1064 b 358 1090 335 1076 349 1086 l 399 1114 "},"Ü":{"ha":1036,"x_min":0,"x_max":0,"o":"m 740 115 b 703 149 736 126 703 139 l 703 154 l 721 179 l 735 218 b 744 285 739 225 744 254 l 742 294 l 742 493 l 746 568 b 744 639 744 576 744 607 l 743 747 b 688 940 738 850 688 853 b 711 985 688 965 690 965 l 726 999 l 753 1010 b 888 1026 797 1024 801 1026 b 933 978 911 1026 931 1019 b 958 743 940 869 951 842 l 958 722 b 932 593 958 650 932 651 l 939 489 b 932 443 939 478 935 460 l 933 431 b 928 296 929 354 928 326 b 929 243 928 281 929 265 b 919 203 922 236 919 219 b 938 115 919 143 926 131 l 965 78 b 994 33 981 65 993 58 l 994 32 b 913 -47 994 6 935 -25 l 889 -86 b 833 -100 876 -100 863 -100 l 806 -100 b 740 115 761 -100 746 24 m 44 307 b 42 375 43 331 42 353 b 47 431 42 394 43 413 l 60 493 l 58 507 b 172 733 82 588 128 658 l 188 772 l 201 822 l 201 853 b 185 936 197 910 185 878 b 364 975 185 971 292 975 l 411 975 l 411 969 b 311 836 411 917 344 926 b 290 760 307 828 293 767 l 258 708 l 246 644 l 242 585 b 232 482 242 556 232 544 l 233 456 b 264 367 239 424 261 400 l 274 342 b 347 243 285 325 336 254 b 471 190 351 233 432 208 l 488 179 l 540 168 l 567 154 b 631 115 578 150 621 122 b 608 65 614 97 617 81 l 585 39 l 517 3 b 431 1 503 3 444 1 b 278 28 336 1 324 4 l 206 78 b 88 168 158 111 114 106 b 44 307 54 214 47 258 m 675 1081 b 568 1225 625 1079 583 1101 l 568 1242 b 668 1301 596 1293 646 1301 l 674 1301 b 742 1193 739 1300 742 1260 b 685 1081 742 1147 743 1081 l 675 1081 m 417 1076 b 303 1221 363 1078 319 1092 l 304 1238 b 408 1299 335 1292 389 1299 b 476 1197 472 1299 476 1257 b 419 1076 476 1151 482 1076 l 417 1076 "},"Ý":{"ha":944,"x_min":0,"x_max":0,"o":"m 447 -192 b 332 -283 372 -261 333 -274 b 260 -328 331 -283 283 -315 b 181 -358 240 -344 182 -349 l 178 -358 b 118 -368 164 -358 128 -368 l 61 -360 b 51 -365 61 -360 54 -365 l -47 -351 b -82 -322 -62 -344 -68 -324 l -147 -297 b -250 -178 -162 -281 -232 -217 l -247 -172 b -231 -171 -243 -172 -233 -171 b -229 -174 -229 -172 -229 -172 b -124 -217 -181 -186 -156 -212 b -62 -219 -101 -219 -82 -218 b -12 -203 -51 -215 -29 -203 l -4 -203 b 193 -133 39 -203 176 -149 b 268 -78 229 -100 267 -89 l 283 -67 b 325 -37 294 -49 317 -56 b 417 24 385 -1 396 0 l 422 31 b 449 58 429 43 447 43 l 450 76 b 447 78 449 76 449 76 l 442 99 b 354 179 440 119 367 151 b 299 233 335 197 318 193 l 257 317 b 236 374 254 324 243 351 l 236 372 b 228 396 232 381 228 396 l 218 456 b 194 518 215 460 200 494 l 196 519 b 178 553 196 526 182 544 b 64 819 99 742 122 740 b 29 867 58 840 29 835 l 29 872 b 128 957 32 892 56 938 l 125 954 l 157 971 b 271 804 215 931 249 874 b 494 321 344 569 393 321 b 511 322 500 321 506 321 l 535 315 b 549 338 538 317 547 326 l 619 550 b 657 690 631 550 642 636 l 658 707 b 657 721 657 710 657 717 b 585 808 643 725 585 753 b 740 886 585 843 600 886 l 813 924 b 872 925 819 924 849 925 b 903 924 885 925 896 925 b 875 864 897 885 876 872 l 864 831 b 821 781 861 825 831 789 l 793 751 l 793 753 b 786 726 790 750 786 732 l 761 564 l 740 514 b 675 346 736 482 694 381 l 656 286 b 592 -53 639 286 592 28 l 592 -57 b 450 -194 586 -99 524 -154 b 447 -192 449 -194 447 -193 m 308 1094 b 365 1124 311 1094 353 1111 l 403 1160 b 607 1331 471 1225 536 1331 b 656 1299 621 1331 656 1331 b 650 1278 656 1293 654 1286 l 625 1231 l 554 1150 b 331 1028 479 1060 386 1028 b 244 1050 278 1028 244 1044 b 268 1071 244 1057 258 1067 l 308 1094 "},"ý":{"ha":1106,"x_min":0,"x_max":0,"o":"m 617 -360 b 622 -314 617 -349 621 -322 b 619 -271 622 -308 619 -282 b 650 -167 619 -251 629 -235 l 650 -160 b 668 -43 663 -125 668 -94 l 668 -21 b 644 26 664 -10 649 19 b 528 82 639 43 547 61 b 456 119 501 94 485 92 l 393 179 b 360 221 389 183 371 204 l 360 219 b 347 238 353 225 347 238 l 325 283 b 289 331 322 286 300 313 l 290 331 b 267 356 290 335 271 349 l 269 351 b 89 553 143 494 172 496 b 42 589 81 568 42 561 b 144 664 42 606 61 643 l 143 663 l 182 679 b 214 694 185 681 208 694 l 239 694 b 333 611 301 674 331 654 l 340 600 b 447 442 371 540 433 485 b 488 393 447 431 472 417 l 503 351 l 501 353 l 531 299 b 571 268 540 289 561 268 l 621 238 b 692 206 619 240 658 208 l 721 203 b 735 221 724 204 733 213 l 786 393 b 808 490 789 393 808 449 b 807 506 808 490 808 499 l 807 518 b 801 529 806 519 801 526 b 794 536 796 532 794 536 b 707 600 772 538 707 550 b 879 665 707 625 729 654 l 957 700 b 1064 708 971 701 1039 708 b 1040 660 1064 678 1040 665 l 1032 633 b 989 589 1029 629 999 597 l 961 564 l 961 565 b 956 546 958 563 956 550 l 956 522 b 950 417 956 496 950 426 l 935 376 b 882 239 932 350 899 268 l 874 224 l 867 192 b 808 -12 867 185 851 88 l 808 -11 l 775 -164 l 746 -261 b 701 -314 724 -292 729 -286 l 692 -325 b 646 -378 679 -347 661 -378 b 617 -367 640 -378 619 -369 m 411 850 b 468 879 414 850 456 867 l 506 915 b 710 1086 574 981 639 1086 b 758 1054 724 1086 758 1086 b 753 1033 758 1049 757 1042 l 728 986 l 657 906 b 433 783 582 815 489 783 b 347 806 381 783 347 800 b 371 826 347 813 361 822 l 411 850 "},"Ÿ":{"ha":944,"x_min":0,"x_max":0,"o":"m 447 -192 b 332 -283 372 -261 333 -274 b 260 -328 331 -283 283 -315 b 181 -358 240 -344 182 -349 l 178 -358 b 118 -368 164 -358 128 -368 l 61 -360 b 51 -365 61 -360 54 -365 l -47 -351 b -82 -322 -62 -344 -68 -324 l -147 -297 b -250 -178 -162 -281 -232 -217 l -247 -172 b -231 -171 -243 -172 -233 -171 b -229 -174 -229 -172 -229 -172 b -124 -217 -181 -186 -156 -212 b -62 -219 -101 -219 -82 -218 b -12 -203 -51 -215 -29 -203 l -4 -203 b 193 -133 39 -203 176 -149 b 268 -78 229 -100 267 -89 l 283 -67 b 325 -37 294 -49 317 -56 b 417 24 385 -1 396 0 l 422 31 b 449 58 429 43 447 43 l 450 76 b 447 78 449 76 449 76 l 442 99 b 354 179 440 119 367 151 b 299 233 335 197 318 193 l 257 317 b 236 374 254 324 243 351 l 236 372 b 228 396 232 381 228 396 l 218 456 b 194 518 215 460 200 494 l 196 519 b 178 553 196 526 182 544 b 64 819 99 742 122 740 b 29 867 58 840 29 835 l 29 872 b 128 957 32 892 56 938 l 125 954 l 157 971 b 271 804 215 931 249 874 b 494 321 344 569 393 321 b 511 322 500 321 506 321 l 535 315 b 549 338 538 317 547 326 l 619 550 b 657 690 631 550 642 636 l 658 707 b 657 721 657 710 657 717 b 585 808 643 725 585 753 b 740 886 585 843 600 886 l 813 924 b 872 925 819 924 849 925 b 903 924 885 925 896 925 b 875 864 897 885 876 872 l 864 831 b 821 781 861 825 831 789 l 793 751 l 793 753 b 786 726 790 750 786 732 l 761 564 l 740 514 b 675 346 736 482 694 381 l 656 286 b 592 -53 639 286 592 28 l 592 -57 b 450 -194 586 -99 524 -154 b 447 -192 449 -194 447 -193 m 607 1006 b 500 1150 557 1004 515 1026 l 500 1167 b 600 1226 528 1218 578 1226 l 606 1226 b 674 1118 671 1225 674 1185 b 617 1006 674 1072 675 1006 l 607 1006 m 349 1001 b 235 1146 294 1003 251 1017 l 236 1163 b 340 1224 267 1217 321 1224 b 408 1122 404 1224 408 1182 b 351 1001 408 1076 414 1001 l 349 1001 "},"ÿ":{"ha":1106,"x_min":0,"x_max":0,"o":"m 617 -360 b 622 -314 617 -349 621 -322 b 619 -271 622 -308 619 -282 b 650 -167 619 -251 629 -235 l 650 -160 b 668 -43 663 -125 668 -94 l 668 -21 b 644 26 664 -10 649 19 b 528 82 639 43 547 61 b 456 119 501 94 485 92 l 393 179 b 360 221 389 183 371 204 l 360 219 b 347 238 353 225 347 238 l 325 283 b 289 331 322 286 300 313 l 290 331 b 267 356 290 335 271 349 l 269 351 b 89 553 143 494 172 496 b 42 589 81 568 42 561 b 144 664 42 606 61 643 l 143 663 l 182 679 b 214 694 185 681 208 694 l 239 694 b 333 611 301 674 331 654 l 340 600 b 447 442 371 540 433 485 b 488 393 447 431 472 417 l 503 351 l 501 353 l 531 299 b 571 268 540 289 561 268 l 621 238 b 692 206 619 240 658 208 l 721 203 b 735 221 724 204 733 213 l 786 393 b 808 490 789 393 808 449 b 807 506 808 490 808 499 l 807 518 b 801 529 806 519 801 526 b 794 536 796 532 794 536 b 707 600 772 538 707 550 b 879 665 707 625 729 654 l 957 700 b 1064 708 971 701 1039 708 b 1040 660 1064 678 1040 665 l 1032 633 b 989 589 1029 629 999 597 l 961 564 l 961 565 b 956 546 958 563 956 550 l 956 522 b 950 417 956 496 950 426 l 935 376 b 882 239 932 350 899 268 l 874 224 l 867 192 b 808 -12 867 185 851 88 l 808 -11 l 775 -164 l 746 -261 b 701 -314 724 -292 729 -286 l 692 -325 b 646 -378 679 -347 661 -378 b 617 -367 640 -378 619 -369 m 704 767 b 597 911 654 765 613 788 l 597 928 b 697 988 625 979 675 988 l 703 988 b 771 879 768 986 771 946 b 714 767 771 833 772 767 l 704 767 m 446 763 b 332 907 392 764 349 778 l 333 924 b 438 985 364 978 418 985 b 506 883 501 985 506 943 b 449 763 506 838 511 763 l 446 763 "},"e":{"ha":814,"x_min":0,"x_max":0,"o":"m 44 349 b 65 483 47 418 49 432 l 85 517 b 93 531 89 521 93 526 l 114 567 l 135 588 l 133 588 l 147 606 l 189 628 b 243 674 207 638 217 663 l 242 674 l 315 707 l 311 700 b 403 733 321 710 375 733 l 413 733 b 444 732 422 733 433 732 b 482 740 464 732 468 733 l 557 726 l 588 717 l 656 669 l 715 606 b 772 454 740 578 772 529 b 697 400 772 433 733 400 l 432 400 l 406 390 l 390 390 b 350 397 378 396 365 397 b 322 396 344 397 333 396 l 294 394 b 207 358 272 390 207 379 b 235 290 207 346 226 317 b 299 164 243 243 261 219 l 304 154 b 418 82 317 128 382 106 b 471 65 428 69 457 72 l 579 65 b 604 72 579 65 594 72 l 633 81 l 633 61 l 615 43 b 540 10 588 21 553 10 b 393 -4 492 10 494 -4 l 358 -4 b 322 -3 343 -4 328 -3 l 307 4 b 193 40 263 6 222 24 l 176 50 l 119 106 l 107 125 b 81 165 97 138 88 151 l 61 213 l 63 211 b 49 253 56 222 51 238 l 42 285 m 224 478 b 258 471 231 476 253 471 l 278 471 l 289 478 l 329 485 b 347 492 332 485 346 490 b 489 506 408 492 397 506 b 581 497 544 506 556 506 b 569 514 581 503 574 508 l 569 513 b 557 521 565 517 561 521 l 486 593 l 472 599 b 410 632 456 614 417 632 l 301 631 b 219 503 285 625 219 593 l 219 481 "},"T":{"ha":1282,"x_min":0,"x_max":0,"o":"m 551 78 b 586 124 557 96 569 108 l 592 129 l 583 311 b 588 329 585 315 588 328 l 588 346 b 581 364 588 347 582 361 l 581 399 b 575 499 581 438 575 481 b 579 539 575 519 579 538 l 579 551 b 578 558 579 553 578 556 l 578 575 b 581 594 579 578 581 592 l 581 657 b 571 743 578 686 571 726 b 579 765 572 749 575 757 l 571 858 l 571 857 b 544 881 565 871 557 881 l 396 881 b 285 886 383 881 300 886 l 246 886 b 219 872 240 886 228 879 l 219 871 b 228 863 222 867 224 867 l 228 864 b 250 814 240 853 250 846 b 196 767 235 783 206 767 l 147 767 b 94 783 133 767 104 775 l 96 783 l 88 788 b 68 800 83 789 74 793 b 53 799 68 800 67 799 b 42 865 53 804 43 864 l 42 900 b 46 913 43 901 46 906 l 156 957 b 190 967 175 963 190 967 b 283 992 213 989 236 975 b 389 1001 289 992 278 1001 l 422 1001 b 438 997 425 1001 431 999 l 504 997 b 546 992 514 997 539 992 l 568 992 b 588 990 574 992 581 990 l 649 990 b 690 997 669 990 682 997 l 719 997 b 786 990 742 992 753 990 b 828 993 800 990 814 990 b 850 988 829 993 843 990 l 897 988 b 951 982 918 983 935 982 b 1085 990 1000 982 1040 990 b 1165 982 1108 990 1139 988 l 1200 982 b 1240 946 1211 982 1240 964 b 1194 906 1240 925 1211 908 l 1146 886 b 1094 875 1138 883 1118 878 l 1029 867 b 1022 865 1028 867 1026 865 l 1015 865 b 796 881 886 865 828 881 l 788 881 b 779 882 785 881 782 882 l 761 882 b 754 881 758 882 756 881 l 751 881 l 757 736 b 749 542 757 674 749 603 l 749 463 b 746 333 749 460 746 401 b 771 119 746 239 750 126 l 772 118 b 794 114 775 118 788 114 l 817 110 b 893 103 828 107 854 103 l 935 82 b 896 29 919 39 919 39 l 864 15 l 864 17 b 797 -4 849 10 806 -4 l 622 -4 l 604 7 b 574 19 594 8 575 18 l 551 40 l 551 78 "},"G":{"ha":1001,"x_min":0,"x_max":0,"o":"m 413 -422 b 392 -419 404 -422 396 -421 l 392 -418 b 144 -131 285 -394 144 -258 b 336 97 144 -89 150 4 l 336 96 l 351 104 b 349 106 350 106 350 106 b 268 157 310 128 281 144 l 229 140 b 100 67 196 125 147 89 b 78 76 89 75 78 76 b 240 211 100 124 207 161 b 42 521 133 263 42 404 b 533 932 42 726 335 922 l 549 929 b 571 894 564 914 571 907 l 571 872 b 500 833 565 863 517 836 l 474 828 b 464 826 472 828 469 826 b 185 565 339 797 185 719 b 251 403 185 463 239 413 b 308 363 256 396 281 375 l 326 351 b 411 313 367 339 368 326 l 485 288 b 572 247 542 286 560 265 l 574 203 l 503 193 b 733 46 596 146 678 146 l 732 46 l 758 -1 b 764 -37 758 -10 764 -18 b 442 -422 764 -206 619 -422 l 413 -422 m 461 -317 b 479 -318 468 -318 474 -318 b 640 -136 576 -318 640 -232 b 421 47 640 1 524 47 b 268 -96 403 47 276 7 l 274 -114 b 336 -239 279 -135 274 -175 l 336 -237 b 461 -317 371 -272 414 -310 m 582 304 l 631 336 b 825 618 749 407 825 503 b 794 738 825 658 813 701 l 796 738 b 708 832 764 786 731 814 l 697 840 b 342 1038 569 944 478 989 b 264 1068 318 1046 289 1056 l 265 1068 b 243 1078 257 1071 251 1075 l 214 1097 l 225 1132 b 239 1143 225 1132 231 1138 l 238 1143 b 272 1164 246 1150 258 1158 l 308 1176 b 326 1179 314 1176 326 1179 b 960 679 543 1150 919 961 l 960 668 b 675 274 960 506 811 358 b 618 250 663 258 640 250 b 572 289 593 250 572 268 "},"'":{"ha":383,"x_min":0,"x_max":0,"o":"m 203 667 b 156 733 203 693 172 717 l 101 776 b 42 835 75 789 54 803 l 42 851 b 63 876 43 854 58 871 b 96 918 82 876 71 896 l 142 960 b 161 968 143 961 158 967 l 185 968 b 203 926 189 968 192 938 l 214 910 l 263 885 b 328 818 288 867 313 844 l 342 776 l 342 750 l 335 700 b 308 642 332 696 314 653 l 296 625 b 242 550 285 611 256 567 l 203 525 b 188 522 200 525 190 522 b 203 583 188 522 192 567 l 203 667 "},"\"":{"ha":700,"x_min":0,"x_max":0,"o":"m 203 667 b 156 733 203 693 172 717 l 101 776 b 42 835 75 789 54 803 l 42 851 b 63 876 43 854 58 871 l 64 876 b 96 918 81 876 74 897 l 142 960 b 161 968 143 961 158 967 l 185 968 b 203 926 189 968 192 938 l 214 910 l 263 885 b 328 818 288 867 313 844 l 342 776 l 342 750 l 335 700 b 308 642 332 696 314 653 l 296 625 b 242 550 285 611 256 567 l 203 525 b 188 522 200 525 190 522 b 203 583 188 522 192 567 l 203 667 m 519 672 b 472 739 519 699 489 722 l 418 782 b 358 840 392 794 371 808 l 358 857 b 379 882 360 860 375 876 l 381 882 b 413 924 397 882 390 903 l 458 965 b 478 974 460 967 475 972 l 501 974 b 519 932 506 974 508 943 l 531 915 l 579 890 b 644 824 604 872 629 850 l 658 782 l 658 756 l 651 706 b 625 647 649 701 631 658 l 613 631 b 558 556 601 617 572 572 l 519 531 b 504 528 517 531 507 528 b 519 589 504 528 508 572 l 519 672 "},"”":{"ha":700,"x_min":0,"x_max":0,"o":"m 203 667 b 156 733 203 693 172 717 l 101 776 b 42 835 75 789 54 803 l 42 851 b 63 876 43 854 58 871 l 64 876 b 96 918 81 876 74 897 l 142 960 b 161 968 143 961 158 967 l 185 968 b 203 926 189 968 192 938 l 214 910 l 263 885 b 328 818 288 867 313 844 l 342 776 l 342 750 l 335 700 b 308 642 332 696 314 653 l 296 625 b 242 550 285 611 256 567 l 203 525 b 188 522 200 525 190 522 b 203 583 188 522 192 567 l 203 667 m 519 672 b 472 739 519 699 489 722 l 418 782 b 358 840 392 794 371 808 l 358 857 b 379 882 360 860 375 876 l 381 882 b 413 924 397 882 390 903 l 458 965 b 478 974 460 967 475 972 l 501 974 b 519 932 506 974 508 943 l 531 915 l 579 890 b 644 824 604 872 629 850 l 658 782 l 658 756 l 651 706 b 625 647 649 701 631 658 l 613 631 b 558 556 601 617 572 572 l 519 531 b 504 528 517 531 507 528 b 519 589 504 528 508 572 l 519 672 "},"“":{"ha":700,"x_min":0,"x_max":0,"o":"m 497 828 b 544 761 497 801 528 778 l 599 718 b 658 660 625 706 646 692 l 658 643 b 638 618 657 640 642 624 l 636 618 b 604 576 619 618 626 597 l 558 535 b 539 526 557 533 542 528 l 515 526 b 497 568 511 526 508 557 l 486 585 l 438 610 b 372 676 413 628 388 650 l 358 718 l 358 744 l 365 794 b 392 853 368 799 386 842 l 404 869 b 458 944 414 883 444 928 l 497 969 b 513 972 500 969 510 972 b 497 911 513 972 508 926 l 497 828 m 181 822 b 228 756 181 796 211 772 l 282 713 b 342 654 308 700 329 686 l 342 638 b 321 613 340 635 325 618 l 319 613 b 288 571 303 613 310 592 l 242 529 b 222 521 240 528 225 522 l 199 521 b 181 563 194 521 192 551 l 169 579 l 121 604 b 56 671 96 622 71 644 l 42 713 l 42 739 l 49 789 b 75 847 51 793 69 836 l 88 864 b 142 939 97 878 128 922 l 181 964 b 196 967 183 964 193 967 b 181 906 196 967 192 921 l 181 822 "},"’":{"ha":383,"x_min":0,"x_max":0,"o":"m 203 667 b 156 733 203 693 172 717 l 101 776 b 42 835 75 789 54 803 l 42 851 b 63 876 43 854 58 871 b 96 918 82 876 71 896 l 142 960 b 161 968 143 961 158 967 l 185 968 b 203 926 189 968 192 938 l 214 910 l 263 885 b 328 818 288 867 313 844 l 342 776 l 342 750 l 335 700 b 308 642 332 696 314 653 l 296 625 b 242 550 285 611 256 567 l 203 525 b 188 522 200 525 190 522 b 203 583 188 522 192 567 l 203 667 "},"‘":{"ha":383,"x_min":0,"x_max":0,"o":"m 181 824 b 228 757 181 796 211 774 l 282 714 b 342 656 308 701 329 688 l 342 639 b 321 614 340 636 325 619 b 288 572 300 614 311 594 l 242 531 b 222 522 240 529 225 524 l 199 521 b 181 564 194 521 192 553 l 169 581 l 121 606 b 56 672 96 624 71 646 l 42 714 l 42 740 l 49 790 l 75 849 l 88 865 b 142 940 97 879 126 922 l 181 965 b 196 968 183 965 193 968 b 181 907 196 968 192 922 l 181 824 "},"‚":{"ha":383,"x_min":0,"x_max":0,"o":"m 203 -72 b 156 -6 203 -46 172 -22 l 101 38 b 42 96 75 50 54 64 l 42 113 b 63 138 43 115 58 132 b 96 179 82 138 71 157 l 142 221 b 161 229 143 222 158 228 l 185 229 b 203 188 189 229 192 199 l 214 171 l 263 146 b 328 79 288 128 313 106 l 342 38 l 342 11 l 335 -39 b 308 -97 332 -43 314 -86 l 296 -114 b 242 -189 285 -128 256 -172 l 203 -214 b 188 -217 200 -214 190 -217 b 203 -156 188 -217 192 -172 l 203 -72 "},"„":{"ha":700,"x_min":0,"x_max":0,"o":"m 203 -75 b 156 -8 203 -49 172 -25 l 101 35 b 42 93 75 47 54 61 l 42 110 b 63 135 43 113 58 129 l 64 135 b 96 176 81 135 74 156 l 142 218 b 161 226 143 219 158 225 l 185 226 b 203 185 189 226 192 196 l 214 168 l 263 143 b 328 76 288 125 313 103 l 342 35 l 342 8 l 335 -42 b 308 -100 332 -46 314 -89 l 296 -117 b 242 -192 285 -131 256 -175 l 203 -217 b 188 -219 200 -217 190 -219 b 203 -158 188 -219 192 -175 l 203 -75 m 519 -69 b 472 -3 519 -43 489 -19 l 418 40 b 358 99 392 53 371 67 l 358 115 b 379 140 360 118 375 135 l 381 140 b 413 182 397 140 390 161 l 458 224 b 478 232 460 225 475 231 l 501 232 b 519 190 506 232 508 201 l 531 174 l 579 149 b 644 82 604 131 629 108 l 658 40 l 658 14 l 651 -36 b 625 -94 649 -40 631 -83 l 613 -111 b 558 -186 601 -125 572 -169 l 519 -211 b 504 -214 517 -211 507 -214 b 519 -153 504 -214 508 -169 l 519 -69 "},"$":{"ha":817,"x_min":0,"x_max":0,"o":"m 492 1017 b 622 997 550 1010 614 997 l 633 997 b 642 996 635 997 636 996 l 671 996 b 703 1000 681 1000 697 1000 l 708 1003 l 728 1003 b 775 958 736 1003 775 1003 b 765 921 775 950 771 932 l 758 897 b 756 883 756 890 756 886 b 767 819 756 881 767 853 b 765 801 767 808 765 801 l 751 778 b 700 728 749 754 710 728 b 500 897 617 728 586 897 l 492 897 b 497 836 493 876 497 839 l 497 814 b 492 726 497 804 492 736 l 492 651 b 488 517 492 639 489 568 b 653 467 549 511 610 506 b 672 454 653 465 661 461 l 682 450 b 767 282 714 428 767 379 b 508 -14 767 106 647 15 l 508 -26 b 522 -83 508 -43 522 -71 b 396 -182 522 -107 429 -182 b 350 -25 368 -182 353 -140 l 307 -19 b 289 -22 303 -21 296 -22 b 219 -8 247 -22 233 -17 l 217 -8 b 72 94 196 -6 121 18 l 46 142 l 46 161 b 69 199 46 172 63 192 l 86 208 l 94 208 b 165 219 115 215 158 219 l 172 219 b 176 218 174 219 174 218 l 200 218 l 211 208 b 232 178 233 208 232 203 l 240 169 b 267 138 249 156 260 140 l 282 124 b 296 119 282 122 289 121 l 350 92 b 372 361 353 124 364 238 l 365 361 b 254 401 360 361 297 381 l 247 406 b 131 463 182 406 168 424 l 118 475 b 96 493 111 478 101 486 l 99 492 b 78 513 86 500 81 508 l 69 522 l 46 575 l 46 582 b 42 688 44 599 42 633 b 54 738 42 707 54 738 l 54 746 b 347 1017 54 882 214 994 b 267 1061 335 1035 306 1039 l 269 1074 b 381 1169 325 1126 351 1169 b 492 1033 407 1169 435 1132 m 357 542 b 379 533 364 538 371 536 l 379 664 b 372 699 379 668 374 694 b 360 892 363 742 368 822 b 361 917 360 893 360 904 b 297 904 339 914 313 908 l 286 894 l 288 894 l 261 872 l 251 856 l 236 843 l 233 838 l 233 839 b 232 836 233 838 232 836 l 232 821 b 213 749 214 801 213 761 b 225 643 213 707 218 690 l 247 624 l 257 608 b 358 542 300 579 306 576 l 357 542 m 622 222 b 490 353 622 300 571 344 b 488 314 489 335 488 315 l 488 268 b 499 86 488 163 494 129 b 622 222 589 108 622 167 "},"€":{"ha":1051,"x_min":0,"x_max":0,"o":"m 847 -61 b 850 -18 847 -47 847 -32 b 831 3 840 -15 831 -11 l 832 11 b 767 38 801 26 772 38 l 733 39 b 660 19 722 13 689 29 l 635 11 l 636 11 l 596 -1 b 571 -4 592 -3 579 -4 l 508 -10 b 503 -11 507 -10 504 -10 l 504 -11 b 490 -12 500 -12 492 -12 b 438 -7 478 -12 451 -7 l 411 -7 l 369 3 b 356 6 365 4 360 6 l 321 19 l 286 40 b 260 63 282 42 263 58 l 238 97 b 68 304 174 139 110 175 l 56 386 b 46 467 53 404 46 456 l 46 507 b 47 513 46 507 46 508 b 42 572 47 529 42 554 b 51 625 42 579 43 593 b 82 732 58 656 69 669 l 150 842 l 199 890 l 214 910 b 242 936 222 919 236 932 l 242 935 l 254 949 b 281 961 260 949 269 954 l 321 982 b 360 1000 338 990 350 1000 l 417 1008 b 460 982 436 1008 449 994 l 458 982 b 469 972 464 976 468 972 l 561 971 b 581 969 567 971 572 969 b 622 971 593 969 608 971 l 707 971 l 739 964 b 756 958 739 964 751 958 l 788 958 b 792 957 789 958 790 957 b 821 963 806 957 810 963 l 857 961 b 885 965 861 961 864 965 b 926 938 897 965 926 956 l 926 932 b 914 904 926 918 914 910 l 929 839 l 944 821 b 947 794 944 817 947 800 l 956 768 l 954 769 l 961 760 l 961 761 l 989 729 l 1001 694 b 1010 668 1007 689 1010 686 b 982 625 1010 633 1004 631 l 961 622 l 936 633 b 928 643 936 635 932 640 l 917 669 l 918 668 b 911 676 917 671 913 674 l 911 675 l 878 718 b 872 733 876 722 872 729 l 814 793 b 788 807 808 796 797 803 l 738 832 l 724 836 b 629 863 711 839 664 856 l 611 871 l 613 871 l 590 886 l 576 889 b 553 883 571 886 554 883 l 506 885 l 493 890 l 449 892 b 408 893 435 892 421 893 b 351 871 378 893 368 886 l 344 865 l 344 867 b 294 807 326 849 313 825 l 269 782 b 260 767 267 775 264 771 l 247 697 l 242 689 l 242 681 b 233 649 242 667 233 664 l 233 640 b 235 633 233 638 235 635 b 233 617 235 624 233 617 l 263 617 l 283 621 l 392 613 l 433 613 b 547 617 467 613 513 617 l 724 613 b 850 622 744 613 821 619 l 864 629 b 883 639 872 629 881 636 l 932 638 b 942 600 932 606 942 613 l 946 592 l 944 513 b 938 493 944 508 940 499 l 942 493 b 953 456 942 461 953 468 l 957 449 l 956 369 b 943 346 956 364 950 351 l 933 331 l 917 317 l 908 315 l 886 319 b 871 343 878 324 871 332 l 874 339 b 869 351 874 340 871 347 l 858 354 b 833 364 851 354 838 364 b 764 383 811 379 789 378 b 622 379 732 383 631 379 l 254 375 b 294 286 267 343 282 304 l 311 271 l 308 271 b 351 203 328 251 347 238 l 356 199 l 356 200 l 413 132 l 489 96 l 488 97 l 514 88 b 579 74 544 76 558 74 l 599 74 b 622 76 601 74 613 75 l 621 76 b 636 78 624 78 632 78 l 683 92 l 706 101 b 710 104 707 101 708 103 l 726 121 b 765 146 732 129 764 146 b 822 185 817 146 819 165 l 832 217 l 879 289 b 932 304 896 289 899 304 l 928 178 l 917 138 b 924 86 917 131 919 114 l 924 74 b 911 3 924 51 911 32 l 904 -33 b 896 -49 904 -33 897 -46 l 881 -65 b 876 -67 879 -65 878 -67 b 854 -69 868 -69 854 -69 m 247 518 b 229 500 240 518 229 511 b 249 476 229 493 233 485 l 364 468 l 410 468 b 531 472 444 468 493 472 l 719 468 b 854 478 742 468 824 475 l 865 482 l 865 485 l 867 483 b 864 493 867 486 864 490 l 854 496 b 831 507 847 496 835 507 b 765 526 810 522 789 521 b 633 522 735 526 640 522 l 601 518 l 247 518 "},"¥":{"ha":838,"x_min":0,"x_max":0,"o":"m 190 353 b 282 340 242 353 269 349 l 289 340 b 326 342 292 342 314 342 b 196 531 281 385 236 450 b 171 601 189 546 179 589 l 164 608 b 115 733 140 667 125 708 l 113 742 l 113 738 b 75 821 100 775 92 797 l 67 828 l 69 825 b 42 871 56 832 42 839 l 42 882 b 136 965 44 899 67 947 l 133 964 l 169 981 b 283 832 233 939 265 890 l 315 725 l 315 726 b 440 458 357 579 393 461 l 463 457 l 519 631 l 525 631 l 525 636 b 531 667 525 644 526 653 l 533 678 b 547 735 536 693 547 721 l 547 736 b 489 824 526 749 489 775 b 635 910 489 861 513 906 l 653 919 l 651 919 b 692 940 664 926 678 935 l 744 940 b 796 935 758 940 769 940 b 774 865 789 892 781 874 l 760 829 b 718 785 756 824 729 793 l 696 764 b 699 757 699 764 699 760 l 679 629 l 660 583 l 661 583 b 567 343 639 475 607 394 l 578 343 b 642 381 606 343 633 347 b 708 235 644 379 708 356 l 703 213 b 589 199 693 203 657 199 l 574 199 b 515 214 560 199 532 210 b 507 81 514 172 507 126 b 511 67 507 78 511 68 b 558 3 532 26 558 15 b 461 -42 558 -31 490 -33 b 442 -40 456 -42 446 -40 b 372 -14 433 -39 372 -24 l 346 -3 b 361 78 346 42 350 67 l 361 83 b 358 125 360 88 360 119 b 360 169 360 147 360 150 l 360 213 b 300 214 340 214 319 214 b 199 169 231 214 214 169 b 147 250 161 169 156 222 b 179 329 149 261 154 329 l 190 353 "},"V":{"ha":1085,"x_min":0,"x_max":0,"o":"m 699 4 b 128 947 575 269 351 528 b 108 972 126 956 129 972 b 72 971 99 972 86 971 l 61 971 b 42 992 61 971 42 971 l 104 1001 b 218 1011 138 1007 179 1011 b 357 950 274 1011 328 997 l 358 942 b 435 804 374 904 411 857 l 443 785 b 686 428 507 653 597 547 l 756 335 l 778 385 b 875 715 824 490 875 607 b 811 901 875 776 857 840 l 811 908 l 806 914 b 789 954 790 929 789 929 b 844 946 813 954 835 953 b 929 965 888 951 917 960 l 928 965 b 951 969 935 968 939 969 b 1033 925 949 969 1033 950 l 1036 919 l 1036 921 b 1043 838 1042 885 1043 858 b 1019 749 1043 785 1032 771 l 1001 714 l 1001 715 b 785 88 915 524 832 294 b 775 72 781 83 778 78 l 769 63 b 717 1 760 43 746 18 "},"U":{"ha":1296,"x_min":0,"x_max":0,"o":"m 1013 92 b 999 85 1008 88 1003 85 b 574 -56 875 0 713 -56 b 43 365 328 -56 106 79 b 42 400 42 374 42 385 b 117 678 42 494 63 597 l 115 675 b 118 679 117 676 118 678 l 126 690 b 201 794 146 731 175 767 l 200 794 l 231 835 b 201 840 226 835 210 838 l 203 840 b 93 899 151 850 93 860 b 158 960 93 919 111 935 b 438 972 239 960 342 972 b 531 969 461 972 508 971 l 531 926 b 329 776 408 822 394 842 l 331 776 b 218 496 264 697 218 594 b 432 122 218 368 299 188 l 431 124 b 704 72 518 94 613 72 b 940 136 788 72 868 90 b 1025 332 1017 178 1025 253 l 1025 394 b 1007 851 1025 468 1018 851 l 951 851 b 915 885 946 851 922 868 b 1092 986 915 938 1063 986 b 1178 950 1117 986 1169 985 l 1179 940 b 1183 931 1179 939 1183 931 l 1175 825 b 1174 794 1175 815 1174 804 l 1174 743 b 1192 132 1174 525 1192 340 l 1192 122 b 1254 67 1192 121 1251 108 l 1219 39 l 1219 40 b 1113 0 1194 15 1153 0 b 1011 42 1079 0 1042 13 l 1011 58 b 1013 65 1011 60 1013 63 "}}}
